  0
SECTION
  2
HEADER
  9
$ACADVER
  1
AC1014
  9
$HANDSEED
  5
FFFF
  9
$INSUNITS
 70
     0
  9
$MEASUREMENT
 70
     1
  0
ENDSEC
  0
SECTION
  2
TABLES
  0
TABLE
  2
VPORT
  5
8
330
0
100
AcDbSymbolTable
 70
     4
  0
VPORT
  5
2E
330
8
100
AcDbSymbolTableRecord
100
AcDbViewportTableRecord
  2
*ACTIVE
 70
     0
 10
0.0
 20
0.0
 11
1.0
 21
1.0
 12
210.0
 22
148.5
 13
0.0
 23
0.0
 14
10.0
 24
10.0
 15
10.0
 25
10.0
 16
0.0
 26
0.0
 36
1.0
 17
0.0
 27
0.0
 37
0.0
 40
341.0
 41
1.24
 42
50.0
 43
0.0
 44
0.0
 50
0.0
 51
0.0
 71
     0
 72
   100
 73
     1
 74
     3
 75
     0
 76
     0
 77
     0
 78
     0
  0
ENDTAB
  0
TABLE
  2
LTYPE
  5
5
330
0
100
AcDbSymbolTable
 70
     1
  0
LTYPE
  5
14
330
5
100
AcDbSymbolTableRecord
100
AcDbLinetypeTableRecord
  2
BYBLOCK
 70
     0
  3

 72
    65
 73
     0
 40
0.0
  0
LTYPE
  5
15
330
5
100
AcDbSymbolTableRecord
100
AcDbLinetypeTableRecord
  2
BYLAYER
 70
     0
  3

 72
    65
 73
     0
 40
0.0
  0
LTYPE
  5
16
330
5
100
AcDbSymbolTableRecord
100
AcDbLinetypeTableRecord
  2
CONTINUOUS
 70
     0
  3
Solid line
 72
    65
 73
     0
 40
0.0
  0
ENDTAB
  0
TABLE
  2
LAYER
  5
2
100
AcDbSymbolTable
 70
1
  0
LAYER
  5
50
100
AcDbSymbolTableRecord
100
AcDbLayerTableRecord
  2
0
 70
0
  6
CONTINUOUS
  0
ENDTAB
  0
TABLE
  2
STYLE
  5
3
330
0
100
AcDbSymbolTable
 70
     1
  0
STYLE
  5
11
330
3
100
AcDbSymbolTableRecord
100
AcDbTextStyleTableRecord
  2
STANDARD
 70
     0
 40
0.0
 41
1.0
 50
0.0
 71
     0
 42
2.5
  3
txt
  4

  0
ENDTAB
  0
TABLE
  2
VIEW
  5
6
330
0
100
AcDbSymbolTable
 70
     0
  0
ENDTAB
  0
TABLE
  2
UCS
  5
7
330
0
100
AcDbSymbolTable
 70
     0
  0
ENDTAB
  0
TABLE
  2
APPID
  5
9
330
0
100
AcDbSymbolTable
 70
     2
  0
APPID
  5
12
330
9
100
AcDbSymbolTableRecord
100
AcDbRegAppTableRecord
  2
ACAD
 70
     0
  0
ENDTAB
  0
TABLE
  2
DIMSTYLE
  5
A
330
0
100
AcDbSymbolTable
 70
     1
  0
DIMSTYLE
105
27
330
A
100
AcDbSymbolTableRecord
100
AcDbDimStyleTableRecord
  2
ISO-25
 70
     0
  3

  4

  5

  6

  7

 40
1.0
 41
2.5
 42
0.625
 43
3.75
 44
1.25
 45
0.0
 46
0.0
 47
0.0
 48
0.0
140
2.5
141
2.5
142
0.0
143
0.03937007874016
144
1.0
145
0.0
146
1.0
147
0.625
 71
     0
 72
     0
 73
     0
 74
     0
 75
     0
 76
     0
 77
     1
 78
     8
170
     0
171
     3
172
     1
173
     0
174
     0
175
     0
176
     0
177
     0
178
     0
270
     2
271
     2
272
     2
273
     2
274
     3
340
11
275
     0
280
     0
281
     0
282
     0
283
     0
284
     8
285
     0
286
     0
287
     3
288
     0
  0
ENDTAB
  0
TABLE
  2
BLOCK_RECORD
  5
1
330
0
100
AcDbSymbolTable
 70
     1
  0
BLOCK_RECORD
  5
1F
330
1
100
AcDbSymbolTableRecord
100
AcDbBlockTableRecord
  2
*MODEL_SPACE
  0
BLOCK_RECORD
  5
1B
330
1
100
AcDbSymbolTableRecord
100
AcDbBlockTableRecord
  2
*PAPER_SPACE
  0
ENDTAB
  0
ENDSEC
  0
SECTION
  2
BLOCKS
  0
BLOCK
  5
20
330
1F
100
AcDbEntity
  8
0
100
AcDbBlockBegin
  2
*MODEL_SPACE
 70
     0
 10
0.0
 20
0.0
 30
0.0
  3
*MODEL_SPACE
  1

  0
ENDBLK
  5
21
330
1F
100
AcDbEntity
  8
0
100
AcDbBlockEnd
  0
BLOCK
  5
1C
330
1B
100
AcDbEntity
 67
     1
  8
0
100
AcDbBlockBegin
  2
*PAPER_SPACE
  1

  0
ENDBLK
  5
1D
330
1B
100
AcDbEntity
 67
     1
  8
0
100
AcDbBlockEnd
  0
ENDSEC
  0
SECTION
  2
ENTITIES
  0
SPLINE
  5
100
100
AcDbEntity
  8
0
 62
7
100
AcDbSpline
 70
8
 71
3
 72
8
 73
4
 74
0
 40
0
 40
0
 40
0
 40
0
 40
1
 40
1
 40
1
 40
1
 10
246.456290
 20
432.595940
 30
0.0
 10
246.460290
 20
456.520950
 30
0.0
 10
246.468790
 20
508.158450
 30
0.0
 10
246.475890
 20
547.345950
 30
0.0
  0
LWPOLYLINE
  5
101
100
AcDbEntity
  8
0
 62
7
100
AcDbPolyline
 90
8
 70
1
 10
-34.550522
 20
503.095950
 30
0.0
 10
-34.550522
 20
638.095950
 30
0.0
 10
381.949490
 20
638.095950
 30
0.0
 10
798.449490
 20
638.095950
 30
0.0
 10
798.449490
 20
503.095950
 30
0.0
 10
798.449490
 20
368.095940
 30
0.0
 10
381.949490
 20
368.095940
 30
0.0
 10
-34.550522
 20
368.095940
 30
0.0
  0
SPLINE
  5
102
100
AcDbEntity
  8
0
 62
7
100
AcDbSpline
 70
8
 71
3
 72
8
 73
4
 74
0
 40
0
 40
0
 40
0
 40
0
 40
1
 40
1
 40
1
 40
1
 10
95.449485
 20
482.702940
 30
0.0
 10
95.449485
 20
528.373310
 30
0.0
 10
95.708495
 20
540.212230
 30
0.0
 10
96.699485
 20
539.838460
 30
0.0
  0
SPLINE
  5
103
100
AcDbEntity
  8
0
 62
7
100
AcDbSpline
 70
8
 71
3
 72
8
 73
4
 74
0
 40
0
 40
0
 40
0
 40
0
 40
1
 40
1
 40
1
 40
1
 10
96.699485
 20
539.838460
 30
0.0
 10
97.386985
 20
539.579160
 30
0.0
 10
101.846660
 20
538.101390
 30
0.0
 10
106.609880
 20
536.554540
 30
0.0
  0
SPLINE
  5
104
100
AcDbEntity
  8
0
 62
7
100
AcDbSpline
 70
8
 71
3
 72
8
 73
4
 74
0
 40
0
 40
0
 40
0
 40
0
 40
1
 40
1
 40
1
 40
1
 10
106.609880
 20
536.554540
 30
0.0
 10
114.526840
 20
533.983510
 30
0.0
 10
115.320880
 20
533.489020
 30
0.0
 10
115.859880
 20
530.794020
 30
0.0
  0
SPLINE
  5
105
100
AcDbEntity
  8
0
 62
7
100
AcDbSpline
 70
8
 71
3
 72
8
 73
4
 74
0
 40
0
 40
0
 40
0
 40
0
 40
1
 40
1
 40
1
 40
1
 10
115.859880
 20
530.794020
 30
0.0
 10
116.184160
 20
529.172580
 30
0.0
 10
116.449490
 20
504.727200
 30
0.0
 10
116.449490
 20
476.470950
 30
0.0
  0
LWPOLYLINE
  5
106
100
AcDbEntity
  8
0
 62
7
100
AcDbPolyline
 90
9
 70
0
 10
246.475890
 20
547.345950
 30
0.0
 10
246.488690
 20
618.595950
 30
0.0
 10
242.969110
 20
618.906310
 30
0.0
 10
239.449530
 20
619.216680
 30
0.0
 10
239.449530
 20
504.156320
 30
0.0
 10
239.449530
 20
389.095940
 30
0.0
 10
242.949530
 20
389.095940
 30
0.0
 10
246.449530
 20
389.095940
 30
0.0
 10
246.456290
 20
432.595940
 30
0.0
  0
SPLINE
  5
107
100
AcDbEntity
  8
0
 62
7
100
AcDbSpline
 70
8
 71
3
 72
8
 73
4
 74
0
 40
0
 40
0
 40
0
 40
0
 40
1
 40
1
 40
1
 40
1
 10
145.027640
 20
517.125660
 30
0.0
 10
148.652920
 20
518.503990
 30
0.0
 10
171.006480
 20
524.095950
 30
0.0
 10
172.891000
 20
524.095950
 30
0.0
  0
SPLINE
  5
108
100
AcDbEntity
  8
0
 62
7
100
AcDbSpline
 70
8
 71
3
 72
8
 73
4
 74
0
 40
0
 40
0
 40
0
 40
0
 40
1
 40
1
 40
1
 40
1
 10
172.891000
 20
524.095950
 30
0.0
 10
174.281330
 20
524.095950
 30
0.0
 10
174.449490
 20
518.755000
 30
0.0
 10
174.449490
 20
474.595950
 30
0.0
  0
LWPOLYLINE
  5
109
100
AcDbEntity
  8
0
 62
7
100
AcDbPolyline
 90
7
 70
0
 10
116.449490
 20
476.470950
 30
0.0
 10
116.449490
 20
425.095940
 30
0.0
 10
129.449490
 20
425.095940
 30
0.0
 10
142.449490
 20
425.095940
 30
0.0
 10
142.449490
 20
470.620700
 30
0.0
 10
142.449490
 20
516.145450
 30
0.0
 10
145.027640
 20
517.125660
 30
0.0
  0
SPLINE
  5
10a
100
AcDbEntity
  8
0
 62
7
100
AcDbSpline
 70
8
 71
3
 72
8
 73
4
 74
0
 40
0
 40
0
 40
0
 40
0
 40
1
 40
1
 40
1
 40
1
 10
205.449490
 20
470.536930
 30
0.0
 10
205.449490
 20
505.808510
 30
0.0
 10
205.169750
 20
516.151860
 30
0.0
 10
204.199490
 20
516.755190
 30
0.0
  0
SPLINE
  5
10b
100
AcDbEntity
  8
0
 62
7
100
AcDbSpline
 70
8
 71
3
 72
8
 73
4
 74
0
 40
0
 40
0
 40
0
 40
0
 40
1
 40
1
 40
1
 40
1
 10
204.199490
 20
516.755190
 30
0.0
 10
203.511990
 20
517.182690
 30
0.0
 10
196.874490
 20
519.387810
 30
0.0
 10
189.449490
 20
521.655460
 30
0.0
  0
LWPOLYLINE
  5
10c
100
AcDbEntity
  8
0
 62
7
100
AcDbPolyline
 90
5
 70
0
 10
174.449490
 20
474.595950
 30
0.0
 10
174.449490
 20
425.095940
 30
0.0
 10
189.949490
 20
425.095940
 30
0.0
 10
205.449490
 20
425.095940
 30
0.0
 10
205.449490
 20
470.536930
 30
0.0
  0
SPLINE
  5
10d
100
AcDbEntity
  8
0
 62
7
100
AcDbSpline
 70
8
 71
3
 72
8
 73
4
 74
0
 40
0
 40
0
 40
0
 40
0
 40
1
 40
1
 40
1
 40
1
 10
94.670455
 20
555.291080
 30
0.0
 10
94.516995
 20
548.033760
 30
0.0
 10
94.066995
 20
542.100970
 30
0.0
 10
93.670455
 20
542.107110
 30
0.0
  0
SPLINE
  5
10e
100
AcDbEntity
  8
0
 62
7
100
AcDbSpline
 70
8
 71
3
 72
8
 73
4
 74
0
 40
0
 40
0
 40
0
 40
0
 40
1
 40
1
 40
1
 40
1
 10
93.670455
 20
542.107110
 30
0.0
 10
93.273925
 20
542.113110
 30
0.0
 10
88.823645
 20
543.406350
 30
0.0
 10
83.780955
 20
544.980660
 30
0.0
  0
LWPOLYLINE
  5
10f
100
AcDbEntity
  8
0
 62
7
100
AcDbPolyline
 90
9
 70
0
 10
189.449490
 20
521.655460
 30
0.0
 10
175.949490
 20
525.778470
 30
0.0
 10
175.449490
 20
547.090270
 30
0.0
 10
174.949490
 20
568.402080
 30
0.0
 10
155.091160
 20
575.347540
 30
0.0
 10
135.232830
 20
582.293000
 30
0.0
 10
115.091160
 20
575.389610
 30
0.0
 10
94.949485
 20
568.486220
 30
0.0
 10
94.670455
 20
555.291080
 30
0.0
  0
SPLINE
  5
110
100
AcDbEntity
  8
0
 62
7
100
AcDbSpline
 70
8
 71
3
 72
8
 73
4
 74
0
 40
0
 40
0
 40
0
 40
0
 40
1
 40
1
 40
1
 40
1
 10
302.744890
 20
427.345940
 30
0.0
 10
305.060850
 20
429.071530
 30
0.0
 10
305.893240
 20
434.165090
 30
0.0
 10
304.226500
 20
436.412270
 30
0.0
  0
SPLINE
  5
111
100
AcDbEntity
  8
0
 62
7
100
AcDbSpline
 70
8
 71
3
 72
8
 73
4
 74
0
 40
0
 40
0
 40
0
 40
0
 40
1
 40
1
 40
1
 40
1
 10
304.226500
 20
436.412270
 30
0.0
 10
303.449500
 20
437.459850
 30
0.0
 10
301.025090
 20
438.477300
 30
0.0
 10
298.498340
 20
438.816210
 30
0.0
  0
SPLINE
  5
112
100
AcDbEntity
  8
0
 62
7
100
AcDbSpline
 70
8
 71
3
 72
8
 73
4
 74
0
 40
0
 40
0
 40
0
 40
0
 40
1
 40
1
 40
1
 40
1
 10
298.498340
 20
438.816210
 30
0.0
 10
294.626210
 20
439.335580
 30
0.0
 10
294.194730
 20
439.202220
 30
0.0
 10
294.783430
 20
437.668100
 30
0.0
  0
SPLINE
  5
113
100
AcDbEntity
  8
0
 62
7
100
AcDbSpline
 70
8
 71
3
 72
8
 73
4
 74
0
 40
0
 40
0
 40
0
 40
0
 40
1
 40
1
 40
1
 40
1
 10
294.783430
 20
437.668100
 30
0.0
 10
295.149760
 20
436.713440
 30
0.0
 10
295.449490
 20
433.719170
 30
0.0
 10
295.449490
 20
431.014150
 30
0.0
  0
SPLINE
  5
114
100
AcDbEntity
  8
0
 62
7
100
AcDbSpline
 70
8
 71
3
 72
8
 73
4
 74
0
 40
0
 40
0
 40
0
 40
0
 40
1
 40
1
 40
1
 40
1
 10
295.449490
 20
431.014150
 30
0.0
 10
295.449490
 20
426.290510
 30
0.0
 10
295.560610
 20
426.095940
 30
0.0
 10
298.258360
 20
426.095940
 30
0.0
  0
SPLINE
  5
115
100
AcDbEntity
  8
0
 62
7
100
AcDbSpline
 70
8
 71
3
 72
8
 73
4
 74
0
 40
0
 40
0
 40
0
 40
0
 40
1
 40
1
 40
1
 40
1
 10
298.258360
 20
426.095940
 30
0.0
 10
299.803240
 20
426.095940
 30
0.0
 10
301.822180
 20
426.658440
 30
0.0
 10
302.744890
 20
427.345940
 30
0.0
  0
LWPOLYLINE
  5
116
100
AcDbEntity
  8
0
 62
7
100
AcDbPolyline
 90
9
 70
0
 10
83.780955
 20
544.980660
 30
0.0
 10
74.612425
 20
547.843060
 30
0.0
 10
55.280951
 20
541.088100
 30
0.0
 10
35.949481
 20
534.333140
 30
0.0
 10
35.690941
 20
479.714550
 30
0.0
 10
35.432401
 20
425.095940
 30
0.0
 10
65.440945
 20
425.095940
 30
0.0
 10
95.449485
 20
425.095940
 30
0.0
 10
95.449485
 20
482.702940
 30
0.0
  0
SPLINE
  5
117
100
AcDbEntity
  8
0
 62
7
100
AcDbSpline
 70
8
 71
3
 72
8
 73
4
 74
0
 40
0
 40
0
 40
0
 40
0
 40
1
 40
1
 40
1
 40
1
 10
296.851470
 20
428.490780
 30
0.0
 10
296.557080
 20
429.257940
 30
0.0
 10
296.458710
 20
431.620440
 30
0.0
 10
296.632860
 20
433.740780
 30
0.0
  0
SPLINE
  5
118
100
AcDbEntity
  8
0
 62
7
100
AcDbSpline
 70
8
 71
3
 72
8
 73
4
 74
0
 40
0
 40
0
 40
0
 40
0
 40
1
 40
1
 40
1
 40
1
 10
296.632860
 20
433.740780
 30
0.0
 10
296.915570
 20
437.182960
 30
0.0
 10
297.215020
 20
437.566080
 30
0.0
 10
299.428230
 20
437.317200
 30
0.0
  0
SPLINE
  5
119
100
AcDbEntity
  8
0
 62
7
100
AcDbSpline
 70
8
 71
3
 72
8
 73
4
 74
0
 40
0
 40
0
 40
0
 40
0
 40
1
 40
1
 40
1
 40
1
 10
299.428230
 20
437.317200
 30
0.0
 10
302.699070
 20
436.949390
 30
0.0
 10
303.699490
 20
435.820840
 30
0.0
 10
303.699490
 20
432.498930
 30
0.0
  0
SPLINE
  5
11a
100
AcDbEntity
  8
0
 62
7
100
AcDbSpline
 70
8
 71
3
 72
8
 73
4
 74
0
 40
0
 40
0
 40
0
 40
0
 40
1
 40
1
 40
1
 40
1
 10
303.699490
 20
432.498930
 30
0.0
 10
303.699490
 20
428.355260
 30
0.0
 10
298.149910
 20
425.107100
 30
0.0
 10
296.851470
 20
428.490780
 30
0.0
  0
LWPOLYLINE
  5
11b
100
AcDbEntity
  8
0
 62
7
100
AcDbPolyline
 90
1
 70
1
 10
302.744890
 20
427.345940
 30
0.0
  0
SPLINE
  5
11c
100
AcDbEntity
  8
0
 62
7
100
AcDbSpline
 70
8
 71
3
 72
8
 73
4
 74
0
 40
0
 40
0
 40
0
 40
0
 40
1
 40
1
 40
1
 40
1
 10
314.949490
 20
426.987850
 30
0.0
 10
311.854280
 20
427.458390
 30
0.0
 10
310.949490
 20
428.038140
 30
0.0
 10
310.949490
 20
429.550860
 30
0.0
  0
SPLINE
  5
11d
100
AcDbEntity
  8
0
 62
7
100
AcDbSpline
 70
8
 71
3
 72
8
 73
4
 74
0
 40
0
 40
0
 40
0
 40
0
 40
1
 40
1
 40
1
 40
1
 10
310.949490
 20
429.550860
 30
0.0
 10
310.949490
 20
430.783990
 30
0.0
 10
311.872520
 20
431.762520
 30
0.0
 10
313.449490
 20
432.201180
 30
0.0
  0
LWPOLYLINE
  5
11e
100
AcDbEntity
  8
0
 62
7
100
AcDbPolyline
 90
1
 70
1
 10
296.851470
 20
428.490780
 30
0.0
  0
SPLINE
  5
11f
100
AcDbEntity
  8
0
 62
7
100
AcDbSpline
 70
8
 71
3
 72
8
 73
4
 74
0
 40
0
 40
0
 40
0
 40
0
 40
1
 40
1
 40
1
 40
1
 10
313.199490
 20
432.996280
 30
0.0
 10
311.158520
 20
433.070280
 30
0.0
 10
310.449490
 20
433.606710
 30
0.0
 10
310.449490
 20
435.076910
 30
0.0
  0
SPLINE
  5
120
100
AcDbEntity
  8
0
 62
7
100
AcDbSpline
 70
8
 71
3
 72
8
 73
4
 74
0
 40
0
 40
0
 40
0
 40
0
 40
1
 40
1
 40
1
 40
1
 10
310.449490
 20
435.076910
 30
0.0
 10
310.449490
 20
437.153390
 30
0.0
 10
314.410900
 20
438.855880
 30
0.0
 10
316.392650
 20
437.631090
 30
0.0
  0
SPLINE
  5
121
100
AcDbEntity
  8
0
 62
7
100
AcDbSpline
 70
8
 71
3
 72
8
 73
4
 74
0
 40
0
 40
0
 40
0
 40
0
 40
1
 40
1
 40
1
 40
1
 10
316.392650
 20
437.631090
 30
0.0
 10
316.973910
 20
437.271830
 30
0.0
 10
317.449490
 20
437.454460
 30
0.0
 10
317.449490
 20
438.036920
 30
0.0
  0
SPLINE
  5
122
100
AcDbEntity
  8
0
 62
7
100
AcDbSpline
 70
8
 71
3
 72
8
 73
4
 74
0
 40
0
 40
0
 40
0
 40
0
 40
1
 40
1
 40
1
 40
1
 10
317.449490
 20
438.036920
 30
0.0
 10
317.449490
 20
438.619380
 30
0.0
 10
315.649490
 20
439.095940
 30
0.0
 10
313.449490
 20
439.095940
 30
0.0
  0
LWPOLYLINE
  5
123
100
AcDbEntity
  8
0
 62
7
100
AcDbPolyline
 90
3
 70
0
 10
313.449490
 20
432.201180
 30
0.0
 10
315.949490
 20
432.896580
 30
0.0
 10
313.199490
 20
432.996280
 30
0.0
  0
SPLINE
  5
124
100
AcDbEntity
  8
0
 62
7
100
AcDbSpline
 70
8
 71
3
 72
8
 73
4
 74
0
 40
0
 40
0
 40
0
 40
0
 40
1
 40
1
 40
1
 40
1
 10
333.449490
 20
426.977550
 30
0.0
 10
330.043610
 20
427.579310
 30
0.0
 10
329.933700
 20
427.743840
 30
0.0
 10
329.362490
 20
433.095940
 30
0.0
  0
LWPOLYLINE
  5
125
100
AcDbEntity
  8
0
 62
7
100
AcDbPolyline
 90
7
 70
0
 10
313.449490
 20
439.095940
 30
0.0
 10
309.449490
 20
439.095940
 30
0.0
 10
309.449490
 20
432.595940
 30
0.0
 10
309.449490
 20
426.095940
 30
0.0
 10
314.199490
 20
426.237850
 30
0.0
 10
318.949490
 20
426.379750
 30
0.0
 10
314.949490
 20
426.987850
 30
0.0
  0
SPLINE
  5
126
100
AcDbEntity
  8
0
 62
7
100
AcDbSpline
 70
8
 71
3
 72
8
 73
4
 74
0
 40
0
 40
0
 40
0
 40
0
 40
1
 40
1
 40
1
 40
1
 10
344.949490
 20
428.095940
 30
0.0
 10
346.654490
 20
428.095940
 30
0.0
 10
348.589490
 20
427.555940
 30
0.0
 10
349.249490
 20
426.895940
 30
0.0
  0
SPLINE
  5
127
100
AcDbEntity
  8
0
 62
7
100
AcDbSpline
 70
8
 71
3
 72
8
 73
4
 74
0
 40
0
 40
0
 40
0
 40
0
 40
1
 40
1
 40
1
 40
1
 10
349.249490
 20
426.895940
 30
0.0
 10
351.013520
 20
425.131910
 30
0.0
 10
350.745220
 20
426.282220
 30
0.0
 10
347.818780
 20
433.030030
 30
0.0
  0
SPLINE
  5
128
100
AcDbEntity
  8
0
 62
7
100
AcDbSpline
 70
8
 71
3
 72
8
 73
4
 74
0
 40
0
 40
0
 40
0
 40
0
 40
1
 40
1
 40
1
 40
1
 10
347.818780
 20
433.030030
 30
0.0
 10
346.371890
 20
436.366280
 30
0.0
 10
344.721890
 20
439.095940
 30
0.0
 10
344.152110
 20
439.095940
 30
0.0
  0
SPLINE
  5
129
100
AcDbEntity
  8
0
 62
7
100
AcDbSpline
 70
8
 71
3
 72
8
 73
4
 74
0
 40
0
 40
0
 40
0
 40
0
 40
1
 40
1
 40
1
 40
1
 10
344.152110
 20
439.095940
 30
0.0
 10
343.582340
 20
439.095940
 30
0.0
 10
343.395960
 20
438.816130
 30
0.0
 10
343.737950
 20
438.474150
 30
0.0
  0
SPLINE
  5
12a
100
AcDbEntity
  8
0
 62
7
100
AcDbSpline
 70
8
 71
3
 72
8
 73
4
 74
0
 40
0
 40
0
 40
0
 40
0
 40
1
 40
1
 40
1
 40
1
 10
343.737950
 20
438.474150
 30
0.0
 10
344.079940
 20
438.132160
 30
0.0
 10
343.254940
 20
435.672120
 30
0.0
 10
341.904620
 20
433.007390
 30
0.0
  0
SPLINE
  5
12b
100
AcDbEntity
  8
0
 62
7
100
AcDbSpline
 70
8
 71
3
 72
8
 73
4
 74
0
 40
0
 40
0
 40
0
 40
0
 40
1
 40
1
 40
1
 40
1
 10
341.904620
 20
433.007390
 30
0.0
 10
339.195520
 20
427.661240
 30
0.0
 10
338.621940
 20
424.868390
 30
0.0
 10
340.649490
 20
426.895940
 30
0.0
  0
SPLINE
  5
12c
100
AcDbEntity
  8
0
 62
7
100
AcDbSpline
 70
8
 71
3
 72
8
 73
4
 74
0
 40
0
 40
0
 40
0
 40
0
 40
1
 40
1
 40
1
 40
1
 10
340.649490
 20
426.895940
 30
0.0
 10
341.309490
 20
427.555940
 30
0.0
 10
343.244490
 20
428.095940
 30
0.0
 10
344.949490
 20
428.095940
 30
0.0
  0
LWPOLYLINE
  5
12d
100
AcDbEntity
  8
0
 62
7
100
AcDbPolyline
 90
7
 70
0
 10
329.362490
 20
433.095940
 30
0.0
 10
328.775480
 20
438.595940
 30
0.0
 10
328.612490
 20
432.345940
 30
0.0
 10
328.449490
 20
426.095940
 30
0.0
 10
332.699490
 20
426.227580
 30
0.0
 10
336.949490
 20
426.359220
 30
0.0
 10
333.449490
 20
426.977550
 30
0.0
  0
SPLINE
  5
12e
100
AcDbEntity
  8
0
 62
7
100
AcDbSpline
 70
8
 71
3
 72
8
 73
4
 74
0
 40
0
 40
0
 40
0
 40
0
 40
1
 40
1
 40
1
 40
1
 10
342.449490
 20
430.404810
 30
0.0
 10
342.449490
 20
431.124690
 30
0.0
 10
343.065250
 20
432.555790
 30
0.0
 10
343.817850
 20
433.585030
 30
0.0
  0
SPLINE
  5
12f
100
AcDbEntity
  8
0
 62
7
100
AcDbSpline
 70
8
 71
3
 72
8
 73
4
 74
0
 40
0
 40
0
 40
0
 40
0
 40
1
 40
1
 40
1
 40
1
 10
343.817850
 20
433.585030
 30
0.0
 10
345.142970
 20
435.397230
 30
0.0
 10
345.221990
 20
435.389540
 30
0.0
 10
346.317850
 20
433.341900
 30
0.0
  0
SPLINE
  5
130
100
AcDbEntity
  8
0
 62
7
100
AcDbSpline
 70
8
 71
3
 72
8
 73
4
 74
0
 40
0
 40
0
 40
0
 40
0
 40
1
 40
1
 40
1
 40
1
 10
346.317850
 20
433.341900
 30
0.0
 10
348.033100
 20
430.136950
 30
0.0
 10
347.697610
 20
429.095940
 30
0.0
 10
344.949490
 20
429.095940
 30
0.0
  0
SPLINE
  5
131
100
AcDbEntity
  8
0
 62
7
100
AcDbSpline
 70
8
 71
3
 72
8
 73
4
 74
0
 40
0
 40
0
 40
0
 40
0
 40
1
 40
1
 40
1
 40
1
 10
344.949490
 20
429.095940
 30
0.0
 10
343.556190
 20
429.095940
 30
0.0
 10
342.449490
 20
429.675350
 30
0.0
 10
342.449490
 20
430.404810
 30
0.0
  0
LWPOLYLINE
  5
132
100
AcDbEntity
  8
0
 62
7
100
AcDbPolyline
 90
1
 70
1
 10
344.949490
 20
428.095940
 30
0.0
  0
SPLINE
  5
133
100
AcDbEntity
  8
0
 62
7
100
AcDbSpline
 70
8
 71
3
 72
8
 73
4
 74
0
 40
0
 40
0
 40
0
 40
0
 40
1
 40
1
 40
1
 40
1
 10
368.459860
 20
434.095940
 30
0.0
 10
368.952320
 20
434.095940
 30
0.0
 10
370.791030
 20
432.309300
 30
0.0
 10
372.545880
 20
430.125620
 30
0.0
  0
SPLINE
  5
134
100
AcDbEntity
  8
0
 62
7
100
AcDbSpline
 70
8
 71
3
 72
8
 73
4
 74
0
 40
0
 40
0
 40
0
 40
0
 40
1
 40
1
 40
1
 40
1
 10
372.545880
 20
430.125620
 30
0.0
 10
374.300730
 20
427.941940
 30
0.0
 10
376.121940
 20
426.393500
 30
0.0
 10
376.593000
 20
426.684640
 30
0.0
  0
SPLINE
  5
135
100
AcDbEntity
  8
0
 62
7
100
AcDbSpline
 70
8
 71
3
 72
8
 73
4
 74
0
 40
0
 40
0
 40
0
 40
0
 40
1
 40
1
 40
1
 40
1
 10
376.593000
 20
426.684640
 30
0.0
 10
377.799710
 20
427.430420
 30
0.0
 10
377.665580
 20
438.095940
 30
0.0
 10
376.449490
 20
438.095940
 30
0.0
  0
SPLINE
  5
136
100
AcDbEntity
  8
0
 62
7
100
AcDbSpline
 70
8
 71
3
 72
8
 73
4
 74
0
 40
0
 40
0
 40
0
 40
0
 40
1
 40
1
 40
1
 40
1
 10
376.449490
 20
438.095940
 30
0.0
 10
375.899490
 20
438.095940
 30
0.0
 10
375.449490
 20
436.295940
 30
0.0
 10
375.449490
 20
434.095940
 30
0.0
  0
SPLINE
  5
137
100
AcDbEntity
  8
0
 62
7
100
AcDbSpline
 70
8
 71
3
 72
8
 73
4
 74
0
 40
0
 40
0
 40
0
 40
0
 40
1
 40
1
 40
1
 40
1
 10
375.449490
 20
434.095940
 30
0.0
 10
375.449490
 20
431.895940
 30
0.0
 10
375.111990
 20
430.116780
 30
0.0
 10
374.699490
 20
430.142240
 30
0.0
  0
SPLINE
  5
138
100
AcDbEntity
  8
0
 62
7
100
AcDbSpline
 70
8
 71
3
 72
8
 73
4
 74
0
 40
0
 40
0
 40
0
 40
0
 40
1
 40
1
 40
1
 40
1
 10
374.699490
 20
430.142240
 30
0.0
 10
374.286990
 20
430.167740
 30
0.0
 10
372.599490
 20
431.946880
 30
0.0
 10
370.949490
 20
434.095940
 30
0.0
  0
SPLINE
  5
139
100
AcDbEntity
  8
0
 62
7
100
AcDbSpline
 70
8
 71
3
 72
8
 73
4
 74
0
 40
0
 40
0
 40
0
 40
0
 40
1
 40
1
 40
1
 40
1
 10
370.949490
 20
434.095940
 30
0.0
 10
369.299490
 20
436.245000
 30
0.0
 10
367.611990
 20
438.024170
 30
0.0
 10
367.199490
 20
438.049640
 30
0.0
  0
SPLINE
  5
13a
100
AcDbEntity
  8
0
 62
7
100
AcDbSpline
 70
8
 71
3
 72
8
 73
4
 74
0
 40
0
 40
0
 40
0
 40
0
 40
1
 40
1
 40
1
 40
1
 10
367.199490
 20
438.049640
 30
0.0
 10
366.786990
 20
438.075140
 30
0.0
 10
366.528110
 20
435.283440
 30
0.0
 10
366.624200
 20
431.845940
 30
0.0
  0
SPLINE
  5
13b
100
AcDbEntity
  8
0
 62
7
100
AcDbSpline
 70
8
 71
3
 72
8
 73
4
 74
0
 40
0
 40
0
 40
0
 40
0
 40
1
 40
1
 40
1
 40
1
 10
366.624200
 20
431.845940
 30
0.0
 10
366.762120
 20
426.911780
 30
0.0
 10
366.879500
 20
426.490710
 30
0.0
 10
367.181700
 20
429.845940
 30
0.0
  0
SPLINE
  5
13c
100
AcDbEntity
  8
0
 62
7
100
AcDbSpline
 70
8
 71
3
 72
8
 73
4
 74
0
 40
0
 40
0
 40
0
 40
0
 40
1
 40
1
 40
1
 40
1
 10
367.181700
 20
429.845940
 30
0.0
 10
367.392230
 20
432.183440
 30
0.0
 10
367.967410
 20
434.095940
 30
0.0
 10
368.459860
 20
434.095940
 30
0.0
  0
LWPOLYLINE
  5
13d
100
AcDbEntity
  8
0
 62
7
100
AcDbPolyline
 90
1
 70
1
 10
342.449490
 20
430.404810
 30
0.0
  0
SPLINE
  5
13e
100
AcDbEntity
  8
0
 62
7
100
AcDbSpline
 70
8
 71
3
 72
8
 73
4
 74
0
 40
0
 40
0
 40
0
 40
0
 40
1
 40
1
 40
1
 40
1
 10
390.676220
 20
427.845940
 30
0.0
 10
391.521410
 20
428.808440
 30
0.0
 10
392.519100
 20
430.600950
 30
0.0
 10
392.893310
 20
431.829290
 30
0.0
  0
SPLINE
  5
13f
100
AcDbEntity
  8
0
 62
7
100
AcDbSpline
 70
8
 71
3
 72
8
 73
4
 74
0
 40
0
 40
0
 40
0
 40
0
 40
1
 40
1
 40
1
 40
1
 10
392.893310
 20
431.829290
 30
0.0
 10
393.870440
 20
435.036710
 30
0.0
 10
389.598550
 20
439.095740
 30
0.0
 10
385.244940
 20
439.096560
 30
0.0
  0
LWPOLYLINE
  5
140
100
AcDbEntity
  8
0
 62
7
100
AcDbPolyline
 90
1
 70
1
 10
368.459860
 20
434.095940
 30
0.0
  0
SPLINE
  5
141
100
AcDbEntity
  8
0
 62
7
100
AcDbSpline
 70
8
 71
3
 72
8
 73
4
 74
0
 40
0
 40
0
 40
0
 40
0
 40
1
 40
1
 40
1
 40
1
 10
382.254780
 20
433.846560
 30
0.0
 10
382.422680
 20
430.958720
 30
0.0
 10
382.746060
 20
428.033440
 30
0.0
 10
382.973390
 20
427.345940
 30
0.0
  0
SPLINE
  5
142
100
AcDbEntity
  8
0
 62
7
100
AcDbSpline
 70
8
 71
3
 72
8
 73
4
 74
0
 40
0
 40
0
 40
0
 40
0
 40
1
 40
1
 40
1
 40
1
 10
382.973390
 20
427.345940
 30
0.0
 10
383.587710
 20
425.488100
 30
0.0
 10
388.909070
 20
425.833510
 30
0.0
 10
390.676220
 20
427.845940
 30
0.0
  0
LWPOLYLINE
  5
143
100
AcDbEntity
  8
0
 62
7
100
AcDbPolyline
 90
3
 70
0
 10
385.244940
 20
439.096560
 30
0.0
 10
381.949490
 20
439.097180
 30
0.0
 10
382.254780
 20
433.846560
 30
0.0
  0
SPLINE
  5
144
100
AcDbEntity
  8
0
 62
7
100
AcDbSpline
 70
8
 71
3
 72
8
 73
4
 74
0
 40
0
 40
0
 40
0
 40
0
 40
1
 40
1
 40
1
 40
1
 10
385.127160
 20
427.751640
 30
0.0
 10
384.754440
 20
428.124320
 30
0.0
 10
384.449490
 20
430.379270
 30
0.0
 10
384.449490
 20
432.762610
 30
0.0
  0
SPLINE
  5
145
100
AcDbEntity
  8
0
 62
7
100
AcDbSpline
 70
8
 71
3
 72
8
 73
4
 74
0
 40
0
 40
0
 40
0
 40
0
 40
1
 40
1
 40
1
 40
1
 10
384.449490
 20
432.762610
 30
0.0
 10
384.449490
 20
436.875140
 30
0.0
 10
384.596900
 20
437.095940
 30
0.0
 10
387.342500
 20
437.095940
 30
0.0
  0
SPLINE
  5
146
100
AcDbEntity
  8
0
 62
7
100
AcDbSpline
 70
8
 71
3
 72
8
 73
4
 74
0
 40
0
 40
0
 40
0
 40
0
 40
1
 40
1
 40
1
 40
1
 10
387.342500
 20
437.095940
 30
0.0
 10
390.963180
 20
437.095940
 30
0.0
 10
392.857320
 20
432.779450
 30
0.0
 10
390.684180
 20
429.480720
 30
0.0
  0
SPLINE
  5
147
100
AcDbEntity
  8
0
 62
7
100
AcDbSpline
 70
8
 71
3
 72
8
 73
4
 74
0
 40
0
 40
0
 40
0
 40
0
 40
1
 40
1
 40
1
 40
1
 10
390.684180
 20
429.480720
 30
0.0
 10
389.732880
 20
428.036690
 30
0.0
 10
386.002730
 20
426.876030
 30
0.0
 10
385.127160
 20
427.751610
 30
0.0
  0
LWPOLYLINE
  5
148
100
AcDbEntity
  8
0
 62
7
100
AcDbPolyline
 90
1
 70
1
 10
390.676220
 20
427.845940
 30
0.0
  0
SPLINE
  5
149
100
AcDbEntity
  8
0
 62
7
100
AcDbSpline
 70
8
 71
3
 72
8
 73
4
 74
0
 40
0
 40
0
 40
0
 40
0
 40
1
 40
1
 40
1
 40
1
 10
406.892790
 20
428.318480
 30
0.0
 10
408.613000
 20
430.774400
 30
0.0
 10
409.029870
 20
438.095940
 30
0.0
 10
407.449490
 20
438.095940
 30
0.0
  0
SPLINE
  5
14a
100
AcDbEntity
  8
0
 62
7
100
AcDbSpline
 70
8
 71
3
 72
8
 73
4
 74
0
 40
0
 40
0
 40
0
 40
0
 40
1
 40
1
 40
1
 40
1
 10
407.449490
 20
438.095940
 30
0.0
 10
406.899490
 20
438.095940
 30
0.0
 10
406.449490
 20
435.854510
 30
0.0
 10
406.449490
 20
433.114990
 30
0.0
  0
SPLINE
  5
14b
100
AcDbEntity
  8
0
 62
7
100
AcDbSpline
 70
8
 71
3
 72
8
 73
4
 74
0
 40
0
 40
0
 40
0
 40
0
 40
1
 40
1
 40
1
 40
1
 10
406.449490
 20
433.114990
 30
0.0
 10
406.449490
 20
428.629110
 30
0.0
 10
406.199720
 20
428.071360
 30
0.0
 10
403.936500
 20
427.503320
 30
0.0
  0
SPLINE
  5
14c
100
AcDbEntity
  8
0
 62
7
100
AcDbSpline
 70
8
 71
3
 72
8
 73
4
 74
0
 40
0
 40
0
 40
0
 40
0
 40
1
 40
1
 40
1
 40
1
 10
403.936500
 20
427.503320
 30
0.0
 10
400.349290
 20
426.602990
 30
0.0
 10
398.609040
 20
428.544950
 30
0.0
 10
398.181280
 20
433.925610
 30
0.0
  0
LWPOLYLINE
  5
14d
100
AcDbEntity
  8
0
 62
7
100
AcDbPolyline
 90
1
 70
1
 10
385.127160
 20
427.751610
 30
0.0
  0
SPLINE
  5
14e
100
AcDbEntity
  8
0
 62
7
100
AcDbSpline
 70
8
 71
3
 72
8
 73
4
 74
0
 40
0
 40
0
 40
0
 40
0
 40
1
 40
1
 40
1
 40
1
 10
397.629740
 20
433.545940
 30
0.0
 10
397.528590
 20
430.712170
 30
0.0
 10
397.976120
 20
427.969310
 30
0.0
 10
398.649490
 20
427.295940
 30
0.0
  0
SPLINE
  5
14f
100
AcDbEntity
  8
0
 62
7
100
AcDbSpline
 70
8
 71
3
 72
8
 73
4
 74
0
 40
0
 40
0
 40
0
 40
0
 40
1
 40
1
 40
1
 40
1
 10
398.649490
 20
427.295940
 30
0.0
 10
400.638540
 20
425.306890
 30
0.0
 10
405.177790
 20
425.869950
 30
0.0
 10
406.892790
 20
428.318450
 30
0.0
  0
LWPOLYLINE
  5
150
100
AcDbEntity
  8
0
 62
7
100
AcDbPolyline
 90
3
 70
0
 10
398.181280
 20
433.925610
 30
0.0
 10
397.809990
 20
438.595940
 30
0.0
 10
397.629740
 20
433.545940
 30
0.0
  0
SPLINE
  5
151
100
AcDbEntity
  8
0
 62
7
100
AcDbSpline
 70
8
 71
3
 72
8
 73
4
 74
0
 40
0
 40
0
 40
0
 40
0
 40
1
 40
1
 40
1
 40
1
 10
420.867100
 20
427.412070
 30
0.0
 10
423.755430
 20
429.524070
 30
0.0
 10
422.449410
 20
432.466880
 30
0.0
 10
418.151280
 20
433.531520
 30
0.0
  0
SPLINE
  5
152
100
AcDbEntity
  8
0
 62
7
100
AcDbSpline
 70
8
 71
3
 72
8
 73
4
 74
0
 40
0
 40
0
 40
0
 40
0
 40
1
 40
1
 40
1
 40
1
 10
418.151280
 20
433.531520
 30
0.0
 10
413.153200
 20
434.769530
 30
0.0
 10
413.394830
 20
437.677700
 30
0.0
 10
418.474580
 20
437.422540
 30
0.0
  0
SPLINE
  5
153
100
AcDbEntity
  8
0
 62
7
100
AcDbSpline
 70
8
 71
3
 72
8
 73
4
 74
0
 40
0
 40
0
 40
0
 40
0
 40
1
 40
1
 40
1
 40
1
 10
418.474580
 20
437.422540
 30
0.0
 10
421.226520
 20
437.284310
 30
0.0
 10
421.568490
 20
437.449840
 30
0.0
 10
420.159600
 20
438.238330
 30
0.0
  0
SPLINE
  5
154
100
AcDbEntity
  8
0
 62
7
100
AcDbSpline
 70
8
 71
3
 72
8
 73
4
 74
0
 40
0
 40
0
 40
0
 40
0
 40
1
 40
1
 40
1
 40
1
 10
420.159600
 20
438.238330
 30
0.0
 10
416.036740
 20
440.545590
 30
0.0
 10
410.674240
 20
436.939940
 30
0.0
 10
413.379920
 20
433.679790
 30
0.0
  0
SPLINE
  5
155
100
AcDbEntity
  8
0
 62
7
100
AcDbSpline
 70
8
 71
3
 72
8
 73
4
 74
0
 40
0
 40
0
 40
0
 40
0
 40
1
 40
1
 40
1
 40
1
 10
413.379920
 20
433.679790
 30
0.0
 10
414.102870
 20
432.808690
 30
0.0
 10
415.941130
 20
432.095970
 30
0.0
 10
417.464950
 20
432.095970
 30
0.0
  0
SPLINE
  5
156
100
AcDbEntity
  8
0
 62
7
100
AcDbSpline
 70
8
 71
3
 72
8
 73
4
 74
0
 40
0
 40
0
 40
0
 40
0
 40
1
 40
1
 40
1
 40
1
 10
417.464950
 20
432.095970
 30
0.0
 10
420.965010
 20
432.095970
 30
0.0
 10
422.112050
 20
429.520930
 30
0.0
 10
419.285760
 20
428.008340
 30
0.0
  0
SPLINE
  5
157
100
AcDbEntity
  8
0
 62
7
100
AcDbSpline
 70
8
 71
3
 72
8
 73
4
 74
0
 40
0
 40
0
 40
0
 40
0
 40
1
 40
1
 40
1
 40
1
 10
419.285760
 20
428.008340
 30
0.0
 10
417.775600
 20
427.200130
 30
0.0
 10
416.538620
 20
427.189960
 30
0.0
 10
414.823000
 20
427.971640
 30
0.0
  0
SPLINE
  5
158
100
AcDbEntity
  8
0
 62
7
100
AcDbSpline
 70
8
 71
3
 72
8
 73
4
 74
0
 40
0
 40
0
 40
0
 40
0
 40
1
 40
1
 40
1
 40
1
 10
414.823000
 20
427.971640
 30
0.0
 10
413.517570
 20
428.566410
 30
0.0
 10
412.449490
 20
428.650210
 30
0.0
 10
412.449490
 20
428.157830
 30
0.0
  0
SPLINE
  5
159
100
AcDbEntity
  8
0
 62
7
100
AcDbSpline
 70
8
 71
3
 72
8
 73
4
 74
0
 40
0
 40
0
 40
0
 40
0
 40
1
 40
1
 40
1
 40
1
 10
412.449490
 20
428.157830
 30
0.0
 10
412.449490
 20
426.012160
 30
0.0
 10
418.249840
 20
425.498250
 30
0.0
 10
420.867100
 20
427.412040
 30
0.0
  0
LWPOLYLINE
  5
15a
100
AcDbEntity
  8
0
 62
7
100
AcDbPolyline
 90
1
 70
1
 10
406.892790
 20
428.318450
 30
0.0
  0
SPLINE
  5
15b
100
AcDbEntity
  8
0
 62
7
100
AcDbSpline
 70
8
 71
3
 72
8
 73
4
 74
0
 40
0
 40
0
 40
0
 40
0
 40
1
 40
1
 40
1
 40
1
 10
442.696190
 20
431.904960
 30
0.0
 10
443.771950
 20
432.112140
 30
0.0
 10
444.861570
 20
431.285650
 30
0.0
 10
445.573940
 20
429.722190
 30
0.0
  0
SPLINE
  5
15c
100
AcDbEntity
  8
0
 62
7
100
AcDbSpline
 70
8
 71
3
 72
8
 73
4
 74
0
 40
0
 40
0
 40
0
 40
0
 40
1
 40
1
 40
1
 40
1
 10
445.573940
 20
429.722190
 30
0.0
 10
446.736920
 20
427.169690
 30
0.0
 10
449.449490
 20
425.353520
 30
0.0
 10
449.449490
 20
427.127320
 30
0.0
  0
SPLINE
  5
15d
100
AcDbEntity
  8
0
 62
7
100
AcDbSpline
 70
8
 71
3
 72
8
 73
4
 74
0
 40
0
 40
0
 40
0
 40
0
 40
1
 40
1
 40
1
 40
1
 10
449.449490
 20
427.127320
 30
0.0
 10
449.449490
 20
427.660060
 30
0.0
 10
449.047630
 20
428.095940
 30
0.0
 10
448.556480
 20
428.095940
 30
0.0
  0
SPLINE
  5
15e
100
AcDbEntity
  8
0
 62
7
100
AcDbSpline
 70
8
 71
3
 72
8
 73
4
 74
0
 40
0
 40
0
 40
0
 40
0
 40
1
 40
1
 40
1
 40
1
 10
448.556480
 20
428.095940
 30
0.0
 10
446.866970
 20
428.095940
 30
0.0
 10
446.457270
 20
431.246580
 30
0.0
 10
447.952360
 20
432.741670
 30
0.0
  0
SPLINE
  5
15f
100
AcDbEntity
  8
0
 62
7
100
AcDbSpline
 70
8
 71
3
 72
8
 73
4
 74
0
 40
0
 40
0
 40
0
 40
0
 40
1
 40
1
 40
1
 40
1
 10
447.952360
 20
432.741670
 30
0.0
 10
450.027660
 20
434.816970
 30
0.0
 10
449.822590
 20
436.825890
 30
0.0
 10
447.403280
 20
438.120670
 30
0.0
  0
SPLINE
  5
160
100
AcDbEntity
  8
0
 62
7
100
AcDbSpline
 70
8
 71
3
 72
8
 73
4
 74
0
 40
0
 40
0
 40
0
 40
0
 40
1
 40
1
 40
1
 40
1
 10
447.403280
 20
438.120670
 30
0.0
 10
445.201570
 20
439.298990
 30
0.0
 10
438.786750
 20
439.084170
 30
0.0
 10
439.199490
 20
437.845940
 30
0.0
  0
SPLINE
  5
161
100
AcDbEntity
  8
0
 62
7
100
AcDbSpline
 70
8
 71
3
 72
8
 73
4
 74
0
 40
0
 40
0
 40
0
 40
0
 40
1
 40
1
 40
1
 40
1
 10
439.199490
 20
437.845940
 30
0.0
 10
439.336990
 20
437.433440
 30
0.0
 10
439.502730
 20
434.508440
 30
0.0
 10
439.567800
 20
431.345940
 30
0.0
  0
SPLINE
  5
162
100
AcDbEntity
  8
0
 62
7
100
AcDbSpline
 70
8
 71
3
 72
8
 73
4
 74
0
 40
0
 40
0
 40
0
 40
0
 40
1
 40
1
 40
1
 40
1
 10
439.567800
 20
431.345940
 30
0.0
 10
439.656700
 20
427.027420
 30
0.0
 10
439.845300
 20
426.339760
 30
0.0
 10
440.325510
 20
428.583730
 30
0.0
  0
SPLINE
  5
163
100
AcDbEntity
  8
0
 62
7
100
AcDbSpline
 70
8
 71
3
 72
8
 73
4
 74
0
 40
0
 40
0
 40
0
 40
0
 40
1
 40
1
 40
1
 40
1
 10
440.325510
 20
428.583730
 30
0.0
 10
440.688830
 20
430.281470
 30
0.0
 10
441.712430
 20
431.715480
 30
0.0
 10
442.696190
 20
431.904930
 30
0.0
  0
LWPOLYLINE
  5
164
100
AcDbEntity
  8
0
 62
7
100
AcDbPolyline
 90
1
 70
1
 10
420.867100
 20
427.412040
 30
0.0
  0
SPLINE
  5
165
100
AcDbEntity
  8
0
 62
7
100
AcDbSpline
 70
8
 71
3
 72
8
 73
4
 74
0
 40
0
 40
0
 40
0
 40
0
 40
1
 40
1
 40
1
 40
1
 10
440.449490
 20
435.095940
 30
0.0
 10
440.449490
 20
436.935070
 30
0.0
 10
440.947430
 20
437.175460
 30
0.0
 10
444.199490
 20
436.906310
 30
0.0
  0
SPLINE
  5
166
100
AcDbEntity
  8
0
 62
7
100
AcDbSpline
 70
8
 71
3
 72
8
 73
4
 74
0
 40
0
 40
0
 40
0
 40
0
 40
1
 40
1
 40
1
 40
1
 10
444.199490
 20
436.906310
 30
0.0
 10
446.728220
 20
436.697020
 30
0.0
 10
447.949490
 20
436.107430
 30
0.0
 10
447.949490
 20
435.095940
 30
0.0
  0
SPLINE
  5
167
100
AcDbEntity
  8
0
 62
7
100
AcDbSpline
 70
8
 71
3
 72
8
 73
4
 74
0
 40
0
 40
0
 40
0
 40
0
 40
1
 40
1
 40
1
 40
1
 10
447.949490
 20
435.095940
 30
0.0
 10
447.949490
 20
434.084450
 30
0.0
 10
446.728220
 20
433.494860
 30
0.0
 10
444.199490
 20
433.285570
 30
0.0
  0
SPLINE
  5
168
100
AcDbEntity
  8
0
 62
7
100
AcDbSpline
 70
8
 71
3
 72
8
 73
4
 74
0
 40
0
 40
0
 40
0
 40
0
 40
1
 40
1
 40
1
 40
1
 10
444.199490
 20
433.285570
 30
0.0
 10
440.947430
 20
433.016420
 30
0.0
 10
440.449490
 20
433.256770
 30
0.0
 10
440.449490
 20
435.095940
 30
0.0
  0
LWPOLYLINE
  5
169
100
AcDbEntity
  8
0
 62
7
100
AcDbPolyline
 90
1
 70
1
 10
442.696190
 20
431.904930
 30
0.0
  0
SPLINE
  5
16a
100
AcDbEntity
  8
0
 62
7
100
AcDbSpline
 70
8
 71
3
 72
8
 73
4
 74
0
 40
0
 40
0
 40
0
 40
0
 40
1
 40
1
 40
1
 40
1
 10
455.172890
 20
435.345940
 30
0.0
 10
454.951060
 20
437.133440
 30
0.0
 10
454.769560
 20
435.670940
 30
0.0
 10
454.769560
 20
432.095940
 30
0.0
  0
SPLINE
  5
16b
100
AcDbEntity
  8
0
 62
7
100
AcDbSpline
 70
8
 71
3
 72
8
 73
4
 74
0
 40
0
 40
0
 40
0
 40
0
 40
1
 40
1
 40
1
 40
1
 10
454.769560
 20
432.095940
 30
0.0
 10
454.769560
 20
428.520940
 30
0.0
 10
454.951060
 20
427.058440
 30
0.0
 10
455.172890
 20
428.845940
 30
0.0
  0
SPLINE
  5
16c
100
AcDbEntity
  8
0
 62
7
100
AcDbSpline
 70
8
 71
3
 72
8
 73
4
 74
0
 40
0
 40
0
 40
0
 40
0
 40
1
 40
1
 40
1
 40
1
 10
455.172890
 20
428.845940
 30
0.0
 10
455.394710
 20
430.633440
 30
0.0
 10
455.394710
 20
433.558440
 30
0.0
 10
455.172890
 20
435.345940
 30
0.0
  0
LWPOLYLINE
  5
16d
100
AcDbEntity
  8
0
 62
7
100
AcDbPolyline
 90
1
 70
1
 10
440.449490
 20
435.095940
 30
0.0
  0
SPLINE
  5
16e
100
AcDbEntity
  8
0
 62
7
100
AcDbSpline
 70
8
 71
3
 72
8
 73
4
 74
0
 40
0
 40
0
 40
0
 40
0
 40
1
 40
1
 40
1
 40
1
 10
465.649490
 20
428.095940
 30
0.0
 10
467.878060
 20
428.095940
 30
0.0
 10
469.449490
 20
427.613480
 30
0.0
 10
469.449490
 20
426.929270
 30
0.0
  0
SPLINE
  5
16f
100
AcDbEntity
  8
0
 62
7
100
AcDbSpline
 70
8
 71
3
 72
8
 73
4
 74
0
 40
0
 40
0
 40
0
 40
0
 40
1
 40
1
 40
1
 40
1
 10
469.449490
 20
426.929270
 30
0.0
 10
469.449490
 20
426.287610
 30
0.0
 10
469.754730
 20
426.067840
 30
0.0
 10
470.127800
 20
426.440910
 30
0.0
  0
SPLINE
  5
170
100
AcDbEntity
  8
0
 62
7
100
AcDbSpline
 70
8
 71
3
 72
8
 73
4
 74
0
 40
0
 40
0
 40
0
 40
0
 40
1
 40
1
 40
1
 40
1
 10
470.127800
 20
426.440910
 30
0.0
 10
470.500860
 20
426.813980
 30
0.0
 10
469.518520
 20
429.813160
 30
0.0
 10
467.944800
 20
433.105750
 30
0.0
  0
LWPOLYLINE
  5
171
100
AcDbEntity
  8
0
 62
7
100
AcDbPolyline
 90
1
 70
1
 10
455.172890
 20
435.345940
 30
0.0
  0
SPLINE
  5
172
100
AcDbEntity
  8
0
 62
7
100
AcDbSpline
 70
8
 71
3
 72
8
 73
4
 74
0
 40
0
 40
0
 40
0
 40
0
 40
1
 40
1
 40
1
 40
1
 10
462.266490
 20
433.034030
 30
0.0
 10
459.177780
 20
426.391440
 30
0.0
 10
458.831850
 20
425.078300
 30
0.0
 10
460.649490
 20
426.895940
 30
0.0
  0
SPLINE
  5
173
100
AcDbEntity
  8
0
 62
7
100
AcDbSpline
 70
8
 71
3
 72
8
 73
4
 74
0
 40
0
 40
0
 40
0
 40
0
 40
1
 40
1
 40
1
 40
1
 10
460.649490
 20
426.895940
 30
0.0
 10
461.309490
 20
427.555940
 30
0.0
 10
463.559490
 20
428.095940
 30
0.0
 10
465.649490
 20
428.095940
 30
0.0
  0
LWPOLYLINE
  5
174
100
AcDbEntity
  8
0
 62
7
100
AcDbPolyline
 90
3
 70
0
 10
467.944800
 20
433.105750
 30
0.0
 10
465.083500
 20
439.092290
 30
0.0
 10
462.266490
 20
433.034030
 30
0.0
  0
SPLINE
  5
175
100
AcDbEntity
  8
0
 62
7
100
AcDbSpline
 70
8
 71
3
 72
8
 73
4
 74
0
 40
0
 40
0
 40
0
 40
0
 40
1
 40
1
 40
1
 40
1
 10
462.449490
 20
430.404810
 30
0.0
 10
462.449490
 20
431.124690
 30
0.0
 10
463.065250
 20
432.555790
 30
0.0
 10
463.817850
 20
433.585030
 30
0.0
  0
SPLINE
  5
176
100
AcDbEntity
  8
0
 62
7
100
AcDbSpline
 70
8
 71
3
 72
8
 73
4
 74
0
 40
0
 40
0
 40
0
 40
0
 40
1
 40
1
 40
1
 40
1
 10
463.817850
 20
433.585030
 30
0.0
 10
465.142970
 20
435.397230
 30
0.0
 10
465.221990
 20
435.389540
 30
0.0
 10
466.317850
 20
433.341900
 30
0.0
  0
SPLINE
  5
177
100
AcDbEntity
  8
0
 62
7
100
AcDbSpline
 70
8
 71
3
 72
8
 73
4
 74
0
 40
0
 40
0
 40
0
 40
0
 40
1
 40
1
 40
1
 40
1
 10
466.317850
 20
433.341900
 30
0.0
 10
468.033100
 20
430.136950
 30
0.0
 10
467.697610
 20
429.095940
 30
0.0
 10
464.949490
 20
429.095940
 30
0.0
  0
SPLINE
  5
178
100
AcDbEntity
  8
0
 62
7
100
AcDbSpline
 70
8
 71
3
 72
8
 73
4
 74
0
 40
0
 40
0
 40
0
 40
0
 40
1
 40
1
 40
1
 40
1
 10
464.949490
 20
429.095940
 30
0.0
 10
463.556190
 20
429.095940
 30
0.0
 10
462.449490
 20
429.675350
 30
0.0
 10
462.449490
 20
430.404810
 30
0.0
  0
LWPOLYLINE
  5
179
100
AcDbEntity
  8
0
 62
7
100
AcDbPolyline
 90
1
 70
1
 10
465.649490
 20
428.095940
 30
0.0
  0
SPLINE
  5
17a
100
AcDbEntity
  8
0
 62
7
100
AcDbSpline
 70
8
 71
3
 72
8
 73
4
 74
0
 40
0
 40
0
 40
0
 40
0
 40
1
 40
1
 40
1
 40
1
 10
486.794490
 20
434.178110
 30
0.0
 10
489.253370
 20
437.688660
 30
0.0
 10
488.797370
 20
438.611900
 30
0.0
 10
486.133940
 20
435.515480
 30
0.0
  0
LWPOLYLINE
  5
17b
100
AcDbEntity
  8
0
 62
7
100
AcDbPolyline
 90
1
 70
1
 10
462.449490
 20
430.404810
 30
0.0
  0
SPLINE
  5
17c
100
AcDbEntity
  8
0
 62
7
100
AcDbSpline
 70
8
 71
3
 72
8
 73
4
 74
0
 40
0
 40
0
 40
0
 40
0
 40
1
 40
1
 40
1
 40
1
 10
481.650790
 20
436.209720
 30
0.0
 10
480.458610
 20
438.072140
 30
0.0
 10
479.478570
 20
439.145940
 30
0.0
 10
479.472930
 20
438.595940
 30
0.0
  0
SPLINE
  5
17d
100
AcDbEntity
  8
0
 62
7
100
AcDbSpline
 70
8
 71
3
 72
8
 73
4
 74
0
 40
0
 40
0
 40
0
 40
0
 40
1
 40
1
 40
1
 40
1
 10
479.472930
 20
438.595940
 30
0.0
 10
479.466930
 20
438.045940
 30
0.0
 10
480.356740
 20
436.245940
 30
0.0
 10
481.449490
 20
434.595940
 30
0.0
  0
SPLINE
  5
17e
100
AcDbEntity
  8
0
 62
7
100
AcDbSpline
 70
8
 71
3
 72
8
 73
4
 74
0
 40
0
 40
0
 40
0
 40
0
 40
1
 40
1
 40
1
 40
1
 10
481.449490
 20
434.595940
 30
0.0
 10
482.542240
 20
432.945940
 30
0.0
 10
483.485340
 20
430.245940
 30
0.0
 10
483.545260
 20
428.595940
 30
0.0
  0
LWPOLYLINE
  5
17f
100
AcDbEntity
  8
0
 62
7
100
AcDbPolyline
 90
3
 70
0
 10
486.133940
 20
435.515480
 30
0.0
 10
483.818390
 20
432.823500
 30
0.0
 10
481.650790
 20
436.209720
 30
0.0
  0
SPLINE
  5
180
100
AcDbEntity
  8
0
 62
7
100
AcDbSpline
 70
8
 71
3
 72
8
 73
4
 74
0
 40
0
 40
0
 40
0
 40
0
 40
1
 40
1
 40
1
 40
1
 10
484.396850
 20
428.705600
 30
0.0
 10
484.805300
 20
430.415910
 30
0.0
 10
485.884240
 20
432.878540
 30
0.0
 10
486.794490
 20
434.178110
 30
0.0
  0
LWPOLYLINE
  5
181
100
AcDbEntity
  8
0
 62
7
100
AcDbPolyline
 90
3
 70
0
 10
483.545260
 20
428.595940
 30
0.0
 10
483.654210
 20
425.595940
 30
0.0
 10
484.396850
 20
428.705600
 30
0.0
  0
SPLINE
  5
182
100
AcDbEntity
  8
0
 62
7
100
AcDbSpline
 70
8
 71
3
 72
8
 73
4
 74
0
 40
0
 40
0
 40
0
 40
0
 40
1
 40
1
 40
1
 40
1
 10
505.949490
 20
426.587420
 30
0.0
 10
505.399490
 20
426.770890
 30
0.0
 10
503.734360
 20
427.188320
 30
0.0
 10
502.249200
 20
427.515050
 30
0.0
  0
SPLINE
  5
183
100
AcDbEntity
  8
0
 62
7
100
AcDbSpline
 70
8
 71
3
 72
8
 73
4
 74
0
 40
0
 40
0
 40
0
 40
0
 40
1
 40
1
 40
1
 40
1
 10
502.249200
 20
427.515050
 30
0.0
 10
499.755000
 20
428.063750
 30
0.0
 10
499.521380
 20
428.547460
 30
0.0
 10
499.188280
 20
433.852520
 30
0.0
  0
LWPOLYLINE
  5
184
100
AcDbEntity
  8
0
 62
7
100
AcDbPolyline
 90
1
 70
1
 10
486.794490
 20
434.178110
 30
0.0
  0
SPLINE
  5
185
100
AcDbEntity
  8
0
 62
7
100
AcDbSpline
 70
8
 71
3
 72
8
 73
4
 74
0
 40
0
 40
0
 40
0
 40
0
 40
1
 40
1
 40
1
 40
1
 10
502.699490
 20
426.174840
 30
0.0
 10
505.036990
 20
426.218240
 30
0.0
 10
506.499490
 20
426.403900
 30
0.0
 10
505.949490
 20
426.587370
 30
0.0
  0
LWPOLYLINE
  5
186
100
AcDbEntity
  8
0
 62
7
100
AcDbPolyline
 90
5
 70
0
 10
499.188280
 20
433.852520
 30
0.0
 10
498.827660
 20
439.595940
 30
0.0
 10
498.638570
 20
432.845940
 30
0.0
 10
498.449490
 20
426.095940
 30
0.0
 10
502.699490
 20
426.174840
 30
0.0
  0
SPLINE
  5
187
100
AcDbEntity
  8
0
 62
7
100
AcDbSpline
 70
8
 71
3
 72
8
 73
4
 74
0
 40
0
 40
0
 40
0
 40
0
 40
1
 40
1
 40
1
 40
1
 10
515.649490
 20
428.095940
 30
0.0
 10
517.878060
 20
428.095940
 30
0.0
 10
519.449490
 20
427.613480
 30
0.0
 10
519.449490
 20
426.929270
 30
0.0
  0
SPLINE
  5
188
100
AcDbEntity
  8
0
 62
7
100
AcDbSpline
 70
8
 71
3
 72
8
 73
4
 74
0
 40
0
 40
0
 40
0
 40
0
 40
1
 40
1
 40
1
 40
1
 10
519.449490
 20
426.929270
 30
0.0
 10
519.449490
 20
426.287610
 30
0.0
 10
519.754730
 20
426.067840
 30
0.0
 10
520.127800
 20
426.440910
 30
0.0
  0
SPLINE
  5
189
100
AcDbEntity
  8
0
 62
7
100
AcDbSpline
 70
8
 71
3
 72
8
 73
4
 74
0
 40
0
 40
0
 40
0
 40
0
 40
1
 40
1
 40
1
 40
1
 10
520.127800
 20
426.440910
 30
0.0
 10
520.500860
 20
426.813980
 30
0.0
 10
519.507360
 20
429.836500
 30
0.0
 10
517.920000
 20
433.157630
 30
0.0
  0
LWPOLYLINE
  5
18a
100
AcDbEntity
  8
0
 62
7
100
AcDbPolyline
 90
1
 70
1
 10
505.949490
 20
426.587370
 30
0.0
  0
SPLINE
  5
18b
100
AcDbEntity
  8
0
 62
7
100
AcDbSpline
 70
8
 71
3
 72
8
 73
4
 74
0
 40
0
 40
0
 40
0
 40
0
 40
1
 40
1
 40
1
 40
1
 10
512.288880
 20
433.895990
 30
0.0
 10
509.329510
 20
428.182100
 30
0.0
 10
508.532500
 20
424.778950
 30
0.0
 10
510.649490
 20
426.895940
 30
0.0
  0
SPLINE
  5
18c
100
AcDbEntity
  8
0
 62
7
100
AcDbSpline
 70
8
 71
3
 72
8
 73
4
 74
0
 40
0
 40
0
 40
0
 40
0
 40
1
 40
1
 40
1
 40
1
 10
510.649490
 20
426.895940
 30
0.0
 10
511.309490
 20
427.555940
 30
0.0
 10
513.559490
 20
428.095940
 30
0.0
 10
515.649490
 20
428.095940
 30
0.0
  0
LWPOLYLINE
  5
18d
100
AcDbEntity
  8
0
 62
7
100
AcDbPolyline
 90
3
 70
0
 10
517.920000
 20
433.157630
 30
0.0
 10
515.033910
 20
439.196040
 30
0.0
 10
512.288880
 20
433.895990
 30
0.0
  0
SPLINE
  5
18e
100
AcDbEntity
  8
0
 62
7
100
AcDbSpline
 70
8
 71
3
 72
8
 73
4
 74
0
 40
0
 40
0
 40
0
 40
0
 40
1
 40
1
 40
1
 40
1
 10
512.449490
 20
430.404810
 30
0.0
 10
512.449490
 20
431.124690
 30
0.0
 10
513.065250
 20
432.555790
 30
0.0
 10
513.817850
 20
433.585030
 30
0.0
  0
SPLINE
  5
18f
100
AcDbEntity
  8
0
 62
7
100
AcDbSpline
 70
8
 71
3
 72
8
 73
4
 74
0
 40
0
 40
0
 40
0
 40
0
 40
1
 40
1
 40
1
 40
1
 10
513.817850
 20
433.585030
 30
0.0
 10
515.142970
 20
435.397230
 30
0.0
 10
515.221990
 20
435.389540
 30
0.0
 10
516.317850
 20
433.341900
 30
0.0
  0
SPLINE
  5
190
100
AcDbEntity
  8
0
 62
7
100
AcDbSpline
 70
8
 71
3
 72
8
 73
4
 74
0
 40
0
 40
0
 40
0
 40
0
 40
1
 40
1
 40
1
 40
1
 10
516.317850
 20
433.341900
 30
0.0
 10
518.033100
 20
430.136950
 30
0.0
 10
517.697610
 20
429.095940
 30
0.0
 10
514.949490
 20
429.095940
 30
0.0
  0
SPLINE
  5
191
100
AcDbEntity
  8
0
 62
7
100
AcDbSpline
 70
8
 71
3
 72
8
 73
4
 74
0
 40
0
 40
0
 40
0
 40
0
 40
1
 40
1
 40
1
 40
1
 10
514.949490
 20
429.095940
 30
0.0
 10
513.556190
 20
429.095940
 30
0.0
 10
512.449490
 20
429.675350
 30
0.0
 10
512.449490
 20
430.404810
 30
0.0
  0
LWPOLYLINE
  5
192
100
AcDbEntity
  8
0
 62
7
100
AcDbPolyline
 90
1
 70
1
 10
515.649490
 20
428.095940
 30
0.0
  0
SPLINE
  5
193
100
AcDbEntity
  8
0
 62
7
100
AcDbSpline
 70
8
 71
3
 72
8
 73
4
 74
0
 40
0
 40
0
 40
0
 40
0
 40
1
 40
1
 40
1
 40
1
 10
538.867700
 20
426.702930
 30
0.0
 10
539.737690
 20
427.036770
 30
0.0
 10
540.449490
 20
427.702130
 30
0.0
 10
540.449490
 20
428.181490
 30
0.0
  0
SPLINE
  5
194
100
AcDbEntity
  8
0
 62
7
100
AcDbSpline
 70
8
 71
3
 72
8
 73
4
 74
0
 40
0
 40
0
 40
0
 40
0
 40
1
 40
1
 40
1
 40
1
 10
540.449490
 20
428.181490
 30
0.0
 10
540.449490
 20
428.660850
 30
0.0
 10
539.342920
 20
428.548880
 30
0.0
 10
537.990450
 20
427.932650
 30
0.0
  0
SPLINE
  5
195
100
AcDbEntity
  8
0
 62
7
100
AcDbSpline
 70
8
 71
3
 72
8
 73
4
 74
0
 40
0
 40
0
 40
0
 40
0
 40
1
 40
1
 40
1
 40
1
 10
537.990450
 20
427.932650
 30
0.0
 10
536.021270
 20
427.035430
 30
0.0
 10
535.025250
 20
427.143890
 30
0.0
 10
532.990450
 20
428.477140
 30
0.0
  0
SPLINE
  5
196
100
AcDbEntity
  8
0
 62
7
100
AcDbSpline
 70
8
 71
3
 72
8
 73
4
 74
0
 40
0
 40
0
 40
0
 40
0
 40
1
 40
1
 40
1
 40
1
 10
532.990450
 20
428.477140
 30
0.0
 10
527.704150
 20
431.940860
 30
0.0
 10
531.654910
 20
438.973180
 30
0.0
 10
538.093600
 20
437.560690
 30
0.0
  0
SPLINE
  5
197
100
AcDbEntity
  8
0
 62
7
100
AcDbSpline
 70
8
 71
3
 72
8
 73
4
 74
0
 40
0
 40
0
 40
0
 40
0
 40
1
 40
1
 40
1
 40
1
 10
538.093600
 20
437.560690
 30
0.0
 10
540.276710
 20
437.081760
 30
0.0
 10
540.596130
 20
437.185190
 30
0.0
 10
539.449490
 20
437.999740
 30
0.0
  0
SPLINE
  5
198
100
AcDbEntity
  8
0
 62
7
100
AcDbSpline
 70
8
 71
3
 72
8
 73
4
 74
0
 40
0
 40
0
 40
0
 40
0
 40
1
 40
1
 40
1
 40
1
 10
539.449490
 20
437.999740
 30
0.0
 10
535.519710
 20
440.791390
 30
0.0
 10
529.449490
 20
437.780250
 30
0.0
 10
529.449490
 20
433.039240
 30
0.0
  0
SPLINE
  5
199
100
AcDbEntity
  8
0
 62
7
100
AcDbSpline
 70
8
 71
3
 72
8
 73
4
 74
0
 40
0
 40
0
 40
0
 40
0
 40
1
 40
1
 40
1
 40
1
 10
529.449490
 20
433.039240
 30
0.0
 10
529.449490
 20
428.033340
 30
0.0
 10
534.129550
 20
424.884730
 30
0.0
 10
538.867700
 20
426.702930
 30
0.0
  0
LWPOLYLINE
  5
19a
100
AcDbEntity
  8
0
 62
7
100
AcDbPolyline
 90
1
 70
1
 10
512.449490
 20
430.404810
 30
0.0
  0
SPLINE
  5
19b
100
AcDbEntity
  8
0
 62
7
100
AcDbSpline
 70
8
 71
3
 72
8
 73
4
 74
0
 40
0
 40
0
 40
0
 40
0
 40
1
 40
1
 40
1
 40
1
 10
555.449490
 20
428.095940
 30
0.0
 10
561.233820
 20
433.880270
 30
0.0
 10
553.431860
 20
442.274030
 30
0.0
 10
546.672000
 20
437.539240
 30
0.0
  0
SPLINE
  5
19c
100
AcDbEntity
  8
0
 62
7
100
AcDbSpline
 70
8
 71
3
 72
8
 73
4
 74
0
 40
0
 40
0
 40
0
 40
0
 40
1
 40
1
 40
1
 40
1
 10
546.672000
 20
437.539240
 30
0.0
 10
545.119280
 20
436.451670
 30
0.0
 10
544.449490
 20
434.961930
 30
0.0
 10
544.449490
 20
432.595940
 30
0.0
  0
SPLINE
  5
19d
100
AcDbEntity
  8
0
 62
7
100
AcDbSpline
 70
8
 71
3
 72
8
 73
4
 74
0
 40
0
 40
0
 40
0
 40
0
 40
1
 40
1
 40
1
 40
1
 10
544.449490
 20
432.595940
 30
0.0
 10
544.449490
 20
426.753500
 30
0.0
 10
551.303250
 20
423.949700
 30
0.0
 10
555.449490
 20
428.095940
 30
0.0
  0
LWPOLYLINE
  5
19e
100
AcDbEntity
  8
0
 62
7
100
AcDbPolyline
 90
1
 70
1
 10
538.867700
 20
426.702930
 30
0.0
  0
SPLINE
  5
19f
100
AcDbEntity
  8
0
 62
7
100
AcDbSpline
 70
8
 71
3
 72
8
 73
4
 74
0
 40
0
 40
0
 40
0
 40
0
 40
1
 40
1
 40
1
 40
1
 10
547.672000
 20
428.652640
 30
0.0
 10
546.449620
 20
429.508830
 30
0.0
 10
545.449490
 20
431.239090
 30
0.0
 10
545.449490
 20
432.497660
 30
0.0
  0
SPLINE
  5
1a0
100
AcDbEntity
  8
0
 62
7
100
AcDbSpline
 70
8
 71
3
 72
8
 73
4
 74
0
 40
0
 40
0
 40
0
 40
0
 40
1
 40
1
 40
1
 40
1
 10
545.449490
 20
432.497660
 30
0.0
 10
545.449490
 20
435.105060
 30
0.0
 10
548.296370
 20
438.095940
 30
0.0
 10
550.778230
 20
438.095940
 30
0.0
  0
SPLINE
  5
1a1
100
AcDbEntity
  8
0
 62
7
100
AcDbSpline
 70
8
 71
3
 72
8
 73
4
 74
0
 40
0
 40
0
 40
0
 40
0
 40
1
 40
1
 40
1
 40
1
 10
550.778230
 20
438.095940
 30
0.0
 10
552.856490
 20
438.095940
 30
0.0
 10
556.449490
 20
434.611440
 30
0.0
 10
556.449490
 20
432.595940
 30
0.0
  0
SPLINE
  5
1a2
100
AcDbEntity
  8
0
 62
7
100
AcDbSpline
 70
8
 71
3
 72
8
 73
4
 74
0
 40
0
 40
0
 40
0
 40
0
 40
1
 40
1
 40
1
 40
1
 10
556.449490
 20
432.595940
 30
0.0
 10
556.449490
 20
430.764410
 30
0.0
 10
552.929430
 20
427.095940
 30
0.0
 10
551.172000
 20
427.095940
 30
0.0
  0
SPLINE
  5
1a3
100
AcDbEntity
  8
0
 62
7
100
AcDbSpline
 70
8
 71
3
 72
8
 73
4
 74
0
 40
0
 40
0
 40
0
 40
0
 40
1
 40
1
 40
1
 40
1
 10
551.172000
 20
427.095940
 30
0.0
 10
550.469370
 20
427.095940
 30
0.0
 10
548.894370
 20
427.796460
 30
0.0
 10
547.672000
 20
428.652640
 30
0.0
  0
LWPOLYLINE
  5
1a4
100
AcDbEntity
  8
0
 62
7
100
AcDbPolyline
 90
1
 70
1
 10
555.449490
 20
428.095940
 30
0.0
  0
SPLINE
  5
1a5
100
AcDbEntity
  8
0
 62
7
100
AcDbSpline
 70
8
 71
3
 72
8
 73
4
 74
0
 40
0
 40
0
 40
0
 40
0
 40
1
 40
1
 40
1
 40
1
 10
572.269240
 20
432.845940
 30
0.0
 10
572.119620
 20
438.448960
 30
0.0
 10
572.025350
 20
438.788800
 30
0.0
 10
571.714450
 20
434.845940
 30
0.0
  0
SPLINE
  5
1a6
100
AcDbEntity
  8
0
 62
7
100
AcDbSpline
 70
8
 71
3
 72
8
 73
4
 74
0
 40
0
 40
0
 40
0
 40
0
 40
1
 40
1
 40
1
 40
1
 10
571.714450
 20
434.845940
 30
0.0
 10
571.508450
 20
432.233440
 30
0.0
 10
570.961390
 20
430.095940
 30
0.0
 10
570.498760
 20
430.095940
 30
0.0
  0
SPLINE
  5
1a7
100
AcDbEntity
  8
0
 62
7
100
AcDbSpline
 70
8
 71
3
 72
8
 73
4
 74
0
 40
0
 40
0
 40
0
 40
0
 40
1
 40
1
 40
1
 40
1
 10
570.498760
 20
430.095940
 30
0.0
 10
570.036140
 20
430.095940
 30
0.0
 10
567.826500
 20
432.233440
 30
0.0
 10
565.588470
 20
434.845940
 30
0.0
  0
LWPOLYLINE
  5
1a8
100
AcDbEntity
  8
0
 62
7
100
AcDbPolyline
 90
1
 70
1
 10
547.672000
 20
428.652640
 30
0.0
  0
SPLINE
  5
1a9
100
AcDbEntity
  8
0
 62
7
100
AcDbSpline
 70
8
 71
3
 72
8
 73
4
 74
0
 40
0
 40
0
 40
0
 40
0
 40
1
 40
1
 40
1
 40
1
 10
561.484420
 20
433.345940
 30
0.0
 10
561.464720
 20
429.822660
 30
0.0
 10
561.885780
 20
427.095940
 30
0.0
 10
562.449500
 20
427.095940
 30
0.0
  0
SPLINE
  5
1aa
100
AcDbEntity
  8
0
 62
7
100
AcDbSpline
 70
8
 71
3
 72
8
 73
4
 74
0
 40
0
 40
0
 40
0
 40
0
 40
1
 40
1
 40
1
 40
1
 10
562.449500
 20
427.095940
 30
0.0
 10
562.999500
 20
427.095940
 30
0.0
 10
563.449500
 20
428.670940
 30
0.0
 10
563.449500
 20
430.595940
 30
0.0
  0
SPLINE
  5
1ab
100
AcDbEntity
  8
0
 62
7
100
AcDbSpline
 70
8
 71
3
 72
8
 73
4
 74
0
 40
0
 40
0
 40
0
 40
0
 40
1
 40
1
 40
1
 40
1
 10
563.449500
 20
430.595940
 30
0.0
 10
563.449500
 20
432.520940
 30
0.0
 10
563.675670
 20
434.095940
 30
0.0
 10
563.952100
 20
434.095940
 30
0.0
  0
SPLINE
  5
1ac
100
AcDbEntity
  8
0
 62
7
100
AcDbSpline
 70
8
 71
3
 72
8
 73
4
 74
0
 40
0
 40
0
 40
0
 40
0
 40
1
 40
1
 40
1
 40
1
 10
563.952100
 20
434.095940
 30
0.0
 10
564.228530
 20
434.095940
 30
0.0
 10
566.080900
 20
432.295940
 30
0.0
 10
568.068460
 20
430.095940
 30
0.0
  0
SPLINE
  5
1ad
100
AcDbEntity
  8
0
 62
7
100
AcDbSpline
 70
8
 71
3
 72
8
 73
4
 74
0
 40
0
 40
0
 40
0
 40
0
 40
1
 40
1
 40
1
 40
1
 10
568.068460
 20
430.095940
 30
0.0
 10
570.056030
 20
427.895940
 30
0.0
 10
571.854860
 20
426.095940
 30
0.0
 10
572.065860
 20
426.095940
 30
0.0
  0
SPLINE
  5
1ae
100
AcDbEntity
  8
0
 62
7
100
AcDbSpline
 70
8
 71
3
 72
8
 73
4
 74
0
 40
0
 40
0
 40
0
 40
0
 40
1
 40
1
 40
1
 40
1
 10
572.065860
 20
426.095940
 30
0.0
 10
572.276860
 20
426.095940
 30
0.0
 10
572.368390
 20
429.133440
 30
0.0
 10
572.269250
 20
432.845940
 30
0.0
  0
LWPOLYLINE
  5
1af
100
AcDbEntity
  8
0
 62
7
100
AcDbPolyline
 90
3
 70
0
 10
565.588470
 20
434.845940
 30
0.0
 10
561.519320
 20
439.595940
 30
0.0
 10
561.484420
 20
433.345940
 30
0.0
  0
SPLINE
  5
1b0
100
AcDbEntity
  8
0
 62
7
100
AcDbSpline
 70
8
 71
3
 72
8
 73
4
 74
0
 40
0
 40
0
 40
0
 40
0
 40
1
 40
1
 40
1
 40
1
 10
585.249490
 20
427.295940
 30
0.0
 10
588.140340
 20
430.186790
 30
0.0
 10
585.418720
 20
434.095940
 30
0.0
 10
580.515230
 20
434.095940
 30
0.0
  0
SPLINE
  5
1b1
100
AcDbEntity
  8
0
 62
7
100
AcDbSpline
 70
8
 71
3
 72
8
 73
4
 74
0
 40
0
 40
0
 40
0
 40
0
 40
1
 40
1
 40
1
 40
1
 10
580.515230
 20
434.095940
 30
0.0
 10
579.379070
 20
434.095940
 30
0.0
 10
578.449490
 20
434.740620
 30
0.0
 10
578.449490
 20
435.528550
 30
0.0
  0
SPLINE
  5
1b2
100
AcDbEntity
  8
0
 62
7
100
AcDbSpline
 70
8
 71
3
 72
8
 73
4
 74
0
 40
0
 40
0
 40
0
 40
0
 40
1
 40
1
 40
1
 40
1
 10
578.449490
 20
435.528550
 30
0.0
 10
578.449490
 20
437.300690
 30
0.0
 10
581.549670
 20
438.378470
 30
0.0
 10
583.972660
 20
437.448680
 30
0.0
  0
SPLINE
  5
1b3
100
AcDbEntity
  8
0
 62
7
100
AcDbSpline
 70
8
 71
3
 72
8
 73
4
 74
0
 40
0
 40
0
 40
0
 40
0
 40
1
 40
1
 40
1
 40
1
 10
583.972660
 20
437.448680
 30
0.0
 10
585.214530
 20
436.972130
 30
0.0
 10
585.552020
 20
437.121030
 30
0.0
 10
585.054520
 20
437.926000
 30
0.0
  0
SPLINE
  5
1b4
100
AcDbEntity
  8
0
 62
7
100
AcDbSpline
 70
8
 71
3
 72
8
 73
4
 74
0
 40
0
 40
0
 40
0
 40
0
 40
1
 40
1
 40
1
 40
1
 10
585.054520
 20
437.926000
 30
0.0
 10
583.348150
 20
440.686970
 30
0.0
 10
577.449490
 20
438.811510
 30
0.0
 10
577.449490
 20
435.508000
 30
0.0
  0
SPLINE
  5
1b5
100
AcDbEntity
  8
0
 62
7
100
AcDbSpline
 70
8
 71
3
 72
8
 73
4
 74
0
 40
0
 40
0
 40
0
 40
0
 40
1
 40
1
 40
1
 40
1
 10
577.449490
 20
435.508000
 30
0.0
 10
577.449490
 20
433.730970
 30
0.0
 10
578.140980
 20
432.982530
 30
0.0
 10
580.199490
 20
432.531470
 30
0.0
  0
SPLINE
  5
1b6
100
AcDbEntity
  8
0
 62
7
100
AcDbSpline
 70
8
 71
3
 72
8
 73
4
 74
0
 40
0
 40
0
 40
0
 40
0
 40
1
 40
1
 40
1
 40
1
 10
580.199490
 20
432.531470
 30
0.0
 10
584.895060
 20
431.502580
 30
0.0
 10
585.449490
 20
431.203010
 30
0.0
 10
585.449490
 20
429.694710
 30
0.0
  0
SPLINE
  5
1b7
100
AcDbEntity
  8
0
 62
7
100
AcDbSpline
 70
8
 71
3
 72
8
 73
4
 74
0
 40
0
 40
0
 40
0
 40
0
 40
1
 40
1
 40
1
 40
1
 10
585.449490
 20
429.694710
 30
0.0
 10
585.449490
 20
427.714020
 30
0.0
 10
581.981160
 20
426.741030
 30
0.0
 10
579.553000
 20
428.040540
 30
0.0
  0
SPLINE
  5
1b8
100
AcDbEntity
  8
0
 62
7
100
AcDbSpline
 70
8
 71
3
 72
8
 73
4
 74
0
 40
0
 40
0
 40
0
 40
0
 40
1
 40
1
 40
1
 40
1
 10
579.553000
 20
428.040540
 30
0.0
 10
576.684300
 20
429.575820
 30
0.0
 10
575.630290
 20
429.273770
 30
0.0
 10
577.890620
 20
427.564140
 30
0.0
  0
SPLINE
  5
1b9
100
AcDbEntity
  8
0
 62
7
100
AcDbSpline
 70
8
 71
3
 72
8
 73
4
 74
0
 40
0
 40
0
 40
0
 40
0
 40
1
 40
1
 40
1
 40
1
 10
577.890620
 20
427.564140
 30
0.0
 10
580.241190
 20
425.786250
 30
0.0
 10
583.616780
 20
425.663230
 30
0.0
 10
585.249490
 20
427.295940
 30
0.0
  0
LWPOLYLINE
  5
1ba
100
AcDbEntity
  8
0
 62
7
100
AcDbPolyline
 90
1
 70
1
 10
572.269250
 20
432.845940
 30
0.0
  0
SPLINE
  5
1bb
100
AcDbEntity
  8
0
 62
7
100
AcDbSpline
 70
8
 71
3
 72
8
 73
4
 74
0
 40
0
 40
0
 40
0
 40
0
 40
1
 40
1
 40
1
 40
1
 10
597.499390
 20
437.095940
 30
0.0
 10
598.571950
 20
437.095940
 30
0.0
 10
599.449490
 20
437.545940
 30
0.0
 10
599.449490
 20
438.095940
 30
0.0
  0
SPLINE
  5
1bc
100
AcDbEntity
  8
0
 62
7
100
AcDbSpline
 70
8
 71
3
 72
8
 73
4
 74
0
 40
0
 40
0
 40
0
 40
0
 40
1
 40
1
 40
1
 40
1
 10
599.449490
 20
438.095940
 30
0.0
 10
599.449490
 20
438.645940
 30
0.0
 10
597.172930
 20
439.095940
 30
0.0
 10
594.390470
 20
439.095940
 30
0.0
  0
SPLINE
  5
1bd
100
AcDbEntity
  8
0
 62
7
100
AcDbSpline
 70
8
 71
3
 72
8
 73
4
 74
0
 40
0
 40
0
 40
0
 40
0
 40
1
 40
1
 40
1
 40
1
 10
594.390470
 20
439.095940
 30
0.0
 10
591.272440
 20
439.095940
 30
0.0
 10
589.568580
 20
438.712270
 30
0.0
 10
589.949490
 20
438.095940
 30
0.0
  0
SPLINE
  5
1be
100
AcDbEntity
  8
0
 62
7
100
AcDbSpline
 70
8
 71
3
 72
8
 73
4
 74
0
 40
0
 40
0
 40
0
 40
0
 40
1
 40
1
 40
1
 40
1
 10
589.949490
 20
438.095940
 30
0.0
 10
590.289410
 20
437.545940
 30
0.0
 10
591.440970
 20
437.095940
 30
0.0
 10
592.508510
 20
437.095940
 30
0.0
  0
SPLINE
  5
1bf
100
AcDbEntity
  8
0
 62
7
100
AcDbSpline
 70
8
 71
3
 72
8
 73
4
 74
0
 40
0
 40
0
 40
0
 40
0
 40
1
 40
1
 40
1
 40
1
 10
592.508510
 20
437.095940
 30
0.0
 10
594.182850
 20
437.095940
 30
0.0
 10
594.475460
 20
436.306050
 30
0.0
 10
594.638570
 20
431.345940
 30
0.0
  0
LWPOLYLINE
  5
1c0
100
AcDbEntity
  8
0
 62
7
100
AcDbPolyline
 90
1
 70
1
 10
585.249490
 20
427.295940
 30
0.0
  0
SPLINE
  5
1c1
100
AcDbEntity
  8
0
 62
7
100
AcDbSpline
 70
8
 71
3
 72
8
 73
4
 74
0
 40
0
 40
0
 40
0
 40
0
 40
1
 40
1
 40
1
 40
1
 10
595.188480
 20
431.345940
 30
0.0
 10
595.496650
 20
436.256870
 30
0.0
 10
595.833860
 20
437.095940
 30
0.0
 10
597.499390
 20
437.095940
 30
0.0
  0
LWPOLYLINE
  5
1c2
100
AcDbEntity
  8
0
 62
7
100
AcDbPolyline
 90
3
 70
0
 10
594.638570
 20
431.345940
 30
0.0
 10
594.827660
 20
425.595940
 30
0.0
 10
595.188480
 20
431.345940
 30
0.0
  0
SPLINE
  5
1c3
100
AcDbEntity
  8
0
 62
7
100
AcDbSpline
 70
8
 71
3
 72
8
 73
4
 74
0
 40
0
 40
0
 40
0
 40
0
 40
1
 40
1
 40
1
 40
1
 10
606.717070
 20
431.680870
 30
0.0
 10
607.983570
 20
432.082840
 30
0.0
 10
609.013730
 20
431.903230
 30
0.0
 10
609.234130
 20
431.242020
 30
0.0
  0
SPLINE
  5
1c4
100
AcDbEntity
  8
0
 62
7
100
AcDbSpline
 70
8
 71
3
 72
8
 73
4
 74
0
 40
0
 40
0
 40
0
 40
0
 40
1
 40
1
 40
1
 40
1
 10
609.234130
 20
431.242020
 30
0.0
 10
609.986240
 20
428.985690
 30
0.0
 10
613.299310
 20
425.617840
 30
0.0
 10
614.040410
 20
426.356270
 30
0.0
  0
SPLINE
  5
1c5
100
AcDbEntity
  8
0
 62
7
100
AcDbSpline
 70
8
 71
3
 72
8
 73
4
 74
0
 40
0
 40
0
 40
0
 40
0
 40
1
 40
1
 40
1
 40
1
 10
614.040410
 20
426.356270
 30
0.0
 10
614.460100
 20
426.774460
 30
0.0
 10
613.936340
 20
427.759550
 30
0.0
 10
612.876490
 20
428.545370
 30
0.0
  0
SPLINE
  5
1c6
100
AcDbEntity
  8
0
 62
7
100
AcDbSpline
 70
8
 71
3
 72
8
 73
4
 74
0
 40
0
 40
0
 40
0
 40
0
 40
1
 40
1
 40
1
 40
1
 10
612.876490
 20
428.545370
 30
0.0
 10
611.238090
 20
429.760150
 30
0.0
 10
611.136700
 20
430.280760
 30
0.0
 10
612.199490
 20
432.021470
 30
0.0
  0
SPLINE
  5
1c7
100
AcDbEntity
  8
0
 62
7
100
AcDbSpline
 70
8
 71
3
 72
8
 73
4
 74
0
 40
0
 40
0
 40
0
 40
0
 40
1
 40
1
 40
1
 40
1
 10
612.199490
 20
432.021470
 30
0.0
 10
615.100350
 20
436.772700
 30
0.0
 10
613.349400
 20
439.095940
 30
0.0
 10
606.867700
 20
439.095940
 30
0.0
  0
LWPOLYLINE
  5
1c8
100
AcDbEntity
  8
0
 62
7
100
AcDbPolyline
 90
1
 70
1
 10
597.499390
 20
437.095940
 30
0.0
  0
SPLINE
  5
1c9
100
AcDbEntity
  8
0
 62
7
100
AcDbSpline
 70
8
 71
3
 72
8
 73
4
 74
0
 40
0
 40
0
 40
0
 40
0
 40
1
 40
1
 40
1
 40
1
 10
603.599320
 20
432.345940
 30
0.0
 10
603.681720
 20
428.633440
 30
0.0
 10
603.934550
 20
426.811940
 30
0.0
 10
604.161130
 20
428.298170
 30
0.0
  0
SPLINE
  5
1ca
100
AcDbEntity
  8
0
 62
7
100
AcDbSpline
 70
8
 71
3
 72
8
 73
4
 74
0
 40
0
 40
0
 40
0
 40
0
 40
1
 40
1
 40
1
 40
1
 10
604.161130
 20
428.298170
 30
0.0
 10
604.414590
 20
429.960620
 30
0.0
 10
605.398080
 20
431.262240
 30
0.0
 10
606.717070
 20
431.680870
 30
0.0
  0
LWPOLYLINE
  5
1cb
100
AcDbEntity
  8
0
 62
7
100
AcDbPolyline
 90
3
 70
0
 10
606.867700
 20
439.095940
 30
0.0
 10
603.449490
 20
439.095940
 30
0.0
 10
603.599320
 20
432.345940
 30
0.0
  0
SPLINE
  5
1cc
100
AcDbEntity
  8
0
 62
7
100
AcDbSpline
 70
8
 71
3
 72
8
 73
4
 74
0
 40
0
 40
0
 40
0
 40
0
 40
1
 40
1
 40
1
 40
1
 10
604.449490
 20
435.035570
 30
0.0
 10
604.449490
 20
436.778850
 30
0.0
 10
605.076380
 20
437.095940
 30
0.0
 10
608.522810
 20
437.095940
 30
0.0
  0
SPLINE
  5
1cd
100
AcDbEntity
  8
0
 62
7
100
AcDbSpline
 70
8
 71
3
 72
8
 73
4
 74
0
 40
0
 40
0
 40
0
 40
0
 40
1
 40
1
 40
1
 40
1
 10
608.522810
 20
437.095940
 30
0.0
 10
611.861840
 20
437.095940
 30
0.0
 10
612.536350
 20
436.780470
 30
0.0
 10
612.264500
 20
435.345940
 30
0.0
  0
SPLINE
  5
1ce
100
AcDbEntity
  8
0
 62
7
100
AcDbSpline
 70
8
 71
3
 72
8
 73
4
 74
0
 40
0
 40
0
 40
0
 40
0
 40
1
 40
1
 40
1
 40
1
 10
612.264500
 20
435.345940
 30
0.0
 10
612.032720
 20
434.122920
 30
0.0
 10
610.806120
 20
433.502480
 30
0.0
 10
608.191170
 20
433.285570
 30
0.0
  0
SPLINE
  5
1cf
100
AcDbEntity
  8
0
 62
7
100
AcDbSpline
 70
8
 71
3
 72
8
 73
4
 74
0
 40
0
 40
0
 40
0
 40
0
 40
1
 40
1
 40
1
 40
1
 10
608.191170
 20
433.285570
 30
0.0
 10
604.979190
 20
433.019150
 30
0.0
 10
604.449490
 20
433.266870
 30
0.0
 10
604.449490
 20
435.035570
 30
0.0
  0
LWPOLYLINE
  5
1d0
100
AcDbEntity
  8
0
 62
7
100
AcDbPolyline
 90
1
 70
1
 10
606.717070
 20
431.680870
 30
0.0
  0
SPLINE
  5
1d1
100
AcDbEntity
  8
0
 62
7
100
AcDbSpline
 70
8
 71
3
 72
8
 73
4
 74
0
 40
0
 40
0
 40
0
 40
0
 40
1
 40
1
 40
1
 40
1
 10
628.249490
 20
427.295940
 30
0.0
 10
628.945540
 20
427.991990
 30
0.0
 10
629.373790
 20
430.826690
 30
0.0
 10
629.269240
 20
434.045940
 30
0.0
  0
LWPOLYLINE
  5
1d2
100
AcDbEntity
  8
0
 62
7
100
AcDbPolyline
 90
1
 70
1
 10
604.449490
 20
435.035570
 30
0.0
  0
SPLINE
  5
1d3
100
AcDbEntity
  8
0
 62
7
100
AcDbSpline
 70
8
 71
3
 72
8
 73
4
 74
0
 40
0
 40
0
 40
0
 40
0
 40
1
 40
1
 40
1
 40
1
 10
628.725800
 20
434.595940
 30
0.0
 10
628.498490
 20
431.466610
 30
0.0
 10
627.746150
 20
429.128270
 30
0.0
 10
626.714920
 20
428.345940
 30
0.0
  0
SPLINE
  5
1d4
100
AcDbEntity
  8
0
 62
7
100
AcDbSpline
 70
8
 71
3
 72
8
 73
4
 74
0
 40
0
 40
0
 40
0
 40
0
 40
1
 40
1
 40
1
 40
1
 10
626.714920
 20
428.345940
 30
0.0
 10
622.904490
 20
425.455200
 30
0.0
 10
620.175200
 20
427.664600
 30
0.0
 10
619.373420
 20
434.288990
 30
0.0
  0
LWPOLYLINE
  5
1d5
100
AcDbEntity
  8
0
 62
7
100
AcDbPolyline
 90
3
 70
0
 10
629.269240
 20
434.045940
 30
0.0
 10
629.088990
 20
439.595940
 30
0.0
 10
628.725800
 20
434.595940
 30
0.0
  0
SPLINE
  5
1d6
100
AcDbEntity
  8
0
 62
7
100
AcDbSpline
 70
8
 71
3
 72
8
 73
4
 74
0
 40
0
 40
0
 40
0
 40
0
 40
1
 40
1
 40
1
 40
1
 10
618.590290
 20
434.417370
 30
0.0
 10
618.494390
 20
430.891310
 30
0.0
 10
618.950940
 20
428.737340
 30
0.0
 10
620.020920
 20
427.667370
 30
0.0
  0
SPLINE
  5
1d7
100
AcDbEntity
  8
0
 62
7
100
AcDbSpline
 70
8
 71
3
 72
8
 73
4
 74
0
 40
0
 40
0
 40
0
 40
0
 40
1
 40
1
 40
1
 40
1
 10
620.020920
 20
427.667370
 30
0.0
 10
621.880580
 20
425.807710
 30
0.0
 10
626.550470
 20
425.596920
 30
0.0
 10
628.249490
 20
427.295940
 30
0.0
  0
LWPOLYLINE
  5
1d8
100
AcDbEntity
  8
0
 62
7
100
AcDbPolyline
 90
3
 70
0
 10
619.373420
 20
434.288990
 30
0.0
 10
618.731090
 20
439.595940
 30
0.0
 10
618.590290
 20
434.417370
 30
0.0
  0
SPLINE
  5
1d9
100
AcDbEntity
  8
0
 62
7
100
AcDbSpline
 70
8
 71
3
 72
8
 73
4
 74
0
 40
0
 40
0
 40
0
 40
0
 40
1
 40
1
 40
1
 40
1
 10
644.238180
 20
427.943050
 30
0.0
 10
644.593240
 20
429.023440
 30
0.0
 10
644.254480
 20
429.061970
 30
0.0
 10
642.527420
 20
428.137650
 30
0.0
  0
SPLINE
  5
1da
100
AcDbEntity
  8
0
 62
7
100
AcDbSpline
 70
8
 71
3
 72
8
 73
4
 74
0
 40
0
 40
0
 40
0
 40
0
 40
1
 40
1
 40
1
 40
1
 10
642.527420
 20
428.137650
 30
0.0
 10
639.859320
 20
426.709720
 30
0.0
 10
636.785940
 20
427.598770
 30
0.0
 10
635.393030
 20
430.201440
 30
0.0
  0
SPLINE
  5
1db
100
AcDbEntity
  8
0
 62
7
100
AcDbSpline
 70
8
 71
3
 72
8
 73
4
 74
0
 40
0
 40
0
 40
0
 40
0
 40
1
 40
1
 40
1
 40
1
 10
635.393030
 20
430.201440
 30
0.0
 10
633.135250
 20
434.420130
 30
0.0
 10
637.216450
 20
438.826390
 30
0.0
 10
642.292630
 20
437.650590
 30
0.0
  0
SPLINE
  5
1dc
100
AcDbEntity
  8
0
 62
7
100
AcDbSpline
 70
8
 71
3
 72
8
 73
4
 74
0
 40
0
 40
0
 40
0
 40
0
 40
1
 40
1
 40
1
 40
1
 10
642.292630
 20
437.650590
 30
0.0
 10
644.280820
 20
437.190070
 30
0.0
 10
644.571970
 20
437.290660
 30
0.0
 10
643.449490
 20
438.050250
 30
0.0
  0
SPLINE
  5
1dd
100
AcDbEntity
  8
0
 62
7
100
AcDbSpline
 70
8
 71
3
 72
8
 73
4
 74
0
 40
0
 40
0
 40
0
 40
0
 40
1
 40
1
 40
1
 40
1
 10
643.449490
 20
438.050250
 30
0.0
 10
641.055600
 20
439.670220
 30
0.0
 10
637.613120
 20
439.259570
 30
0.0
 10
635.449490
 20
437.095940
 30
0.0
  0
SPLINE
  5
1de
100
AcDbEntity
  8
0
 62
7
100
AcDbSpline
 70
8
 71
3
 72
8
 73
4
 74
0
 40
0
 40
0
 40
0
 40
0
 40
1
 40
1
 40
1
 40
1
 10
635.449490
 20
437.095940
 30
0.0
 10
632.883070
 20
434.529520
 30
0.0
 10
632.917230
 20
432.042320
 30
0.0
 10
635.565120
 20
428.676060
 30
0.0
  0
SPLINE
  5
1df
100
AcDbEntity
  8
0
 62
7
100
AcDbSpline
 70
8
 71
3
 72
8
 73
4
 74
0
 40
0
 40
0
 40
0
 40
0
 40
1
 40
1
 40
1
 40
1
 10
635.565120
 20
428.676060
 30
0.0
 10
637.183890
 20
426.618140
 30
0.0
 10
638.398800
 20
426.058040
 30
0.0
 10
640.738110
 20
426.291210
 30
0.0
  0
SPLINE
  5
1e0
100
AcDbEntity
  8
0
 62
7
100
AcDbSpline
 70
8
 71
3
 72
8
 73
4
 74
0
 40
0
 40
0
 40
0
 40
0
 40
1
 40
1
 40
1
 40
1
 10
640.738110
 20
426.291210
 30
0.0
 10
642.419660
 20
426.458810
 30
0.0
 10
643.994690
 20
427.202140
 30
0.0
 10
644.238180
 20
427.943050
 30
0.0
  0
LWPOLYLINE
  5
1e1
100
AcDbEntity
  8
0
 62
7
100
AcDbPolyline
 90
1
 70
1
 10
628.249490
 20
427.295940
 30
0.0
  0
SPLINE
  5
1e2
100
AcDbEntity
  8
0
 62
7
100
AcDbSpline
 70
8
 71
3
 72
8
 73
4
 74
0
 40
0
 40
0
 40
0
 40
0
 40
1
 40
1
 40
1
 40
1
 10
657.867700
 20
426.702930
 30
0.0
 10
658.737690
 20
427.036770
 30
0.0
 10
659.449490
 20
427.727610
 30
0.0
 10
659.449490
 20
428.238110
 30
0.0
  0
SPLINE
  5
1e3
100
AcDbEntity
  8
0
 62
7
100
AcDbSpline
 70
8
 71
3
 72
8
 73
4
 74
0
 40
0
 40
0
 40
0
 40
0
 40
1
 40
1
 40
1
 40
1
 10
659.449490
 20
428.238110
 30
0.0
 10
659.449490
 20
428.748620
 30
0.0
 10
658.492570
 20
428.654180
 30
0.0
 10
657.323000
 20
428.028240
 30
0.0
  0
SPLINE
  5
1e4
100
AcDbEntity
  8
0
 62
7
100
AcDbSpline
 70
8
 71
3
 72
8
 73
4
 74
0
 40
0
 40
0
 40
0
 40
0
 40
1
 40
1
 40
1
 40
1
 10
657.323000
 20
428.028240
 30
0.0
 10
654.380530
 20
426.453480
 30
0.0
 10
650.693830
 20
428.274240
 30
0.0
 10
649.826320
 20
431.730650
 30
0.0
  0
SPLINE
  5
1e5
100
AcDbEntity
  8
0
 62
7
100
AcDbSpline
 70
8
 71
3
 72
8
 73
4
 74
0
 40
0
 40
0
 40
0
 40
0
 40
1
 40
1
 40
1
 40
1
 10
649.826320
 20
431.730650
 30
0.0
 10
648.890480
 20
435.459350
 30
0.0
 10
652.474780
 20
438.437810
 30
0.0
 10
656.863820
 20
437.578630
 30
0.0
  0
SPLINE
  5
1e6
100
AcDbEntity
  8
0
 62
7
100
AcDbSpline
 70
8
 71
3
 72
8
 73
4
 74
0
 40
0
 40
0
 40
0
 40
0
 40
1
 40
1
 40
1
 40
1
 10
656.863820
 20
437.578630
 30
0.0
 10
659.180420
 20
437.125140
 30
0.0
 10
659.575630
 20
437.235140
 30
0.0
 10
658.449490
 20
438.019950
 30
0.0
  0
SPLINE
  5
1e7
100
AcDbEntity
  8
0
 62
7
100
AcDbSpline
 70
8
 71
3
 72
8
 73
4
 74
0
 40
0
 40
0
 40
0
 40
0
 40
1
 40
1
 40
1
 40
1
 10
658.449490
 20
438.019950
 30
0.0
 10
656.079890
 20
439.671340
 30
0.0
 10
652.625960
 20
439.272410
 30
0.0
 10
650.449490
 20
437.095940
 30
0.0
  0
SPLINE
  5
1e8
100
AcDbEntity
  8
0
 62
7
100
AcDbSpline
 70
8
 71
3
 72
8
 73
4
 74
0
 40
0
 40
0
 40
0
 40
0
 40
1
 40
1
 40
1
 40
1
 10
650.449490
 20
437.095940
 30
0.0
 10
645.341750
 20
431.988200
 30
0.0
 10
650.996280
 20
424.066120
 30
0.0
 10
657.867700
 20
426.702930
 30
0.0
  0
LWPOLYLINE
  5
1e9
100
AcDbEntity
  8
0
 62
7
100
AcDbPolyline
 90
1
 70
1
 10
644.238180
 20
427.943050
 30
0.0
  0
SPLINE
  5
1ea
100
AcDbEntity
  8
0
 62
7
100
AcDbSpline
 70
8
 71
3
 72
8
 73
4
 74
0
 40
0
 40
0
 40
0
 40
0
 40
1
 40
1
 40
1
 40
1
 10
665.172890
 20
435.345940
 30
0.0
 10
664.951060
 20
437.133440
 30
0.0
 10
664.769560
 20
435.670940
 30
0.0
 10
664.769560
 20
432.095940
 30
0.0
  0
SPLINE
  5
1eb
100
AcDbEntity
  8
0
 62
7
100
AcDbSpline
 70
8
 71
3
 72
8
 73
4
 74
0
 40
0
 40
0
 40
0
 40
0
 40
1
 40
1
 40
1
 40
1
 10
664.769560
 20
432.095940
 30
0.0
 10
664.769560
 20
428.520940
 30
0.0
 10
664.951060
 20
427.058440
 30
0.0
 10
665.172890
 20
428.845940
 30
0.0
  0
SPLINE
  5
1ec
100
AcDbEntity
  8
0
 62
7
100
AcDbSpline
 70
8
 71
3
 72
8
 73
4
 74
0
 40
0
 40
0
 40
0
 40
0
 40
1
 40
1
 40
1
 40
1
 10
665.172890
 20
428.845940
 30
0.0
 10
665.394710
 20
430.633440
 30
0.0
 10
665.394710
 20
433.558440
 30
0.0
 10
665.172890
 20
435.345940
 30
0.0
  0
LWPOLYLINE
  5
1ed
100
AcDbEntity
  8
0
 62
7
100
AcDbPolyline
 90
1
 70
1
 10
657.867700
 20
426.702930
 30
0.0
  0
SPLINE
  5
1ee
100
AcDbEntity
  8
0
 62
7
100
AcDbSpline
 70
8
 71
3
 72
8
 73
4
 74
0
 40
0
 40
0
 40
0
 40
0
 40
1
 40
1
 40
1
 40
1
 10
680.449490
 20
428.095940
 30
0.0
 10
686.233820
 20
433.880270
 30
0.0
 10
678.431860
 20
442.274030
 30
0.0
 10
671.672000
 20
437.539240
 30
0.0
  0
SPLINE
  5
1ef
100
AcDbEntity
  8
0
 62
7
100
AcDbSpline
 70
8
 71
3
 72
8
 73
4
 74
0
 40
0
 40
0
 40
0
 40
0
 40
1
 40
1
 40
1
 40
1
 10
671.672000
 20
437.539240
 30
0.0
 10
667.119480
 20
434.350530
 30
0.0
 10
670.205040
 20
426.095940
 30
0.0
 10
675.949490
 20
426.095940
 30
0.0
  0
SPLINE
  5
1f0
100
AcDbEntity
  8
0
 62
7
100
AcDbSpline
 70
8
 71
3
 72
8
 73
4
 74
0
 40
0
 40
0
 40
0
 40
0
 40
1
 40
1
 40
1
 40
1
 10
675.949490
 20
426.095940
 30
0.0
 10
677.324490
 20
426.095940
 30
0.0
 10
679.349490
 20
426.995940
 30
0.0
 10
680.449490
 20
428.095940
 30
0.0
  0
LWPOLYLINE
  5
1f1
100
AcDbEntity
  8
0
 62
7
100
AcDbPolyline
 90
1
 70
1
 10
665.172890
 20
435.345940
 30
0.0
  0
SPLINE
  5
1f2
100
AcDbEntity
  8
0
 62
7
100
AcDbSpline
 70
8
 71
3
 72
8
 73
4
 74
0
 40
0
 40
0
 40
0
 40
0
 40
1
 40
1
 40
1
 40
1
 10
672.449490
 20
429.095940
 30
0.0
 10
671.349490
 20
430.195940
 30
0.0
 10
670.449490
 20
431.770940
 30
0.0
 10
670.449490
 20
432.595940
 30
0.0
  0
SPLINE
  5
1f3
100
AcDbEntity
  8
0
 62
7
100
AcDbSpline
 70
8
 71
3
 72
8
 73
4
 74
0
 40
0
 40
0
 40
0
 40
0
 40
1
 40
1
 40
1
 40
1
 10
670.449490
 20
432.595940
 30
0.0
 10
670.449490
 20
434.427470
 30
0.0
 10
673.969550
 20
438.095940
 30
0.0
 10
675.726980
 20
438.095940
 30
0.0
  0
SPLINE
  5
1f4
100
AcDbEntity
  8
0
 62
7
100
AcDbSpline
 70
8
 71
3
 72
8
 73
4
 74
0
 40
0
 40
0
 40
0
 40
0
 40
1
 40
1
 40
1
 40
1
 10
675.726980
 20
438.095940
 30
0.0
 10
678.194840
 20
438.095940
 30
0.0
 10
681.449490
 20
434.967840
 30
0.0
 10
681.449490
 20
432.595940
 30
0.0
  0
SPLINE
  5
1f5
100
AcDbEntity
  8
0
 62
7
100
AcDbSpline
 70
8
 71
3
 72
8
 73
4
 74
0
 40
0
 40
0
 40
0
 40
0
 40
1
 40
1
 40
1
 40
1
 10
681.449490
 20
432.595940
 30
0.0
 10
681.449490
 20
430.224040
 30
0.0
 10
678.194840
 20
427.095940
 30
0.0
 10
675.726980
 20
427.095940
 30
0.0
  0
SPLINE
  5
1f6
100
AcDbEntity
  8
0
 62
7
100
AcDbSpline
 70
8
 71
3
 72
8
 73
4
 74
0
 40
0
 40
0
 40
0
 40
0
 40
1
 40
1
 40
1
 40
1
 10
675.726980
 20
427.095940
 30
0.0
 10
675.024360
 20
427.095940
 30
0.0
 10
673.549490
 20
427.995940
 30
0.0
 10
672.449490
 20
429.095940
 30
0.0
  0
LWPOLYLINE
  5
1f7
100
AcDbEntity
  8
0
 62
7
100
AcDbPolyline
 90
1
 70
1
 10
680.449490
 20
428.095940
 30
0.0
  0
SPLINE
  5
1f8
100
AcDbEntity
  8
0
 62
7
100
AcDbSpline
 70
8
 71
3
 72
8
 73
4
 74
0
 40
0
 40
0
 40
0
 40
0
 40
1
 40
1
 40
1
 40
1
 10
689.229720
 20
434.095940
 30
0.0
 10
689.595600
 20
434.095940
 30
0.0
 10
691.575540
 20
432.183440
 30
0.0
 10
693.629580
 20
429.845940
 30
0.0
  0
LWPOLYLINE
  5
1f9
100
AcDbEntity
  8
0
 62
7
100
AcDbPolyline
 90
1
 70
1
 10
672.449490
 20
429.095940
 30
0.0
  0
SPLINE
  5
1fa
100
AcDbEntity
  8
0
 62
7
100
AcDbSpline
 70
8
 71
3
 72
8
 73
4
 74
0
 40
0
 40
0
 40
0
 40
0
 40
1
 40
1
 40
1
 40
1
 10
697.226600
 20
432.595940
 30
0.0
 10
697.120490
 20
437.993920
 30
0.0
 10
697.003280
 20
438.508860
 30
0.0
 10
696.714450
 20
434.845940
 30
0.0
  0
SPLINE
  5
1fb
100
AcDbEntity
  8
0
 62
7
100
AcDbSpline
 70
8
 71
3
 72
8
 73
4
 74
0
 40
0
 40
0
 40
0
 40
0
 40
1
 40
1
 40
1
 40
1
 10
696.714450
 20
434.845940
 30
0.0
 10
696.508450
 20
432.233440
 30
0.0
 10
696.051410
 20
430.095940
 30
0.0
 10
695.698810
 20
430.095940
 30
0.0
  0
SPLINE
  5
1fc
100
AcDbEntity
  8
0
 62
7
100
AcDbSpline
 70
8
 71
3
 72
8
 73
4
 74
0
 40
0
 40
0
 40
0
 40
0
 40
1
 40
1
 40
1
 40
1
 10
695.698810
 20
430.095940
 30
0.0
 10
695.346200
 20
430.095940
 30
0.0
 10
693.087370
 20
432.233440
 30
0.0
 10
690.679180
 20
434.845940
 30
0.0
  0
SPLINE
  5
1fd
100
AcDbEntity
  8
0
 62
7
100
AcDbSpline
 70
8
 71
3
 72
8
 73
4
 74
0
 40
0
 40
0
 40
0
 40
0
 40
1
 40
1
 40
1
 40
1
 10
690.679180
 20
434.845940
 30
0.0
 10
688.270990
 20
437.458440
 30
0.0
 10
686.559140
 20
438.771640
 30
0.0
 10
686.875070
 20
437.764150
 30
0.0
  0
SPLINE
  5
1fe
100
AcDbEntity
  8
0
 62
7
100
AcDbSpline
 70
8
 71
3
 72
8
 73
4
 74
0
 40
0
 40
0
 40
0
 40
0
 40
1
 40
1
 40
1
 40
1
 10
686.875070
 20
437.764150
 30
0.0
 10
687.191000
 20
436.756670
 30
0.0
 10
687.528110
 20
433.606670
 30
0.0
 10
687.624200
 20
430.764150
 30
0.0
  0
SPLINE
  5
1ff
100
AcDbEntity
  8
0
 62
7
100
AcDbSpline
 70
8
 71
3
 72
8
 73
4
 74
0
 40
0
 40
0
 40
0
 40
0
 40
1
 40
1
 40
1
 40
1
 10
687.624200
 20
430.764150
 30
0.0
 10
687.793970
 20
425.741930
 30
0.0
 10
687.809720
 20
425.715990
 30
0.0
 10
688.181700
 20
429.845940
 30
0.0
  0
SPLINE
  5
200
100
AcDbEntity
  8
0
 62
7
100
AcDbSpline
 70
8
 71
3
 72
8
 73
4
 74
0
 40
0
 40
0
 40
0
 40
0
 40
1
 40
1
 40
1
 40
1
 10
688.181700
 20
429.845940
 30
0.0
 10
688.392230
 20
432.183440
 30
0.0
 10
688.863840
 20
434.095940
 30
0.0
 10
689.229720
 20
434.095940
 30
0.0
  0
LWPOLYLINE
  5
201
100
AcDbEntity
  8
0
 62
7
100
AcDbPolyline
 90
3
 70
0
 10
693.629580
 20
429.845940
 30
0.0
 10
697.364220
 20
425.595940
 30
0.0
 10
697.226600
 20
432.595940
 30
0.0
  0
SPLINE
  5
202
100
AcDbEntity
  8
0
 62
7
100
AcDbSpline
 70
8
 71
3
 72
8
 73
4
 74
0
 40
0
 40
0
 40
0
 40
0
 40
1
 40
1
 40
1
 40
1
 10
361.449490
 20
432.595940
 30
0.0
 10
361.449490
 20
435.620940
 30
0.0
 10
360.999490
 20
438.095940
 30
0.0
 10
360.449490
 20
438.095940
 30
0.0
  0
SPLINE
  5
203
100
AcDbEntity
  8
0
 62
7
100
AcDbSpline
 70
8
 71
3
 72
8
 73
4
 74
0
 40
0
 40
0
 40
0
 40
0
 40
1
 40
1
 40
1
 40
1
 10
360.449490
 20
438.095940
 30
0.0
 10
359.899490
 20
438.095940
 30
0.0
 10
359.449490
 20
435.620940
 30
0.0
 10
359.449490
 20
432.595940
 30
0.0
  0
SPLINE
  5
204
100
AcDbEntity
  8
0
 62
7
100
AcDbSpline
 70
8
 71
3
 72
8
 73
4
 74
0
 40
0
 40
0
 40
0
 40
0
 40
1
 40
1
 40
1
 40
1
 10
359.449490
 20
432.595940
 30
0.0
 10
359.449490
 20
429.570940
 30
0.0
 10
359.899490
 20
427.095940
 30
0.0
 10
360.449490
 20
427.095940
 30
0.0
  0
SPLINE
  5
205
100
AcDbEntity
  8
0
 62
7
100
AcDbSpline
 70
8
 71
3
 72
8
 73
4
 74
0
 40
0
 40
0
 40
0
 40
0
 40
1
 40
1
 40
1
 40
1
 10
360.449490
 20
427.095940
 30
0.0
 10
360.999490
 20
427.095940
 30
0.0
 10
361.449490
 20
429.570940
 30
0.0
 10
361.449490
 20
432.595940
 30
0.0
  0
LWPOLYLINE
  5
206
100
AcDbEntity
  8
0
 62
7
100
AcDbPolyline
 90
1
 70
1
 10
689.229720
 20
434.095940
 30
0.0
  0
SPLINE
  5
207
100
AcDbEntity
  8
0
 62
7
100
AcDbSpline
 70
8
 71
3
 72
8
 73
4
 74
0
 40
0
 40
0
 40
0
 40
0
 40
1
 40
1
 40
1
 40
1
 10
433.001750
 20
437.095940
 30
0.0
 10
434.348010
 20
437.095940
 30
0.0
 10
435.449490
 20
437.545940
 30
0.0
 10
435.449490
 20
438.095940
 30
0.0
  0
SPLINE
  5
208
100
AcDbEntity
  8
0
 62
7
100
AcDbSpline
 70
8
 71
3
 72
8
 73
4
 74
0
 40
0
 40
0
 40
0
 40
0
 40
1
 40
1
 40
1
 40
1
 10
435.449490
 20
438.095940
 30
0.0
 10
435.449490
 20
438.645940
 30
0.0
 10
433.199490
 20
439.095940
 30
0.0
 10
430.449490
 20
439.095940
 30
0.0
  0
SPLINE
  5
209
100
AcDbEntity
  8
0
 62
7
100
AcDbSpline
 70
8
 71
3
 72
8
 73
4
 74
0
 40
0
 40
0
 40
0
 40
0
 40
1
 40
1
 40
1
 40
1
 10
430.449490
 20
439.095940
 30
0.0
 10
427.699490
 20
439.095940
 30
0.0
 10
425.449490
 20
438.645940
 30
0.0
 10
425.449490
 20
438.095940
 30
0.0
  0
SPLINE
  5
20a
100
AcDbEntity
  8
0
 62
7
100
AcDbSpline
 70
8
 71
3
 72
8
 73
4
 74
0
 40
0
 40
0
 40
0
 40
0
 40
1
 40
1
 40
1
 40
1
 10
425.449490
 20
438.095940
 30
0.0
 10
425.449490
 20
437.545940
 30
0.0
 10
426.349490
 20
437.095940
 30
0.0
 10
427.449490
 20
437.095940
 30
0.0
  0
SPLINE
  5
20b
100
AcDbEntity
  8
0
 62
7
100
AcDbSpline
 70
8
 71
3
 72
8
 73
4
 74
0
 40
0
 40
0
 40
0
 40
0
 40
1
 40
1
 40
1
 40
1
 10
427.449490
 20
437.095940
 30
0.0
 10
429.172030
 20
437.095940
 30
0.0
 10
429.475150
 20
436.367610
 30
0.0
 10
429.634470
 20
431.845940
 30
0.0
  0
LWPOLYLINE
  5
20c
100
AcDbEntity
  8
0
 62
7
100
AcDbPolyline
 90
1
 70
1
 10
361.449490
 20
432.595940
 30
0.0
  0
SPLINE
  5
20d
100
AcDbEntity
  8
0
 62
7
100
AcDbSpline
 70
8
 71
3
 72
8
 73
4
 74
0
 40
0
 40
0
 40
0
 40
0
 40
1
 40
1
 40
1
 40
1
 10
430.186730
 20
431.845940
 30
0.0
 10
430.522770
 20
436.649350
 30
0.0
 10
430.762220
 20
437.095940
 30
0.0
 10
433.001750
 20
437.095940
 30
0.0
  0
LWPOLYLINE
  5
20e
100
AcDbEntity
  8
0
 62
7
100
AcDbPolyline
 90
3
 70
0
 10
429.634470
 20
431.845940
 30
0.0
 10
429.819450
 20
426.595940
 30
0.0
 10
430.186730
 20
431.845940
 30
0.0
  0
SPLINE
  5
20f
100
AcDbEntity
  8
0
 62
7
100
AcDbSpline
 70
8
 71
3
 72
8
 73
4
 74
0
 40
0
 40
0
 40
0
 40
0
 40
1
 40
1
 40
1
 40
1
 10
609.014780
 20
458.201600
 30
0.0
 10
609.308550
 20
458.676930
 30
0.0
 10
608.164330
 20
458.788920
 30
0.0
 10
606.472060
 20
458.450460
 30
0.0
  0
SPLINE
  5
210
100
AcDbEntity
  8
0
 62
7
100
AcDbSpline
 70
8
 71
3
 72
8
 73
4
 74
0
 40
0
 40
0
 40
0
 40
0
 40
1
 40
1
 40
1
 40
1
 10
606.472060
 20
458.450460
 30
0.0
 10
604.271670
 20
458.010390
 30
0.0
 10
602.833230
 20
458.343680
 30
0.0
 10
601.422350
 20
459.620510
 30
0.0
  0
SPLINE
  5
211
100
AcDbEntity
  8
0
 62
7
100
AcDbSpline
 70
8
 71
3
 72
8
 73
4
 74
0
 40
0
 40
0
 40
0
 40
0
 40
1
 40
1
 40
1
 40
1
 10
601.422350
 20
459.620510
 30
0.0
 10
597.207010
 20
463.435340
 30
0.0
 10
600.361280
 20
468.696500
 30
0.0
 10
606.287210
 20
467.734860
 30
0.0
  0
SPLINE
  5
212
100
AcDbEntity
  8
0
 62
7
100
AcDbSpline
 70
8
 71
3
 72
8
 73
4
 74
0
 40
0
 40
0
 40
0
 40
0
 40
1
 40
1
 40
1
 40
1
 10
606.287210
 20
467.734860
 30
0.0
 10
608.803180
 20
467.326570
 30
0.0
 10
609.473110
 20
467.472330
 30
0.0
 10
608.688180
 20
468.257260
 30
0.0
  0
SPLINE
  5
213
100
AcDbEntity
  8
0
 62
7
100
AcDbSpline
 70
8
 71
3
 72
8
 73
4
 74
0
 40
0
 40
0
 40
0
 40
0
 40
1
 40
1
 40
1
 40
1
 10
608.688180
 20
468.257260
 30
0.0
 10
607.022970
 20
469.922470
 30
0.0
 10
602.613030
 20
469.553930
 30
0.0
 10
600.416350
 20
467.565960
 30
0.0
  0
SPLINE
  5
214
100
AcDbEntity
  8
0
 62
7
100
AcDbSpline
 70
8
 71
3
 72
8
 73
4
 74
0
 40
0
 40
0
 40
0
 40
0
 40
1
 40
1
 40
1
 40
1
 10
600.416350
 20
467.565960
 30
0.0
 10
596.829200
 20
464.319630
 30
0.0
 10
598.501810
 20
458.431990
 30
0.0
 10
603.449490
 20
456.889190
 30
0.0
  0
SPLINE
  5
215
100
AcDbEntity
  8
0
 62
7
100
AcDbSpline
 70
8
 71
3
 72
8
 73
4
 74
0
 40
0
 40
0
 40
0
 40
0
 40
1
 40
1
 40
1
 40
1
 10
603.449490
 20
456.889190
 30
0.0
 10
605.281610
 20
456.317900
 30
0.0
 10
608.288890
 20
457.027080
 30
0.0
 10
609.014780
 20
458.201600
 30
0.0
  0
LWPOLYLINE
  5
216
100
AcDbEntity
  8
0
 62
7
100
AcDbPolyline
 90
1
 70
1
 10
433.001750
 20
437.095940
 30
0.0
  0
SPLINE
  5
217
100
AcDbEntity
  8
0
 62
7
100
AcDbSpline
 70
8
 71
3
 72
8
 73
4
 74
0
 40
0
 40
0
 40
0
 40
0
 40
1
 40
1
 40
1
 40
1
 10
345.265910
 20
460.345950
 30
0.0
 10
345.508800
 20
462.456880
 30
0.0
 10
345.160220
 20
463.092390
 30
0.0
 10
343.765910
 20
463.080640
 30
0.0
  0
SPLINE
  5
218
100
AcDbEntity
  8
0
 62
7
100
AcDbSpline
 70
8
 71
3
 72
8
 73
4
 74
0
 40
0
 40
0
 40
0
 40
0
 40
1
 40
1
 40
1
 40
1
 10
343.765910
 20
463.080640
 30
0.0
 10
342.326510
 20
463.068540
 30
0.0
 10
342.239190
 20
462.881890
 30
0.0
 10
343.345210
 20
462.181560
 30
0.0
  0
SPLINE
  5
219
100
AcDbEntity
  8
0
 62
7
100
AcDbSpline
 70
8
 71
3
 72
8
 73
4
 74
0
 40
0
 40
0
 40
0
 40
0
 40
1
 40
1
 40
1
 40
1
 10
343.345210
 20
462.181560
 30
0.0
 10
345.578810
 20
460.767250
 30
0.0
 10
343.836790
 20
458.095950
 30
0.0
 10
340.680870
 20
458.095950
 30
0.0
  0
SPLINE
  5
21a
100
AcDbEntity
  8
0
 62
7
100
AcDbSpline
 70
8
 71
3
 72
8
 73
4
 74
0
 40
0
 40
0
 40
0
 40
0
 40
1
 40
1
 40
1
 40
1
 10
340.680870
 20
458.095950
 30
0.0
 10
337.132300
 20
458.095950
 30
0.0
 10
335.449490
 20
459.729280
 30
0.0
 10
335.449490
 20
463.173510
 30
0.0
  0
SPLINE
  5
21b
100
AcDbEntity
  8
0
 62
7
100
AcDbSpline
 70
8
 71
3
 72
8
 73
4
 74
0
 40
0
 40
0
 40
0
 40
0
 40
1
 40
1
 40
1
 40
1
 10
335.449490
 20
463.173510
 30
0.0
 10
335.449490
 20
466.668320
 30
0.0
 10
337.694750
 20
468.433720
 30
0.0
 10
341.440330
 20
467.883990
 30
0.0
  0
SPLINE
  5
21c
100
AcDbEntity
  8
0
 62
7
100
AcDbSpline
 70
8
 71
3
 72
8
 73
4
 74
0
 40
0
 40
0
 40
0
 40
0
 40
1
 40
1
 40
1
 40
1
 10
341.440330
 20
467.883990
 30
0.0
 10
343.095370
 20
467.641080
 30
0.0
 10
344.449490
 20
467.814390
 30
0.0
 10
344.449490
 20
468.269140
 30
0.0
  0
SPLINE
  5
21d
100
AcDbEntity
  8
0
 62
7
100
AcDbSpline
 70
8
 71
3
 72
8
 73
4
 74
0
 40
0
 40
0
 40
0
 40
0
 40
1
 40
1
 40
1
 40
1
 10
344.449490
 20
468.269140
 30
0.0
 10
344.449490
 20
468.723890
 30
0.0
 10
342.675010
 20
469.095950
 30
0.0
 10
340.506190
 20
469.095950
 30
0.0
  0
SPLINE
  5
21e
100
AcDbEntity
  8
0
 62
7
100
AcDbSpline
 70
8
 71
3
 72
8
 73
4
 74
0
 40
0
 40
0
 40
0
 40
0
 40
1
 40
1
 40
1
 40
1
 10
340.506190
 20
469.095950
 30
0.0
 10
334.405340
 20
469.095950
 30
0.0
 10
331.641420
 20
464.122340
 30
0.0
 10
335.043260
 20
459.265540
 30
0.0
  0
SPLINE
  5
21f
100
AcDbEntity
  8
0
 62
7
100
AcDbSpline
 70
8
 71
3
 72
8
 73
4
 74
0
 40
0
 40
0
 40
0
 40
0
 40
1
 40
1
 40
1
 40
1
 10
335.043260
 20
459.265540
 30
0.0
 10
336.342800
 20
457.410180
 30
0.0
 10
337.404310
 20
457.046040
 30
0.0
 10
340.793260
 20
457.293030
 30
0.0
  0
SPLINE
  5
220
100
AcDbEntity
  8
0
 62
7
100
AcDbSpline
 70
8
 71
3
 72
8
 73
4
 74
0
 40
0
 40
0
 40
0
 40
0
 40
1
 40
1
 40
1
 40
1
 10
340.793260
 20
457.293030
 30
0.0
 10
344.495090
 20
457.562830
 30
0.0
 10
344.984080
 20
457.896610
 30
0.0
 10
345.265910
 20
460.345950
 30
0.0
  0
LWPOLYLINE
  5
221
100
AcDbEntity
  8
0
 62
7
100
AcDbPolyline
 90
1
 70
1
 10
609.014780
 20
458.201600
 30
0.0
  0
SPLINE
  5
222
100
AcDbEntity
  8
0
 62
7
100
AcDbSpline
 70
8
 71
3
 72
8
 73
4
 74
0
 40
0
 40
0
 40
0
 40
0
 40
1
 40
1
 40
1
 40
1
 10
351.449490
 20
459.595950
 30
0.0
 10
351.449490
 20
461.378440
 30
0.0
 10
351.990490
 20
462.095950
 30
0.0
 10
353.334480
 20
462.095950
 30
0.0
  0
SPLINE
  5
223
100
AcDbEntity
  8
0
 62
7
100
AcDbSpline
 70
8
 71
3
 72
8
 73
4
 74
0
 40
0
 40
0
 40
0
 40
0
 40
1
 40
1
 40
1
 40
1
 10
353.334480
 20
462.095950
 30
0.0
 10
354.371220
 20
462.095950
 30
0.0
 10
355.956600
 20
460.970950
 30
0.0
 10
356.857530
 20
459.595950
 30
0.0
  0
SPLINE
  5
224
100
AcDbEntity
  8
0
 62
7
100
AcDbSpline
 70
8
 71
3
 72
8
 73
4
 74
0
 40
0
 40
0
 40
0
 40
0
 40
1
 40
1
 40
1
 40
1
 10
356.857530
 20
459.595950
 30
0.0
 10
357.758470
 20
458.220950
 30
0.0
 10
359.004970
 20
457.095950
 30
0.0
 10
359.627530
 20
457.095950
 30
0.0
  0
SPLINE
  5
225
100
AcDbEntity
  8
0
 62
7
100
AcDbSpline
 70
8
 71
3
 72
8
 73
4
 74
0
 40
0
 40
0
 40
0
 40
0
 40
1
 40
1
 40
1
 40
1
 10
359.627530
 20
457.095950
 30
0.0
 10
360.256010
 20
457.095950
 30
0.0
 10
359.979080
 20
457.958270
 30
0.0
 10
359.004890
 20
459.034730
 30
0.0
  0
SPLINE
  5
226
100
AcDbEntity
  8
0
 62
7
100
AcDbSpline
 70
8
 71
3
 72
8
 73
4
 74
0
 40
0
 40
0
 40
0
 40
0
 40
1
 40
1
 40
1
 40
1
 10
359.004890
 20
459.034730
 30
0.0
 10
357.404440
 20
460.803210
 30
0.0
 10
357.386650
 20
461.168150
 30
0.0
 10
358.802350
 20
463.189340
 30
0.0
  0
SPLINE
  5
227
100
AcDbEntity
  8
0
 62
7
100
AcDbSpline
 70
8
 71
3
 72
8
 73
4
 74
0
 40
0
 40
0
 40
0
 40
0
 40
1
 40
1
 40
1
 40
1
 10
358.802350
 20
463.189340
 30
0.0
 10
361.296870
 20
466.750770
 30
0.0
 10
359.356110
 20
469.095950
 30
0.0
 10
353.914310
 20
469.095950
 30
0.0
  0
LWPOLYLINE
  5
228
100
AcDbEntity
  8
0
 62
7
100
AcDbPolyline
 90
1
 70
1
 10
345.265910
 20
460.345950
 30
0.0
  0
SPLINE
  5
229
100
AcDbEntity
  8
0
 62
7
100
AcDbSpline
 70
8
 71
3
 72
8
 73
4
 74
0
 40
0
 40
0
 40
0
 40
0
 40
1
 40
1
 40
1
 40
1
 10
349.449490
 20
463.095950
 30
0.0
 10
349.449490
 20
459.762620
 30
0.0
 10
349.893930
 20
457.095950
 30
0.0
 10
350.449490
 20
457.095950
 30
0.0
  0
SPLINE
  5
22a
100
AcDbEntity
  8
0
 62
7
100
AcDbSpline
 70
8
 71
3
 72
8
 73
4
 74
0
 40
0
 40
0
 40
0
 40
0
 40
1
 40
1
 40
1
 40
1
 10
350.449490
 20
457.095950
 30
0.0
 10
350.999490
 20
457.095950
 30
0.0
 10
351.449490
 20
458.220950
 30
0.0
 10
351.449490
 20
459.595950
 30
0.0
  0
LWPOLYLINE
  5
22b
100
AcDbEntity
  8
0
 62
7
100
AcDbPolyline
 90
3
 70
0
 10
353.914310
 20
469.095950
 30
0.0
 10
349.449490
 20
469.095950
 30
0.0
 10
349.449490
 20
463.095950
 30
0.0
  0
SPLINE
  5
22c
100
AcDbEntity
  8
0
 62
7
100
AcDbSpline
 70
8
 71
3
 72
8
 73
4
 74
0
 40
0
 40
0
 40
0
 40
0
 40
1
 40
1
 40
1
 40
1
 10
351.449490
 20
465.595950
 30
0.0
 10
351.449490
 20
467.957040
 30
0.0
 10
351.778150
 20
468.190980
 30
0.0
 10
354.699490
 20
467.909310
 30
0.0
  0
SPLINE
  5
22d
100
AcDbEntity
  8
0
 62
7
100
AcDbSpline
 70
8
 71
3
 72
8
 73
4
 74
0
 40
0
 40
0
 40
0
 40
0
 40
1
 40
1
 40
1
 40
1
 10
354.699490
 20
467.909310
 30
0.0
 10
357.178370
 20
467.670300
 30
0.0
 10
357.949490
 20
467.121410
 30
0.0
 10
357.949490
 20
465.595950
 30
0.0
  0
SPLINE
  5
22e
100
AcDbEntity
  8
0
 62
7
100
AcDbSpline
 70
8
 71
3
 72
8
 73
4
 74
0
 40
0
 40
0
 40
0
 40
0
 40
1
 40
1
 40
1
 40
1
 10
357.949490
 20
465.595950
 30
0.0
 10
357.949490
 20
464.070490
 30
0.0
 10
357.178370
 20
463.521600
 30
0.0
 10
354.699490
 20
463.282590
 30
0.0
  0
SPLINE
  5
22f
100
AcDbEntity
  8
0
 62
7
100
AcDbSpline
 70
8
 71
3
 72
8
 73
4
 74
0
 40
0
 40
0
 40
0
 40
0
 40
1
 40
1
 40
1
 40
1
 10
354.699490
 20
463.282590
 30
0.0
 10
351.778150
 20
463.000920
 30
0.0
 10
351.449490
 20
463.234890
 30
0.0
 10
351.449490
 20
465.595950
 30
0.0
  0
LWPOLYLINE
  5
230
100
AcDbEntity
  8
0
 62
7
100
AcDbPolyline
 90
1
 70
1
 10
351.449490
 20
459.595950
 30
0.0
  0
LWPOLYLINE
  5
231
100
AcDbEntity
  8
0
 62
7
100
AcDbPolyline
 90
1
 70
1
 10
351.449490
 20
465.595950
 30
0.0
  0
SPLINE
  5
232
100
AcDbEntity
  8
0
 62
7
100
AcDbSpline
 70
8
 71
3
 72
8
 73
4
 74
0
 40
0
 40
0
 40
0
 40
0
 40
1
 40
1
 40
1
 40
1
 10
366.647230
 20
463.845950
 30
0.0
 10
366.293140
 20
469.996170
 30
0.0
 10
364.449490
 20
470.989630
 30
0.0
 10
364.449490
 20
465.030210
 30
0.0
  0
SPLINE
  5
233
100
AcDbEntity
  8
0
 62
7
100
AcDbSpline
 70
8
 71
3
 72
8
 73
4
 74
0
 40
0
 40
0
 40
0
 40
0
 40
1
 40
1
 40
1
 40
1
 10
364.449490
 20
465.030210
 30
0.0
 10
364.449490
 20
458.617010
 30
0.0
 10
365.824030
 20
456.932410
 30
0.0
 10
370.763760
 20
457.291590
 30
0.0
  0
LWPOLYLINE
  5
234
100
AcDbEntity
  8
0
 62
7
100
AcDbPolyline
 90
7
 70
0
 10
375.065150
 20
463.595950
 30
0.0
 10
375.180800
 20
469.595950
 30
0.0
 10
374.565150
 20
464.095950
 30
0.0
 10
373.949490
 20
458.595950
 30
0.0
 10
370.449490
 20
458.595950
 30
0.0
 10
366.949490
 20
458.595950
 30
0.0
 10
366.647230
 20
463.845950
 30
0.0
  0
SPLINE
  5
235
100
AcDbEntity
  8
0
 62
7
100
AcDbSpline
 70
8
 71
3
 72
8
 73
4
 74
0
 40
0
 40
0
 40
0
 40
0
 40
1
 40
1
 40
1
 40
1
 10
382.449490
 20
459.595950
 30
0.0
 10
382.449490
 20
461.540760
 30
0.0
 10
382.962230
 20
462.095950
 30
0.0
 10
384.758360
 20
462.095950
 30
0.0
  0
SPLINE
  5
236
100
AcDbEntity
  8
0
 62
7
100
AcDbSpline
 70
8
 71
3
 72
8
 73
4
 74
0
 40
0
 40
0
 40
0
 40
0
 40
1
 40
1
 40
1
 40
1
 10
384.758360
 20
462.095950
 30
0.0
 10
387.985170
 20
462.095950
 30
0.0
 10
390.736380
 20
464.363150
 30
0.0
 10
390.299240
 20
466.662050
 30
0.0
  0
SPLINE
  5
237
100
AcDbEntity
  8
0
 62
7
100
AcDbSpline
 70
8
 71
3
 72
8
 73
4
 74
0
 40
0
 40
0
 40
0
 40
0
 40
1
 40
1
 40
1
 40
1
 10
390.299240
 20
466.662050
 30
0.0
 10
390.007810
 20
468.194620
 30
0.0
 10
388.947640
 20
468.659200
 30
0.0
 10
385.190500
 20
468.900740
 30
0.0
  0
LWPOLYLINE
  5
238
100
AcDbEntity
  8
0
 62
7
100
AcDbPolyline
 90
3
 70
0
 10
370.763760
 20
457.291590
 30
0.0
 10
374.949490
 20
457.595950
 30
0.0
 10
375.065150
 20
463.595950
 30
0.0
  0
SPLINE
  5
239
100
AcDbEntity
  8
0
 62
7
100
AcDbSpline
 70
8
 71
3
 72
8
 73
4
 74
0
 40
0
 40
0
 40
0
 40
0
 40
1
 40
1
 40
1
 40
1
 10
380.449490
 20
463.150740
 30
0.0
 10
380.449490
 20
459.780880
 30
0.0
 10
380.892930
 20
457.095950
 30
0.0
 10
381.449490
 20
457.095950
 30
0.0
  0
SPLINE
  5
23a
100
AcDbEntity
  8
0
 62
7
100
AcDbSpline
 70
8
 71
3
 72
8
 73
4
 74
0
 40
0
 40
0
 40
0
 40
0
 40
1
 40
1
 40
1
 40
1
 10
381.449490
 20
457.095950
 30
0.0
 10
381.999490
 20
457.095950
 30
0.0
 10
382.449490
 20
458.220950
 30
0.0
 10
382.449490
 20
459.595950
 30
0.0
  0
LWPOLYLINE
  5
23b
100
AcDbEntity
  8
0
 62
7
100
AcDbPolyline
 90
3
 70
0
 10
385.190500
 20
468.900740
 30
0.0
 10
380.449490
 20
469.205530
 30
0.0
 10
380.449490
 20
463.150740
 30
0.0
  0
SPLINE
  5
23c
100
AcDbEntity
  8
0
 62
7
100
AcDbSpline
 70
8
 71
3
 72
8
 73
4
 74
0
 40
0
 40
0
 40
0
 40
0
 40
1
 40
1
 40
1
 40
1
 10
382.449490
 20
465.576900
 30
0.0
 10
382.449490
 20
467.697940
 30
0.0
 10
382.914160
 20
468.095950
 30
0.0
 10
385.390470
 20
468.095950
 30
0.0
  0
SPLINE
  5
23d
100
AcDbEntity
  8
0
 62
7
100
AcDbSpline
 70
8
 71
3
 72
8
 73
4
 74
0
 40
0
 40
0
 40
0
 40
0
 40
1
 40
1
 40
1
 40
1
 10
385.390470
 20
468.095950
 30
0.0
 10
390.735460
 20
468.095950
 30
0.0
 10
390.599850
 20
464.978840
 30
0.0
 10
385.199490
 20
463.706010
 30
0.0
  0
SPLINE
  5
23e
100
AcDbEntity
  8
0
 62
7
100
AcDbSpline
 70
8
 71
3
 72
8
 73
4
 74
0
 40
0
 40
0
 40
0
 40
0
 40
1
 40
1
 40
1
 40
1
 10
385.199490
 20
463.706010
 30
0.0
 10
382.755740
 20
463.130030
 30
0.0
 10
382.449490
 20
463.338380
 30
0.0
 10
382.449490
 20
465.576900
 30
0.0
  0
LWPOLYLINE
  5
23f
100
AcDbEntity
  8
0
 62
7
100
AcDbPolyline
 90
1
 70
1
 10
382.449490
 20
459.595950
 30
0.0
  0
SPLINE
  5
240
100
AcDbEntity
  8
0
 62
7
100
AcDbSpline
 70
8
 71
3
 72
8
 73
4
 74
0
 40
0
 40
0
 40
0
 40
0
 40
1
 40
1
 40
1
 40
1
 10
405.249490
 20
458.295950
 30
0.0
 10
407.244030
 20
460.290490
 30
0.0
 10
406.749670
 20
466.864930
 30
0.0
 10
404.515230
 20
468.060770
 30
0.0
  0
SPLINE
  5
241
100
AcDbEntity
  8
0
 62
7
100
AcDbSpline
 70
8
 71
3
 72
8
 73
4
 74
0
 40
0
 40
0
 40
0
 40
0
 40
1
 40
1
 40
1
 40
1
 10
404.515230
 20
468.060770
 30
0.0
 10
401.163880
 20
469.854350
 30
0.0
 10
396.704060
 20
469.297490
 30
0.0
 10
395.006190
 20
466.873440
 30
0.0
  0
SPLINE
  5
242
100
AcDbEntity
  8
0
 62
7
100
AcDbSpline
 70
8
 71
3
 72
8
 73
4
 74
0
 40
0
 40
0
 40
0
 40
0
 40
1
 40
1
 40
1
 40
1
 10
395.006190
 20
466.873440
 30
0.0
 10
391.699230
 20
462.152090
 30
0.0
 10
394.439970
 20
457.095950
 30
0.0
 10
400.306190
 20
457.095950
 30
0.0
  0
SPLINE
  5
243
100
AcDbEntity
  8
0
 62
7
100
AcDbSpline
 70
8
 71
3
 72
8
 73
4
 74
0
 40
0
 40
0
 40
0
 40
0
 40
1
 40
1
 40
1
 40
1
 10
400.306190
 20
457.095950
 30
0.0
 10
402.365010
 20
457.095950
 30
0.0
 10
404.589490
 20
457.635950
 30
0.0
 10
405.249490
 20
458.295950
 30
0.0
  0
LWPOLYLINE
  5
244
100
AcDbEntity
  8
0
 62
7
100
AcDbPolyline
 90
1
 70
1
 10
382.449490
 20
465.576900
 30
0.0
  0
SPLINE
  5
245
100
AcDbEntity
  8
0
 62
7
100
AcDbSpline
 70
8
 71
3
 72
8
 73
4
 74
0
 40
0
 40
0
 40
0
 40
0
 40
1
 40
1
 40
1
 40
1
 10
395.857530
 20
460.595950
 30
0.0
 10
394.340120
 20
462.911820
 30
0.0
 10
394.340120
 20
463.280080
 30
0.0
 10
395.857530
 20
465.595950
 30
0.0
  0
SPLINE
  5
246
100
AcDbEntity
  8
0
 62
7
100
AcDbSpline
 70
8
 71
3
 72
8
 73
4
 74
0
 40
0
 40
0
 40
0
 40
0
 40
1
 40
1
 40
1
 40
1
 10
395.857530
 20
465.595950
 30
0.0
 10
396.953880
 20
467.269180
 30
0.0
 10
398.413950
 20
468.095950
 30
0.0
 10
400.272540
 20
468.095950
 30
0.0
  0
SPLINE
  5
247
100
AcDbEntity
  8
0
 62
7
100
AcDbSpline
 70
8
 71
3
 72
8
 73
4
 74
0
 40
0
 40
0
 40
0
 40
0
 40
1
 40
1
 40
1
 40
1
 10
400.272540
 20
468.095950
 30
0.0
 10
403.793930
 20
468.095950
 30
0.0
 10
405.449490
 20
466.444270
 30
0.0
 10
405.449490
 20
462.931130
 30
0.0
  0
SPLINE
  5
248
100
AcDbEntity
  8
0
 62
7
100
AcDbSpline
 70
8
 71
3
 72
8
 73
4
 74
0
 40
0
 40
0
 40
0
 40
0
 40
1
 40
1
 40
1
 40
1
 10
405.449490
 20
462.931130
 30
0.0
 10
405.449490
 20
457.947660
 30
0.0
 10
398.673620
 20
456.298060
 30
0.0
 10
395.857530
 20
460.595950
 30
0.0
  0
LWPOLYLINE
  5
249
100
AcDbEntity
  8
0
 62
7
100
AcDbPolyline
 90
1
 70
1
 10
405.249490
 20
458.295950
 30
0.0
  0
SPLINE
  5
24a
100
AcDbEntity
  8
0
 62
7
100
AcDbSpline
 70
8
 71
3
 72
8
 73
4
 74
0
 40
0
 40
0
 40
0
 40
0
 40
1
 40
1
 40
1
 40
1
 10
425.940180
 20
458.080890
 30
0.0
 10
426.318230
 20
458.692580
 30
0.0
 10
425.382910
 20
458.832630
 30
0.0
 10
423.472060
 20
458.450460
 30
0.0
  0
SPLINE
  5
24b
100
AcDbEntity
  8
0
 62
7
100
AcDbSpline
 70
8
 71
3
 72
8
 73
4
 74
0
 40
0
 40
0
 40
0
 40
0
 40
1
 40
1
 40
1
 40
1
 10
423.472060
 20
458.450460
 30
0.0
 10
420.041050
 20
457.764260
 30
0.0
 10
416.449490
 20
460.140110
 30
0.0
 10
416.449490
 20
463.095950
 30
0.0
  0
SPLINE
  5
24c
100
AcDbEntity
  8
0
 62
7
100
AcDbSpline
 70
8
 71
3
 72
8
 73
4
 74
0
 40
0
 40
0
 40
0
 40
0
 40
1
 40
1
 40
1
 40
1
 10
416.449490
 20
463.095950
 30
0.0
 10
416.449490
 20
465.900530
 30
0.0
 10
420.025090
 20
468.385240
 30
0.0
 10
423.357230
 20
467.896180
 30
0.0
  0
SPLINE
  5
24d
100
AcDbEntity
  8
0
 62
7
100
AcDbSpline
 70
8
 71
3
 72
8
 73
4
 74
0
 40
0
 40
0
 40
0
 40
0
 40
1
 40
1
 40
1
 40
1
 10
423.357230
 20
467.896180
 30
0.0
 10
424.999880
 20
467.655090
 30
0.0
 10
426.116070
 20
467.826380
 30
0.0
 10
425.837660
 20
468.276890
 30
0.0
  0
SPLINE
  5
24e
100
AcDbEntity
  8
0
 62
7
100
AcDbSpline
 70
8
 71
3
 72
8
 73
4
 74
0
 40
0
 40
0
 40
0
 40
0
 40
1
 40
1
 40
1
 40
1
 10
425.837660
 20
468.276890
 30
0.0
 10
425.559250
 20
468.727370
 30
0.0
 10
423.808530
 20
469.095950
 30
0.0
 10
421.947180
 20
469.095950
 30
0.0
  0
SPLINE
  5
24f
100
AcDbEntity
  8
0
 62
7
100
AcDbSpline
 70
8
 71
3
 72
8
 73
4
 74
0
 40
0
 40
0
 40
0
 40
0
 40
1
 40
1
 40
1
 40
1
 10
421.947180
 20
469.095950
 30
0.0
 10
418.451110
 20
469.095950
 30
0.0
 10
415.449490
 20
466.324240
 30
0.0
 10
415.449490
 20
463.095950
 30
0.0
  0
SPLINE
  5
250
100
AcDbEntity
  8
0
 62
7
100
AcDbSpline
 70
8
 71
3
 72
8
 73
4
 74
0
 40
0
 40
0
 40
0
 40
0
 40
1
 40
1
 40
1
 40
1
 10
415.449490
 20
463.095950
 30
0.0
 10
415.449490
 20
459.867660
 30
0.0
 10
418.451110
 20
457.095950
 30
0.0
 10
421.947180
 20
457.095950
 30
0.0
  0
SPLINE
  5
251
100
AcDbEntity
  8
0
 62
7
100
AcDbSpline
 70
8
 71
3
 72
8
 73
4
 74
0
 40
0
 40
0
 40
0
 40
0
 40
1
 40
1
 40
1
 40
1
 10
421.947180
 20
457.095950
 30
0.0
 10
423.808530
 20
457.095950
 30
0.0
 10
425.605380
 20
457.539170
 30
0.0
 10
425.940180
 20
458.080890
 30
0.0
  0
LWPOLYLINE
  5
252
100
AcDbEntity
  8
0
 62
7
100
AcDbPolyline
 90
1
 70
1
 10
395.857530
 20
460.595950
 30
0.0
  0
SPLINE
  5
253
100
AcDbEntity
  8
0
 62
7
100
AcDbSpline
 70
8
 71
3
 72
8
 73
4
 74
0
 40
0
 40
0
 40
0
 40
0
 40
1
 40
1
 40
1
 40
1
 10
441.620750
 20
458.750940
 30
0.0
 10
445.616460
 20
462.367010
 30
0.0
 10
442.691050
 20
469.095950
 30
0.0
 10
437.123240
 20
469.095950
 30
0.0
  0
SPLINE
  5
254
100
AcDbEntity
  8
0
 62
7
100
AcDbSpline
 70
8
 71
3
 72
8
 73
4
 74
0
 40
0
 40
0
 40
0
 40
0
 40
1
 40
1
 40
1
 40
1
 10
437.123240
 20
469.095950
 30
0.0
 10
431.315050
 20
469.095950
 30
0.0
 10
428.345690
 20
463.078110
 30
0.0
 10
432.104480
 20
458.924690
 30
0.0
  0
SPLINE
  5
255
100
AcDbEntity
  8
0
 62
7
100
AcDbSpline
 70
8
 71
3
 72
8
 73
4
 74
0
 40
0
 40
0
 40
0
 40
0
 40
1
 40
1
 40
1
 40
1
 10
432.104480
 20
458.924690
 30
0.0
 10
434.166610
 20
456.646060
 30
0.0
 10
439.193460
 20
456.554270
 30
0.0
 10
441.620750
 20
458.750940
 30
0.0
  0
LWPOLYLINE
  5
256
100
AcDbEntity
  8
0
 62
7
100
AcDbPolyline
 90
1
 70
1
 10
425.940180
 20
458.080890
 30
0.0
  0
SPLINE
  5
257
100
AcDbEntity
  8
0
 62
7
100
AcDbSpline
 70
8
 71
3
 72
8
 73
4
 74
0
 40
0
 40
0
 40
0
 40
0
 40
1
 40
1
 40
1
 40
1
 10
433.020920
 20
459.667380
 30
0.0
 10
429.804440
 20
462.883860
 30
0.0
 10
432.233810
 20
468.095950
 30
0.0
 10
436.949490
 20
468.095950
 30
0.0
  0
SPLINE
  5
258
100
AcDbEntity
  8
0
 62
7
100
AcDbSpline
 70
8
 71
3
 72
8
 73
4
 74
0
 40
0
 40
0
 40
0
 40
0
 40
1
 40
1
 40
1
 40
1
 10
436.949490
 20
468.095950
 30
0.0
 10
441.806980
 20
468.095950
 30
0.0
 10
444.095010
 20
462.895100
 30
0.0
 10
440.620750
 20
459.750940
 30
0.0
  0
SPLINE
  5
259
100
AcDbEntity
  8
0
 62
7
100
AcDbSpline
 70
8
 71
3
 72
8
 73
4
 74
0
 40
0
 40
0
 40
0
 40
0
 40
1
 40
1
 40
1
 40
1
 10
440.620750
 20
459.750940
 30
0.0
 10
438.316050
 20
457.665220
 30
0.0
 10
435.058890
 20
457.629410
 30
0.0
 10
433.020920
 20
459.667340
 30
0.0
  0
LWPOLYLINE
  5
25a
100
AcDbEntity
  8
0
 62
7
100
AcDbPolyline
 90
1
 70
1
 10
441.620750
 20
458.750940
 30
0.0
  0
LWPOLYLINE
  5
25b
100
AcDbEntity
  8
0
 62
7
100
AcDbPolyline
 90
1
 70
1
 10
433.020920
 20
459.667340
 30
0.0
  0
SPLINE
  5
25c
100
AcDbEntity
  8
0
 62
7
100
AcDbSpline
 70
8
 71
3
 72
8
 73
4
 74
0
 40
0
 40
0
 40
0
 40
0
 40
1
 40
1
 40
1
 40
1
 10
458.449490
 20
461.270260
 30
0.0
 10
458.449490
 20
458.974390
 30
0.0
 10
458.899490
 20
457.095950
 30
0.0
 10
459.449490
 20
457.095950
 30
0.0
  0
SPLINE
  5
25d
100
AcDbEntity
  8
0
 62
7
100
AcDbSpline
 70
8
 71
3
 72
8
 73
4
 74
0
 40
0
 40
0
 40
0
 40
0
 40
1
 40
1
 40
1
 40
1
 10
459.449490
 20
457.095950
 30
0.0
 10
460.008560
 20
457.095950
 30
0.0
 10
460.449490
 20
459.828010
 30
0.0
 10
460.449490
 20
463.292120
 30
0.0
  0
LWPOLYLINE
  5
25e
100
AcDbEntity
  8
0
 62
7
100
AcDbPolyline
 90
5
 70
0
 10
451.868520
 20
463.197720
 30
0.0
 10
453.787550
 20
461.064910
 30
0.0
 10
456.118520
 20
463.254750
 30
0.0
 10
458.449490
 20
465.444580
 30
0.0
 10
458.449490
 20
461.270260
 30
0.0
  0
SPLINE
  5
25f
100
AcDbEntity
  8
0
 62
7
100
AcDbSpline
 70
8
 71
3
 72
8
 73
4
 74
0
 40
0
 40
0
 40
0
 40
0
 40
1
 40
1
 40
1
 40
1
 10
451.363360
 20
465.998580
 30
0.0
 10
450.103870
 20
467.702130
 30
0.0
 10
448.820500
 20
469.096770
 30
0.0
 10
448.511430
 20
469.097770
 30
0.0
  0
SPLINE
  5
260
100
AcDbEntity
  8
0
 62
7
100
AcDbSpline
 70
8
 71
3
 72
8
 73
4
 74
0
 40
0
 40
0
 40
0
 40
0
 40
1
 40
1
 40
1
 40
1
 10
448.511430
 20
469.097770
 30
0.0
 10
448.202360
 20
469.098770
 30
0.0
 10
448.152540
 20
466.286270
 30
0.0
 10
448.400720
 20
462.847770
 30
0.0
  0
SPLINE
  5
261
100
AcDbEntity
  8
0
 62
7
100
AcDbSpline
 70
8
 71
3
 72
8
 73
4
 74
0
 40
0
 40
0
 40
0
 40
0
 40
1
 40
1
 40
1
 40
1
 10
448.400720
 20
462.847770
 30
0.0
 10
448.841710
 20
456.737780
 30
0.0
 10
448.864400
 20
456.695030
 30
0.0
 10
449.400720
 20
460.963230
 30
0.0
  0
LWPOLYLINE
  5
262
100
AcDbEntity
  8
0
 62
7
100
AcDbPolyline
 90
5
 70
0
 10
460.449490
 20
463.292120
 30
0.0
 10
460.449490
 20
469.488280
 30
0.0
 10
457.051420
 20
466.194740
 30
0.0
 10
453.653350
 20
462.901200
 30
0.0
 10
451.363360
 20
465.998580
 30
0.0
  0
SPLINE
  5
263
100
AcDbEntity
  8
0
 62
7
100
AcDbSpline
 70
8
 71
3
 72
8
 73
4
 74
0
 40
0
 40
0
 40
0
 40
0
 40
1
 40
1
 40
1
 40
1
 10
470.699490
 20
457.828160
 30
0.0
 10
467.360730
 20
458.128870
 30
0.0
 10
466.449490
 20
458.609570
 30
0.0
 10
466.449490
 20
460.070110
 30
0.0
  0
SPLINE
  5
264
100
AcDbEntity
  8
0
 62
7
100
AcDbSpline
 70
8
 71
3
 72
8
 73
4
 74
0
 40
0
 40
0
 40
0
 40
0
 40
1
 40
1
 40
1
 40
1
 10
466.449490
 20
460.070110
 30
0.0
 10
466.449490
 20
461.188140
 30
0.0
 10
467.545750
 20
462.329670
 30
0.0
 10
469.199490
 20
462.933670
 30
0.0
  0
LWPOLYLINE
  5
265
100
AcDbEntity
  8
0
 62
7
100
AcDbPolyline
 90
3
 70
0
 10
449.400720
 20
460.963230
 30
0.0
 10
449.949490
 20
465.330520
 30
0.0
 10
451.868520
 20
463.197720
 30
0.0
  0
SPLINE
  5
266
100
AcDbEntity
  8
0
 62
7
100
AcDbSpline
 70
8
 71
3
 72
8
 73
4
 74
0
 40
0
 40
0
 40
0
 40
0
 40
1
 40
1
 40
1
 40
1
 10
469.126170
 20
464.016960
 30
0.0
 10
464.898440
 20
464.135180
 30
0.0
 10
465.940770
 20
467.413090
 30
0.0
 10
470.460840
 20
468.214270
 30
0.0
  0
LWPOLYLINE
  5
267
100
AcDbEntity
  8
0
 62
7
100
AcDbPolyline
 90
3
 70
0
 10
469.199490
 20
462.933670
 30
0.0
 10
471.949490
 20
463.938060
 30
0.0
 10
469.126170
 20
464.016960
 30
0.0
  0
SPLINE
  5
268
100
AcDbEntity
  8
0
 62
7
100
AcDbSpline
 70
8
 71
3
 72
8
 73
4
 74
0
 40
0
 40
0
 40
0
 40
0
 40
1
 40
1
 40
1
 40
1
 10
482.855400
 20
462.095950
 30
0.0
 10
484.309580
 20
462.095950
 30
0.0
 10
485.538820
 20
461.195310
 30
0.0
 10
486.267540
 20
459.595950
 30
0.0
  0
SPLINE
  5
269
100
AcDbEntity
  8
0
 62
7
100
AcDbSpline
 70
8
 71
3
 72
8
 73
4
 74
0
 40
0
 40
0
 40
0
 40
0
 40
1
 40
1
 40
1
 40
1
 10
486.267540
 20
459.595950
 30
0.0
 10
486.894030
 20
458.220950
 30
0.0
 10
487.936000
 20
457.095950
 30
0.0
 10
488.583040
 20
457.095950
 30
0.0
  0
SPLINE
  5
26a
100
AcDbEntity
  8
0
 62
7
100
AcDbSpline
 70
8
 71
3
 72
8
 73
4
 74
0
 40
0
 40
0
 40
0
 40
0
 40
1
 40
1
 40
1
 40
1
 10
488.583040
 20
457.095950
 30
0.0
 10
489.273760
 20
457.095950
 30
0.0
 10
489.012190
 20
457.921680
 30
0.0
 10
487.949490
 20
459.095950
 30
0.0
  0
SPLINE
  5
26b
100
AcDbEntity
  8
0
 62
7
100
AcDbSpline
 70
8
 71
3
 72
8
 73
4
 74
0
 40
0
 40
0
 40
0
 40
0
 40
1
 40
1
 40
1
 40
1
 10
487.949490
 20
459.095950
 30
0.0
 10
486.201960
 20
461.026950
 30
0.0
 10
486.203780
 20
461.166970
 30
0.0
 10
488.002490
 20
463.154490
 30
0.0
  0
SPLINE
  5
26c
100
AcDbEntity
  8
0
 62
7
100
AcDbSpline
 70
8
 71
3
 72
8
 73
4
 74
0
 40
0
 40
0
 40
0
 40
0
 40
1
 40
1
 40
1
 40
1
 10
488.002490
 20
463.154490
 30
0.0
 10
490.693930
 20
466.128490
 30
0.0
 10
488.867060
 20
468.512830
 30
0.0
 10
483.597680
 20
468.903450
 30
0.0
  0
LWPOLYLINE
  5
26d
100
AcDbEntity
  8
0
 62
7
100
AcDbPolyline
 90
9
 70
0
 10
470.460840
 20
468.214270
 30
0.0
 10
473.949490
 20
468.832670
 30
0.0
 10
469.699490
 20
468.964310
 30
0.0
 10
465.449490
 20
469.095950
 30
0.0
 10
465.449490
 20
463.095950
 30
0.0
 10
465.449490
 20
457.095950
 30
0.0
 10
470.199490
 20
457.270660
 30
0.0
 10
474.949490
 20
457.445360
 30
0.0
 10
470.699490
 20
457.828160
 30
0.0
  0
SPLINE
  5
26e
100
AcDbEntity
  8
0
 62
7
100
AcDbSpline
 70
8
 71
3
 72
8
 73
4
 74
0
 40
0
 40
0
 40
0
 40
0
 40
1
 40
1
 40
1
 40
1
 10
479.599320
 20
462.903450
 30
0.0
 10
479.681720
 20
459.434320
 30
0.0
 10
479.936620
 20
457.833450
 30
0.0
 10
480.165740
 20
459.345950
 30
0.0
  0
SPLINE
  5
26f
100
AcDbEntity
  8
0
 62
7
100
AcDbSpline
 70
8
 71
3
 72
8
 73
4
 74
0
 40
0
 40
0
 40
0
 40
0
 40
1
 40
1
 40
1
 40
1
 10
480.165740
 20
459.345950
 30
0.0
 10
480.479520
 20
461.417220
 30
0.0
 10
481.143350
 20
462.095950
 30
0.0
 10
482.855400
 20
462.095950
 30
0.0
  0
LWPOLYLINE
  5
270
100
AcDbEntity
  8
0
 62
7
100
AcDbPolyline
 90
3
 70
0
 10
483.597680
 20
468.903450
 30
0.0
 10
479.449490
 20
469.210950
 30
0.0
 10
479.599320
 20
462.903450
 30
0.0
  0
SPLINE
  5
271
100
AcDbEntity
  8
0
 62
7
100
AcDbSpline
 70
8
 71
3
 72
8
 73
4
 74
0
 40
0
 40
0
 40
0
 40
0
 40
1
 40
1
 40
1
 40
1
 10
480.449490
 20
465.595950
 30
0.0
 10
480.449490
 20
467.771410
 30
0.0
 10
480.889960
 20
468.095950
 30
0.0
 10
483.842500
 20
468.095950
 30
0.0
  0
SPLINE
  5
272
100
AcDbEntity
  8
0
 62
7
100
AcDbSpline
 70
8
 71
3
 72
8
 73
4
 74
0
 40
0
 40
0
 40
0
 40
0
 40
1
 40
1
 40
1
 40
1
 10
483.842500
 20
468.095950
 30
0.0
 10
487.428710
 20
468.095950
 30
0.0
 10
489.101120
 20
466.147580
 30
0.0
 10
487.171350
 20
464.217810
 30
0.0
  0
SPLINE
  5
273
100
AcDbEntity
  8
0
 62
7
100
AcDbSpline
 70
8
 71
3
 72
8
 73
4
 74
0
 40
0
 40
0
 40
0
 40
0
 40
1
 40
1
 40
1
 40
1
 10
487.171350
 20
464.217810
 30
0.0
 10
486.554320
 20
463.600780
 30
0.0
 10
484.789490
 20
463.095950
 30
0.0
 10
483.249490
 20
463.095950
 30
0.0
  0
SPLINE
  5
274
100
AcDbEntity
  8
0
 62
7
100
AcDbSpline
 70
8
 71
3
 72
8
 73
4
 74
0
 40
0
 40
0
 40
0
 40
0
 40
1
 40
1
 40
1
 40
1
 10
483.249490
 20
463.095950
 30
0.0
 10
480.929490
 20
463.095950
 30
0.0
 10
480.449490
 20
463.524520
 30
0.0
 10
480.449490
 20
465.595950
 30
0.0
  0
LWPOLYLINE
  5
275
100
AcDbEntity
  8
0
 62
7
100
AcDbPolyline
 90
1
 70
1
 10
482.855400
 20
462.095950
 30
0.0
  0
SPLINE
  5
276
100
AcDbEntity
  8
0
 62
7
100
AcDbSpline
 70
8
 71
3
 72
8
 73
4
 74
0
 40
0
 40
0
 40
0
 40
0
 40
1
 40
1
 40
1
 40
1
 10
503.912880
 20
458.036720
 30
0.0
 10
504.255330
 20
458.590810
 30
0.0
 10
503.118070
 20
458.754150
 30
0.0
 10
501.145930
 20
458.434110
 30
0.0
  0
SPLINE
  5
277
100
AcDbEntity
  8
0
 62
7
100
AcDbSpline
 70
8
 71
3
 72
8
 73
4
 74
0
 40
0
 40
0
 40
0
 40
0
 40
1
 40
1
 40
1
 40
1
 10
501.145930
 20
458.434110
 30
0.0
 10
498.789700
 20
458.051750
 30
0.0
 10
497.301520
 20
458.386810
 30
0.0
 10
496.123520
 20
459.564780
 30
0.0
  0
SPLINE
  5
278
100
AcDbEntity
  8
0
 62
7
100
AcDbSpline
 70
8
 71
3
 72
8
 73
4
 74
0
 40
0
 40
0
 40
0
 40
0
 40
1
 40
1
 40
1
 40
1
 10
496.123520
 20
459.564780
 30
0.0
 10
492.232400
 20
463.455900
 30
0.0
 10
495.527540
 20
468.669520
 30
0.0
 10
501.287210
 20
467.734860
 30
0.0
  0
SPLINE
  5
279
100
AcDbEntity
  8
0
 62
7
100
AcDbSpline
 70
8
 71
3
 72
8
 73
4
 74
0
 40
0
 40
0
 40
0
 40
0
 40
1
 40
1
 40
1
 40
1
 10
501.287210
 20
467.734860
 30
0.0
 10
503.803180
 20
467.326570
 30
0.0
 10
504.473110
 20
467.472330
 30
0.0
 10
503.688180
 20
468.257260
 30
0.0
  0
SPLINE
  5
27a
100
AcDbEntity
  8
0
 62
7
100
AcDbSpline
 70
8
 71
3
 72
8
 73
4
 74
0
 40
0
 40
0
 40
0
 40
0
 40
1
 40
1
 40
1
 40
1
 10
503.688180
 20
468.257260
 30
0.0
 10
502.022970
 20
469.922470
 30
0.0
 10
497.613030
 20
469.553930
 30
0.0
 10
495.416350
 20
467.565960
 30
0.0
  0
SPLINE
  5
27b
100
AcDbEntity
  8
0
 62
7
100
AcDbSpline
 70
8
 71
3
 72
8
 73
4
 74
0
 40
0
 40
0
 40
0
 40
0
 40
1
 40
1
 40
1
 40
1
 10
495.416350
 20
467.565960
 30
0.0
 10
493.016200
 20
465.393850
 30
0.0
 10
492.871760
 20
461.391820
 30
0.0
 10
495.104480
 20
458.924690
 30
0.0
  0
SPLINE
  5
27c
100
AcDbEntity
  8
0
 62
7
100
AcDbSpline
 70
8
 71
3
 72
8
 73
4
 74
0
 40
0
 40
0
 40
0
 40
0
 40
1
 40
1
 40
1
 40
1
 10
495.104480
 20
458.924690
 30
0.0
 10
496.849440
 20
456.996530
 30
0.0
 10
502.893440
 20
456.387230
 30
0.0
 10
503.912880
 20
458.036720
 30
0.0
  0
LWPOLYLINE
  5
27d
100
AcDbEntity
  8
0
 62
7
100
AcDbPolyline
 90
1
 70
1
 10
480.449490
 20
465.595950
 30
0.0
  0
SPLINE
  5
27e
100
AcDbEntity
  8
0
 62
7
100
AcDbSpline
 70
8
 71
3
 72
8
 73
4
 74
0
 40
0
 40
0
 40
0
 40
0
 40
1
 40
1
 40
1
 40
1
 10
510.449490
 20
463.095950
 30
0.0
 10
510.449490
 20
466.429280
 30
0.0
 10
510.005050
 20
469.095950
 30
0.0
 10
509.449490
 20
469.095950
 30
0.0
  0
SPLINE
  5
27f
100
AcDbEntity
  8
0
 62
7
100
AcDbSpline
 70
8
 71
3
 72
8
 73
4
 74
0
 40
0
 40
0
 40
0
 40
0
 40
1
 40
1
 40
1
 40
1
 10
509.449490
 20
469.095950
 30
0.0
 10
508.893930
 20
469.095950
 30
0.0
 10
508.449490
 20
466.429280
 30
0.0
 10
508.449490
 20
463.095950
 30
0.0
  0
SPLINE
  5
280
100
AcDbEntity
  8
0
 62
7
100
AcDbSpline
 70
8
 71
3
 72
8
 73
4
 74
0
 40
0
 40
0
 40
0
 40
0
 40
1
 40
1
 40
1
 40
1
 10
508.449490
 20
463.095950
 30
0.0
 10
508.449490
 20
459.762620
 30
0.0
 10
508.893930
 20
457.095950
 30
0.0
 10
509.449490
 20
457.095950
 30
0.0
  0
SPLINE
  5
281
100
AcDbEntity
  8
0
 62
7
100
AcDbSpline
 70
8
 71
3
 72
8
 73
4
 74
0
 40
0
 40
0
 40
0
 40
0
 40
1
 40
1
 40
1
 40
1
 10
509.449490
 20
457.095950
 30
0.0
 10
510.005050
 20
457.095950
 30
0.0
 10
510.449490
 20
459.762620
 30
0.0
 10
510.449490
 20
463.095950
 30
0.0
  0
LWPOLYLINE
  5
282
100
AcDbEntity
  8
0
 62
7
100
AcDbPolyline
 90
1
 70
1
 10
503.912880
 20
458.036720
 30
0.0
  0
SPLINE
  5
283
100
AcDbEntity
  8
0
 62
7
100
AcDbSpline
 70
8
 71
3
 72
8
 73
4
 74
0
 40
0
 40
0
 40
0
 40
0
 40
1
 40
1
 40
1
 40
1
 10
523.527610
 20
458.279230
 30
0.0
 10
524.584650
 20
457.619110
 30
0.0
 10
525.449490
 20
457.253440
 30
0.0
 10
525.449490
 20
457.466630
 30
0.0
  0
SPLINE
  5
284
100
AcDbEntity
  8
0
 62
7
100
AcDbSpline
 70
8
 71
3
 72
8
 73
4
 74
0
 40
0
 40
0
 40
0
 40
0
 40
1
 40
1
 40
1
 40
1
 10
525.449490
 20
457.466630
 30
0.0
 10
525.449490
 20
458.672110
 30
0.0
 10
520.182800
 20
469.095950
 30
0.0
 10
519.573730
 20
469.095950
 30
0.0
  0
SPLINE
  5
285
100
AcDbEntity
  8
0
 62
7
100
AcDbSpline
 70
8
 71
3
 72
8
 73
4
 74
0
 40
0
 40
0
 40
0
 40
0
 40
1
 40
1
 40
1
 40
1
 10
519.573730
 20
469.095950
 30
0.0
 10
519.172700
 20
469.095950
 30
0.0
 10
517.968180
 20
466.746040
 30
0.0
 10
516.897030
 20
463.873920
 30
0.0
  0
SPLINE
  5
286
100
AcDbEntity
  8
0
 62
7
100
AcDbSpline
 70
8
 71
3
 72
8
 73
4
 74
0
 40
0
 40
0
 40
0
 40
0
 40
1
 40
1
 40
1
 40
1
 10
516.897030
 20
463.873920
 30
0.0
 10
515.825880
 20
461.001800
 30
0.0
 10
514.810860
 20
458.335900
 30
0.0
 10
514.641420
 20
457.949700
 30
0.0
  0
SPLINE
  5
287
100
AcDbEntity
  8
0
 62
7
100
AcDbSpline
 70
8
 71
3
 72
8
 73
4
 74
0
 40
0
 40
0
 40
0
 40
0
 40
1
 40
1
 40
1
 40
1
 10
514.641420
 20
457.949700
 30
0.0
 10
514.471970
 20
457.563490
 30
0.0
 10
515.969630
 20
457.749700
 30
0.0
 10
517.969540
 20
458.363480
 30
0.0
  0
SPLINE
  5
288
100
AcDbEntity
  8
0
 62
7
100
AcDbSpline
 70
8
 71
3
 72
8
 73
4
 74
0
 40
0
 40
0
 40
0
 40
0
 40
1
 40
1
 40
1
 40
1
 10
517.969540
 20
458.363480
 30
0.0
 10
520.716460
 20
459.206540
 30
0.0
 10
522.075750
 20
459.185940
 30
0.0
 10
523.527610
 20
458.279280
 30
0.0
  0
LWPOLYLINE
  5
289
100
AcDbEntity
  8
0
 62
7
100
AcDbPolyline
 90
1
 70
1
 10
510.449490
 20
463.095950
 30
0.0
  0
SPLINE
  5
28a
100
AcDbEntity
  8
0
 62
7
100
AcDbSpline
 70
8
 71
3
 72
8
 73
4
 74
0
 40
0
 40
0
 40
0
 40
0
 40
1
 40
1
 40
1
 40
1
 10
517.464800
 20
461.345950
 30
0.0
 10
517.472800
 20
462.033450
 30
0.0
 10
517.931780
 20
463.270950
 30
0.0
 10
518.483810
 20
464.095950
 30
0.0
  0
SPLINE
  5
28b
100
AcDbEntity
  8
0
 62
7
100
AcDbSpline
 70
8
 71
3
 72
8
 73
4
 74
0
 40
0
 40
0
 40
0
 40
0
 40
1
 40
1
 40
1
 40
1
 10
518.483810
 20
464.095950
 30
0.0
 10
519.352550
 20
465.394280
 30
0.0
 10
519.686610
 20
465.334970
 30
0.0
 10
520.968490
 20
463.654820
 30
0.0
  0
SPLINE
  5
28c
100
AcDbEntity
  8
0
 62
7
100
AcDbSpline
 70
8
 71
3
 72
8
 73
4
 74
0
 40
0
 40
0
 40
0
 40
0
 40
1
 40
1
 40
1
 40
1
 10
520.968490
 20
463.654820
 30
0.0
 10
523.056500
 20
460.918080
 30
0.0
 10
522.821100
 20
460.095950
 30
0.0
 10
519.949490
 20
460.095950
 30
0.0
  0
SPLINE
  5
28d
100
AcDbEntity
  8
0
 62
7
100
AcDbSpline
 70
8
 71
3
 72
8
 73
4
 74
0
 40
0
 40
0
 40
0
 40
0
 40
1
 40
1
 40
1
 40
1
 10
519.949490
 20
460.095950
 30
0.0
 10
518.574490
 20
460.095950
 30
0.0
 10
517.456380
 20
460.658450
 30
0.0
 10
517.464800
 20
461.345950
 30
0.0
  0
LWPOLYLINE
  5
28e
100
AcDbEntity
  8
0
 62
7
100
AcDbPolyline
 90
1
 70
1
 10
523.527610
 20
458.279280
 30
0.0
  0
SPLINE
  5
28f
100
AcDbEntity
  8
0
 62
7
100
AcDbSpline
 70
8
 71
3
 72
8
 73
4
 74
0
 40
0
 40
0
 40
0
 40
0
 40
1
 40
1
 40
1
 40
1
 10
535.199490
 20
457.824420
 30
0.0
 10
533.136990
 20
458.040160
 30
0.0
 10
531.409390
 20
458.752020
 30
0.0
 10
531.360380
 20
459.406320
 30
0.0
  0
SPLINE
  5
290
100
AcDbEntity
  8
0
 62
7
100
AcDbSpline
 70
8
 71
3
 72
8
 73
4
 74
0
 40
0
 40
0
 40
0
 40
0
 40
1
 40
1
 40
1
 40
1
 10
531.360380
 20
459.406320
 30
0.0
 10
531.311380
 20
460.060610
 30
0.0
 10
531.255880
 20
462.291190
 30
0.0
 10
531.237070
 20
464.363140
 30
0.0
  0
SPLINE
  5
291
100
AcDbEntity
  8
0
 62
7
100
AcDbSpline
 70
8
 71
3
 72
8
 73
4
 74
0
 40
0
 40
0
 40
0
 40
0
 40
1
 40
1
 40
1
 40
1
 10
531.237070
 20
464.363140
 30
0.0
 10
531.218270
 20
466.435100
 30
0.0
 10
530.808370
 20
468.374150
 30
0.0
 10
530.326180
 20
468.672160
 30
0.0
  0
SPLINE
  5
292
100
AcDbEntity
  8
0
 62
7
100
AcDbSpline
 70
8
 71
3
 72
8
 73
4
 74
0
 40
0
 40
0
 40
0
 40
0
 40
1
 40
1
 40
1
 40
1
 10
530.326180
 20
468.672160
 30
0.0
 10
529.844000
 20
468.970160
 30
0.0
 10
529.449490
 20
466.487430
 30
0.0
 10
529.449490
 20
463.154970
 30
0.0
  0
LWPOLYLINE
  5
293
100
AcDbEntity
  8
0
 62
7
100
AcDbPolyline
 90
1
 70
1
 10
517.464800
 20
461.345950
 30
0.0
  0
SPLINE
  5
294
100
AcDbEntity
  8
0
 62
7
100
AcDbSpline
 70
8
 71
3
 72
8
 73
4
 74
0
 40
0
 40
0
 40
0
 40
0
 40
1
 40
1
 40
1
 40
1
 10
534.199490
 20
457.264050
 30
0.0
 10
538.551310
 20
457.418060
 30
0.0
 10
538.635140
 20
457.465040
 30
0.0
 10
535.199490
 20
457.824420
 30
0.0
  0
LWPOLYLINE
  5
295
100
AcDbEntity
  8
0
 62
7
100
AcDbPolyline
 90
3
 70
0
 10
529.449490
 20
463.154970
 30
0.0
 10
529.449490
 20
457.095950
 30
0.0
 10
534.199490
 20
457.264050
 30
0.0
  0
LWPOLYLINE
  5
296
100
AcDbEntity
  8
0
 62
7
100
AcDbPolyline
 90
1
 70
1
 10
535.199490
 20
457.824420
 30
0.0
  0
SPLINE
  5
297
100
AcDbEntity
  8
0
 62
7
100
AcDbSpline
 70
8
 71
3
 72
8
 73
4
 74
0
 40
0
 40
0
 40
0
 40
0
 40
1
 40
1
 40
1
 40
1
 10
555.026550
 20
462.902510
 30
0.0
 10
557.299460
 20
466.147530
 30
0.0
 10
558.289470
 20
465.595880
 30
0.0
 10
558.717280
 20
460.845950
 30
0.0
  0
SPLINE
  5
298
100
AcDbEntity
  8
0
 62
7
100
AcDbSpline
 70
8
 71
3
 72
8
 73
4
 74
0
 40
0
 40
0
 40
0
 40
0
 40
1
 40
1
 40
1
 40
1
 10
558.717280
 20
460.845950
 30
0.0
 10
559.008760
 20
457.609800
 30
0.0
 10
559.141750
 20
458.133700
 30
0.0
 10
559.274780
 20
463.042120
 30
0.0
  0
LWPOLYLINE
  5
299
100
AcDbEntity
  8
0
 62
7
100
AcDbPolyline
 90
3
 70
0
 10
551.032970
 20
463.017530
 30
0.0
 10
553.490210
 20
460.709070
 30
0.0
 10
555.026550
 20
462.902510
 30
0.0
  0
SPLINE
  5
29a
100
AcDbEntity
  8
0
 62
7
100
AcDbSpline
 70
8
 71
3
 72
8
 73
4
 74
0
 40
0
 40
0
 40
0
 40
0
 40
1
 40
1
 40
1
 40
1
 10
550.363360
 20
465.998580
 30
0.0
 10
549.103870
 20
467.702130
 30
0.0
 10
547.820500
 20
469.096770
 30
0.0
 10
547.511430
 20
469.097770
 30
0.0
  0
SPLINE
  5
29b
100
AcDbEntity
  8
0
 62
7
100
AcDbSpline
 70
8
 71
3
 72
8
 73
4
 74
0
 40
0
 40
0
 40
0
 40
0
 40
1
 40
1
 40
1
 40
1
 10
547.511430
 20
469.097770
 30
0.0
 10
547.202360
 20
469.098770
 30
0.0
 10
547.163530
 20
466.286270
 30
0.0
 10
547.425130
 20
462.847770
 30
0.0
  0
SPLINE
  5
29c
100
AcDbEntity
  8
0
 62
7
100
AcDbSpline
 70
8
 71
3
 72
8
 73
4
 74
0
 40
0
 40
0
 40
0
 40
0
 40
1
 40
1
 40
1
 40
1
 10
547.425130
 20
462.847770
 30
0.0
 10
547.854790
 20
457.200220
 30
0.0
 10
547.933380
 20
457.017850
 30
0.0
 10
548.238250
 20
460.960970
 30
0.0
  0
LWPOLYLINE
  5
29d
100
AcDbEntity
  8
0
 62
7
100
AcDbPolyline
 90
5
 70
0
 10
559.274780
 20
463.042120
 30
0.0
 10
559.449490
 20
469.488280
 30
0.0
 10
556.051420
 20
466.194740
 30
0.0
 10
552.653350
 20
462.901200
 30
0.0
 10
550.363360
 20
465.998580
 30
0.0
  0
SPLINE
  5
29e
100
AcDbEntity
  8
0
 62
7
100
AcDbSpline
 70
8
 71
3
 72
8
 73
4
 74
0
 40
0
 40
0
 40
0
 40
0
 40
1
 40
1
 40
1
 40
1
 10
570.027660
 20
457.987860
 30
0.0
 10
564.977190
 20
458.770950
 30
0.0
 10
564.372690
 20
460.727280
 30
0.0
 10
568.612290
 20
462.568420
 30
0.0
  0
LWPOLYLINE
  5
29f
100
AcDbEntity
  8
0
 62
7
100
AcDbPolyline
 90
3
 70
0
 10
548.238250
 20
460.960970
 30
0.0
 10
548.575730
 20
465.325990
 30
0.0
 10
551.032970
 20
463.017530
 30
0.0
  0
SPLINE
  5
2a0
100
AcDbEntity
  8
0
 62
7
100
AcDbSpline
 70
8
 71
3
 72
8
 73
4
 74
0
 40
0
 40
0
 40
0
 40
0
 40
1
 40
1
 40
1
 40
1
 10
568.626170
 20
464.056770
 30
0.0
 10
563.946000
 20
464.111870
 30
0.0
 10
564.596510
 20
467.352070
 30
0.0
 10
569.460840
 20
468.214270
 30
0.0
  0
LWPOLYLINE
  5
2a1
100
AcDbEntity
  8
0
 62
7
100
AcDbPolyline
 90
3
 70
0
 10
568.612290
 20
462.568420
 30
0.0
 10
571.949490
 20
464.017670
 30
0.0
 10
568.626170
 20
464.056770
 30
0.0
  0
LWPOLYLINE
  5
2a2
100
AcDbEntity
  8
0
 62
7
100
AcDbPolyline
 90
9
 70
0
 10
569.460840
 20
468.214270
 30
0.0
 10
572.949490
 20
468.832670
 30
0.0
 10
568.699490
 20
468.964310
 30
0.0
 10
564.449490
 20
469.095950
 30
0.0
 10
564.449490
 20
463.095950
 30
0.0
 10
564.449490
 20
457.095950
 30
0.0
 10
569.199490
 20
457.237860
 30
0.0
 10
573.949490
 20
457.379760
 30
0.0
 10
570.027660
 20
457.987860
 30
0.0
  0
SPLINE
  5
2a3
100
AcDbEntity
  8
0
 62
7
100
AcDbSpline
 70
8
 71
3
 72
8
 73
4
 74
0
 40
0
 40
0
 40
0
 40
0
 40
1
 40
1
 40
1
 40
1
 10
585.045030
 20
459.779780
 30
0.0
 10
588.205240
 20
456.105810
 30
0.0
 10
589.087050
 20
456.391830
 30
0.0
 10
586.368860
 20
460.209180
 30
0.0
  0
SPLINE
  5
2a4
100
AcDbEntity
  8
0
 62
7
100
AcDbSpline
 70
8
 71
3
 72
8
 73
4
 74
0
 40
0
 40
0
 40
0
 40
0
 40
1
 40
1
 40
1
 40
1
 10
586.368860
 20
460.209180
 30
0.0
 10
584.196150
 20
463.260470
 30
0.0
 10
584.187960
 20
463.384820
 30
0.0
 10
585.957080
 20
466.459180
 30
0.0
  0
LWPOLYLINE
  5
2a5
100
AcDbEntity
  8
0
 62
7
100
AcDbPolyline
 90
3
 70
0
 10
580.977980
 20
459.779780
 30
0.0
 10
582.736490
 20
462.463610
 30
0.0
 10
585.045030
 20
459.779780
 30
0.0
  0
SPLINE
  5
2a6
100
AcDbEntity
  8
0
 62
7
100
AcDbSpline
 70
8
 71
3
 72
8
 73
4
 74
0
 40
0
 40
0
 40
0
 40
0
 40
1
 40
1
 40
1
 40
1
 10
581.499800
 20
467.001950
 30
0.0
 10
580.883430
 20
468.153650
 30
0.0
 10
579.965880
 20
469.095950
 30
0.0
 10
579.460820
 20
469.095950
 30
0.0
  0
SPLINE
  5
2a7
100
AcDbEntity
  8
0
 62
7
100
AcDbSpline
 70
8
 71
3
 72
8
 73
4
 74
0
 40
0
 40
0
 40
0
 40
0
 40
1
 40
1
 40
1
 40
1
 10
579.460820
 20
469.095950
 30
0.0
 10
578.955750
 20
469.095950
 30
0.0
 10
579.301530
 20
467.773440
 30
0.0
 10
580.229220
 20
466.157030
 30
0.0
  0
SPLINE
  5
2a8
100
AcDbEntity
  8
0
 62
7
100
AcDbSpline
 70
8
 71
3
 72
8
 73
4
 74
0
 40
0
 40
0
 40
0
 40
0
 40
1
 40
1
 40
1
 40
1
 10
580.229220
 20
466.157030
 30
0.0
 10
581.852230
 20
463.329100
 30
0.0
 10
581.830460
 20
463.102510
 30
0.0
 10
579.652770
 20
460.157030
 30
0.0
  0
SPLINE
  5
2a9
100
AcDbEntity
  8
0
 62
7
100
AcDbSpline
 70
8
 71
3
 72
8
 73
4
 74
0
 40
0
 40
0
 40
0
 40
0
 40
1
 40
1
 40
1
 40
1
 10
579.652770
 20
460.157030
 30
0.0
 10
578.408040
 20
458.473440
 30
0.0
 10
577.801330
 20
457.095950
 30
0.0
 10
578.304540
 20
457.095950
 30
0.0
  0
SPLINE
  5
2aa
100
AcDbEntity
  8
0
 62
7
100
AcDbSpline
 70
8
 71
3
 72
8
 73
4
 74
0
 40
0
 40
0
 40
0
 40
0
 40
1
 40
1
 40
1
 40
1
 10
578.304540
 20
457.095950
 30
0.0
 10
578.807750
 20
457.095950
 30
0.0
 10
580.010800
 20
458.303670
 30
0.0
 10
580.977980
 20
459.779780
 30
0.0
  0
LWPOLYLINE
  5
2ab
100
AcDbEntity
  8
0
 62
7
100
AcDbPolyline
 90
5
 70
0
 10
585.957080
 20
466.459180
 30
0.0
 10
587.762110
 20
469.595950
 30
0.0
 10
585.191290
 20
467.251950
 30
0.0
 10
582.620470
 20
464.907950
 30
0.0
 10
581.499800
 20
467.001950
 30
0.0
  0
SPLINE
  5
2ac
100
AcDbEntity
  8
0
 62
7
100
AcDbSpline
 70
8
 71
3
 72
8
 73
4
 74
0
 40
0
 40
0
 40
0
 40
0
 40
1
 40
1
 40
1
 40
1
 10
594.449490
 20
463.095950
 30
0.0
 10
594.449490
 20
466.429280
 30
0.0
 10
594.005050
 20
469.095950
 30
0.0
 10
593.449490
 20
469.095950
 30
0.0
  0
SPLINE
  5
2ad
100
AcDbEntity
  8
0
 62
7
100
AcDbSpline
 70
8
 71
3
 72
8
 73
4
 74
0
 40
0
 40
0
 40
0
 40
0
 40
1
 40
1
 40
1
 40
1
 10
593.449490
 20
469.095950
 30
0.0
 10
592.893930
 20
469.095950
 30
0.0
 10
592.449490
 20
466.429280
 30
0.0
 10
592.449490
 20
463.095950
 30
0.0
  0
SPLINE
  5
2ae
100
AcDbEntity
  8
0
 62
7
100
AcDbSpline
 70
8
 71
3
 72
8
 73
4
 74
0
 40
0
 40
0
 40
0
 40
0
 40
1
 40
1
 40
1
 40
1
 10
592.449490
 20
463.095950
 30
0.0
 10
592.449490
 20
459.762620
 30
0.0
 10
592.893930
 20
457.095950
 30
0.0
 10
593.449490
 20
457.095950
 30
0.0
  0
SPLINE
  5
2af
100
AcDbEntity
  8
0
 62
7
100
AcDbSpline
 70
8
 71
3
 72
8
 73
4
 74
0
 40
0
 40
0
 40
0
 40
0
 40
1
 40
1
 40
1
 40
1
 10
593.449490
 20
457.095950
 30
0.0
 10
594.005050
 20
457.095950
 30
0.0
 10
594.449490
 20
459.762620
 30
0.0
 10
594.449490
 20
463.095950
 30
0.0
  0
LWPOLYLINE
  5
2b0
100
AcDbEntity
  8
0
 62
7
100
AcDbPolyline
 90
1
 70
1
 10
580.977980
 20
459.779780
 30
0.0
  0
SPLINE
  5
2b1
100
AcDbEntity
  8
0
 62
7
100
AcDbSpline
 70
8
 71
3
 72
8
 73
4
 74
0
 40
0
 40
0
 40
0
 40
0
 40
1
 40
1
 40
1
 40
1
 10
618.697010
 20
458.790480
 30
0.0
 10
620.234790
 20
459.100820
 30
0.0
 10
622.106070
 20
458.795480
 30
0.0
 10
622.947010
 20
458.098010
 30
0.0
  0
SPLINE
  5
2b2
100
AcDbEntity
  8
0
 62
7
100
AcDbSpline
 70
8
 71
3
 72
8
 73
4
 74
0
 40
0
 40
0
 40
0
 40
0
 40
1
 40
1
 40
1
 40
1
 10
622.947010
 20
458.098010
 30
0.0
 10
623.773370
 20
457.412190
 30
0.0
 10
624.449490
 20
457.121190
 30
0.0
 10
624.449490
 20
457.451350
 30
0.0
  0
SPLINE
  5
2b3
100
AcDbEntity
  8
0
 62
7
100
AcDbSpline
 70
8
 71
3
 72
8
 73
4
 74
0
 40
0
 40
0
 40
0
 40
0
 40
1
 40
1
 40
1
 40
1
 10
624.449490
 20
457.451350
 30
0.0
 10
624.449490
 20
458.555250
 30
0.0
 10
619.040420
 20
469.096410
 30
0.0
 10
618.491170
 20
469.062890
 30
0.0
  0
SPLINE
  5
2b4
100
AcDbEntity
  8
0
 62
7
100
AcDbSpline
 70
8
 71
3
 72
8
 73
4
 74
0
 40
0
 40
0
 40
0
 40
0
 40
1
 40
1
 40
1
 40
1
 10
618.491170
 20
469.062890
 30
0.0
 10
618.193250
 20
469.044690
 30
0.0
 10
616.715070
 20
466.297750
 30
0.0
 10
615.206340
 20
462.958530
 30
0.0
  0
SPLINE
  5
2b5
100
AcDbEntity
  8
0
 62
7
100
AcDbSpline
 70
8
 71
3
 72
8
 73
4
 74
0
 40
0
 40
0
 40
0
 40
0
 40
1
 40
1
 40
1
 40
1
 10
615.206340
 20
462.958530
 30
0.0
 10
612.888340
 20
457.828200
 30
0.0
 10
612.733350
 20
456.991750
 30
0.0
 10
614.206340
 20
457.561620
 30
0.0
  0
SPLINE
  5
2b6
100
AcDbEntity
  8
0
 62
7
100
AcDbSpline
 70
8
 71
3
 72
8
 73
4
 74
0
 40
0
 40
0
 40
0
 40
0
 40
1
 40
1
 40
1
 40
1
 10
614.206340
 20
457.561620
 30
0.0
 10
615.165070
 20
457.932540
 30
0.0
 10
617.185870
 20
458.485520
 30
0.0
 10
618.697010
 20
458.790480
 30
0.0
  0
LWPOLYLINE
  5
2b7
100
AcDbEntity
  8
0
 62
7
100
AcDbPolyline
 90
1
 70
1
 10
594.449490
 20
463.095950
 30
0.0
  0
SPLINE
  5
2b8
100
AcDbEntity
  8
0
 62
7
100
AcDbSpline
 70
8
 71
3
 72
8
 73
4
 74
0
 40
0
 40
0
 40
0
 40
0
 40
1
 40
1
 40
1
 40
1
 10
616.464800
 20
461.345950
 30
0.0
 10
616.472800
 20
462.033450
 30
0.0
 10
616.931780
 20
463.270950
 30
0.0
 10
617.483810
 20
464.095950
 30
0.0
  0
SPLINE
  5
2b9
100
AcDbEntity
  8
0
 62
7
100
AcDbSpline
 70
8
 71
3
 72
8
 73
4
 74
0
 40
0
 40
0
 40
0
 40
0
 40
1
 40
1
 40
1
 40
1
 10
617.483810
 20
464.095950
 30
0.0
 10
618.352550
 20
465.394280
 30
0.0
 10
618.686610
 20
465.334970
 30
0.0
 10
619.968490
 20
463.654820
 30
0.0
  0
SPLINE
  5
2ba
100
AcDbEntity
  8
0
 62
7
100
AcDbSpline
 70
8
 71
3
 72
8
 73
4
 74
0
 40
0
 40
0
 40
0
 40
0
 40
1
 40
1
 40
1
 40
1
 10
619.968490
 20
463.654820
 30
0.0
 10
622.056500
 20
460.918080
 30
0.0
 10
621.821100
 20
460.095950
 30
0.0
 10
618.949490
 20
460.095950
 30
0.0
  0
SPLINE
  5
2bb
100
AcDbEntity
  8
0
 62
7
100
AcDbSpline
 70
8
 71
3
 72
8
 73
4
 74
0
 40
0
 40
0
 40
0
 40
0
 40
1
 40
1
 40
1
 40
1
 10
618.949490
 20
460.095950
 30
0.0
 10
617.574490
 20
460.095950
 30
0.0
 10
616.456380
 20
460.658450
 30
0.0
 10
616.464800
 20
461.345950
 30
0.0
  0
LWPOLYLINE
  5
2bc
100
AcDbEntity
  8
0
 62
7
100
AcDbPolyline
 90
1
 70
1
 10
618.697010
 20
458.790480
 30
0.0
  0
LWPOLYLINE
  5
2bd
100
AcDbEntity
  8
0
 62
7
100
AcDbPolyline
 90
1
 70
1
 10
616.464800
 20
461.345950
 30
0.0
  0
SPLINE
  5
2be
100
AcDbEntity
  8
0
 62
7
100
AcDbSpline
 70
8
 71
3
 72
8
 73
4
 74
0
 40
0
 40
0
 40
0
 40
0
 40
1
 40
1
 40
1
 40
1
 10
634.269370
 20
461.345950
 30
0.0
 10
636.323410
 20
459.008450
 30
0.0
 10
638.329230
 20
457.095950
 30
0.0
 10
638.726730
 20
457.095950
 30
0.0
  0
SPLINE
  5
2bf
100
AcDbEntity
  8
0
 62
7
100
AcDbSpline
 70
8
 71
3
 72
8
 73
4
 74
0
 40
0
 40
0
 40
0
 40
0
 40
1
 40
1
 40
1
 40
1
 10
638.726730
 20
457.095950
 30
0.0
 10
639.124230
 20
457.095950
 30
0.0
 10
639.368350
 20
459.908450
 30
0.0
 10
639.269210
 20
463.345950
 30
0.0
  0
SPLINE
  5
2c0
100
AcDbEntity
  8
0
 62
7
100
AcDbSpline
 70
8
 71
3
 72
8
 73
4
 74
0
 40
0
 40
0
 40
0
 40
0
 40
1
 40
1
 40
1
 40
1
 10
639.269210
 20
463.345950
 30
0.0
 10
639.106110
 20
469.001320
 30
0.0
 10
639.053330
 20
469.144030
 30
0.0
 10
638.714420
 20
464.845950
 30
0.0
  0
SPLINE
  5
2c1
100
AcDbEntity
  8
0
 62
7
100
AcDbSpline
 70
8
 71
3
 72
8
 73
4
 74
0
 40
0
 40
0
 40
0
 40
0
 40
1
 40
1
 40
1
 40
1
 10
638.714420
 20
464.845950
 30
0.0
 10
638.508420
 20
462.233450
 30
0.0
 10
638.024940
 20
460.095950
 30
0.0
 10
637.640030
 20
460.095950
 30
0.0
  0
SPLINE
  5
2c2
100
AcDbEntity
  8
0
 62
7
100
AcDbSpline
 70
8
 71
3
 72
8
 73
4
 74
0
 40
0
 40
0
 40
0
 40
0
 40
1
 40
1
 40
1
 40
1
 10
637.640030
 20
460.095950
 30
0.0
 10
637.255110
 20
460.095950
 30
0.0
 10
635.367260
 20
462.103910
 30
0.0
 10
633.444820
 20
464.558090
 30
0.0
  0
SPLINE
  5
2c3
100
AcDbEntity
  8
0
 62
7
100
AcDbSpline
 70
8
 71
3
 72
8
 73
4
 74
0
 40
0
 40
0
 40
0
 40
0
 40
1
 40
1
 40
1
 40
1
 10
633.444820
 20
464.558090
 30
0.0
 10
631.522370
 20
467.012270
 30
0.0
 10
629.611960
 20
469.037270
 30
0.0
 10
629.199460
 20
469.058090
 30
0.0
  0
SPLINE
  5
2c4
100
AcDbEntity
  8
0
 62
7
100
AcDbSpline
 70
8
 71
3
 72
8
 73
4
 74
0
 40
0
 40
0
 40
0
 40
0
 40
1
 40
1
 40
1
 40
1
 10
629.199460
 20
469.058090
 30
0.0
 10
628.786990
 20
469.078890
 30
0.0
 10
628.449490
 20
466.395950
 30
0.0
 10
628.449490
 20
463.095950
 30
0.0
  0
SPLINE
  5
2c5
100
AcDbEntity
  8
0
 62
7
100
AcDbSpline
 70
8
 71
3
 72
8
 73
4
 74
0
 40
0
 40
0
 40
0
 40
0
 40
1
 40
1
 40
1
 40
1
 10
628.449490
 20
463.095950
 30
0.0
 10
628.449490
 20
459.762620
 30
0.0
 10
628.893930
 20
457.095950
 30
0.0
 10
629.449490
 20
457.095950
 30
0.0
  0
SPLINE
  5
2c6
100
AcDbEntity
  8
0
 62
7
100
AcDbSpline
 70
8
 71
3
 72
8
 73
4
 74
0
 40
0
 40
0
 40
0
 40
0
 40
1
 40
1
 40
1
 40
1
 10
629.449490
 20
457.095950
 30
0.0
 10
629.999490
 20
457.095950
 30
0.0
 10
630.468680
 20
459.008450
 30
0.0
 10
630.492130
 20
461.345950
 30
0.0
  0
LWPOLYLINE
  5
2c7
100
AcDbEntity
  8
0
 62
7
100
AcDbPolyline
 90
3
 70
0
 10
630.492130
 20
461.345950
 30
0.0
 10
630.534730
 20
465.595950
 30
0.0
 10
634.269370
 20
461.345950
 30
0.0
  0
SPLINE
  5
2c8
100
AcDbEntity
  8
0
 62
7
100
AcDbSpline
 70
8
 71
3
 72
8
 73
4
 74
0
 40
0
 40
0
 40
0
 40
0
 40
1
 40
1
 40
1
 40
1
 10
656.246590
 20
460.345950
 30
0.0
 10
658.901490
 20
465.910570
 30
0.0
 10
652.919960
 20
471.510590
 30
0.0
 10
647.309180
 20
468.713320
 30
0.0
  0
SPLINE
  5
2c9
100
AcDbEntity
  8
0
 62
7
100
AcDbSpline
 70
8
 71
3
 72
8
 73
4
 74
0
 40
0
 40
0
 40
0
 40
0
 40
1
 40
1
 40
1
 40
1
 10
647.309180
 20
468.713320
 30
0.0
 10
643.834570
 20
466.981040
 30
0.0
 10
642.717430
 20
462.862150
 30
0.0
 10
644.842550
 20
459.618820
 30
0.0
  0
SPLINE
  5
2ca
100
AcDbEntity
  8
0
 62
7
100
AcDbSpline
 70
8
 71
3
 72
8
 73
4
 74
0
 40
0
 40
0
 40
0
 40
0
 40
1
 40
1
 40
1
 40
1
 10
644.842550
 20
459.618820
 30
0.0
 10
646.321310
 20
457.361940
 30
0.0
 10
647.163610
 20
457.030130
 30
0.0
 10
650.750860
 20
457.291330
 30
0.0
  0
SPLINE
  5
2cb
100
AcDbEntity
  8
0
 62
7
100
AcDbSpline
 70
8
 71
3
 72
8
 73
4
 74
0
 40
0
 40
0
 40
0
 40
0
 40
1
 40
1
 40
1
 40
1
 10
650.750860
 20
457.291330
 30
0.0
 10
654.181710
 20
457.541130
 30
0.0
 10
655.170650
 20
458.090810
 30
0.0
 10
656.246590
 20
460.345950
 30
0.0
  0
LWPOLYLINE
  5
2cc
100
AcDbEntity
  8
0
 62
7
100
AcDbPolyline
 90
1
 70
1
 10
630.492130
 20
461.345950
 30
0.0
  0
SPLINE
  5
2cd
100
AcDbEntity
  8
0
 62
7
100
AcDbSpline
 70
8
 71
3
 72
8
 73
4
 74
0
 40
0
 40
0
 40
0
 40
0
 40
1
 40
1
 40
1
 40
1
 10
645.857530
 20
460.595950
 30
0.0
 10
644.340120
 20
462.911820
 30
0.0
 10
644.340120
 20
463.280080
 30
0.0
 10
645.857530
 20
465.595950
 30
0.0
  0
SPLINE
  5
2ce
100
AcDbEntity
  8
0
 62
7
100
AcDbSpline
 70
8
 71
3
 72
8
 73
4
 74
0
 40
0
 40
0
 40
0
 40
0
 40
1
 40
1
 40
1
 40
1
 10
645.857530
 20
465.595950
 30
0.0
 10
646.953880
 20
467.269180
 30
0.0
 10
648.413950
 20
468.095950
 30
0.0
 10
650.272540
 20
468.095950
 30
0.0
  0
SPLINE
  5
2cf
100
AcDbEntity
  8
0
 62
7
100
AcDbSpline
 70
8
 71
3
 72
8
 73
4
 74
0
 40
0
 40
0
 40
0
 40
0
 40
1
 40
1
 40
1
 40
1
 10
650.272540
 20
468.095950
 30
0.0
 10
653.793930
 20
468.095950
 30
0.0
 10
655.449490
 20
466.444270
 30
0.0
 10
655.449490
 20
462.931130
 30
0.0
  0
SPLINE
  5
2d0
100
AcDbEntity
  8
0
 62
7
100
AcDbSpline
 70
8
 71
3
 72
8
 73
4
 74
0
 40
0
 40
0
 40
0
 40
0
 40
1
 40
1
 40
1
 40
1
 10
655.449490
 20
462.931130
 30
0.0
 10
655.449490
 20
457.947660
 30
0.0
 10
648.673620
 20
456.298060
 30
0.0
 10
645.857530
 20
460.595950
 30
0.0
  0
LWPOLYLINE
  5
2d1
100
AcDbEntity
  8
0
 62
7
100
AcDbPolyline
 90
1
 70
1
 10
656.246590
 20
460.345950
 30
0.0
  0
LWPOLYLINE
  5
2d2
100
AcDbEntity
  8
0
 62
7
100
AcDbPolyline
 90
1
 70
1
 10
645.857530
 20
460.595950
 30
0.0
  0
SPLINE
  5
2d3
100
AcDbEntity
  8
0
 62
7
100
AcDbSpline
 70
8
 71
3
 72
8
 73
4
 74
0
 40
0
 40
0
 40
0
 40
0
 40
1
 40
1
 40
1
 40
1
 10
308.949490
 20
512.301610
 30
0.0
 10
300.448340
 20
512.122880
 30
0.0
 10
293.296640
 20
512.463900
 30
0.0
 10
290.741350
 20
513.169850
 30
0.0
  0
SPLINE
  5
2d4
100
AcDbEntity
  8
0
 62
7
100
AcDbSpline
 70
8
 71
3
 72
8
 73
4
 74
0
 40
0
 40
0
 40
0
 40
0
 40
1
 40
1
 40
1
 40
1
 10
290.741350
 20
513.169850
 30
0.0
 10
272.640100
 20
518.170670
 30
0.0
 10
269.914290
 20
543.793260
 30
0.0
 10
286.493890
 20
553.095950
 30
0.0
  0
SPLINE
  5
2d5
100
AcDbEntity
  8
0
 62
7
100
AcDbSpline
 70
8
 71
3
 72
8
 73
4
 74
0
 40
0
 40
0
 40
0
 40
0
 40
1
 40
1
 40
1
 40
1
 10
286.493890
 20
553.095950
 30
0.0
 10
290.730010
 20
555.472800
 30
0.0
 10
291.737650
 20
555.595950
 30
0.0
 10
306.949490
 20
555.595950
 30
0.0
  0
LWPOLYLINE
  5
2d6
100
AcDbEntity
  8
0
 62
7
100
AcDbPolyline
 90
11
 70
0
 10
328.449490
 20
522.095950
 30
0.0
 10
328.449490
 20
537.095950
 30
0.0
 10
311.449490
 20
537.095950
 30
0.0
 10
294.449490
 20
537.095950
 30
0.0
 10
294.449490
 20
534.095950
 30
0.0
 10
294.449490
 20
531.095950
 30
0.0
 10
308.987020
 20
531.095950
 30
0.0
 10
323.524540
 20
531.095950
 30
0.0
 10
323.237020
 20
521.845950
 30
0.0
 10
322.949490
 20
512.595950
 30
0.0
 10
308.949490
 20
512.301610
 30
0.0
  0
SPLINE
  5
2d7
100
AcDbEntity
  8
0
 62
7
100
AcDbSpline
 70
8
 71
3
 72
8
 73
4
 74
0
 40
0
 40
0
 40
0
 40
0
 40
1
 40
1
 40
1
 40
1
 10
308.980730
 20
549.095950
 30
0.0
 10
292.698050
 20
549.095950
 30
0.0
 10
289.480960
 20
548.298920
 30
0.0
 10
285.192590
 20
543.202480
 30
0.0
  0
SPLINE
  5
2d8
100
AcDbEntity
  8
0
 62
7
100
AcDbSpline
 70
8
 71
3
 72
8
 73
4
 74
0
 40
0
 40
0
 40
0
 40
0
 40
1
 40
1
 40
1
 40
1
 10
285.192590
 20
543.202480
 30
0.0
 10
281.545950
 20
538.868700
 30
0.0
 10
280.799520
 20
534.086410
 30
0.0
 10
282.907990
 20
528.565450
 30
0.0
  0
SPLINE
  5
2d9
100
AcDbEntity
  8
0
 62
7
100
AcDbSpline
 70
8
 71
3
 72
8
 73
4
 74
0
 40
0
 40
0
 40
0
 40
0
 40
1
 40
1
 40
1
 40
1
 10
282.907990
 20
528.565450
 30
0.0
 10
285.806660
 20
520.975390
 30
0.0
 10
288.764700
 20
519.652410
 30
0.0
 10
303.699490
 20
519.266480
 30
0.0
  0
LWPOLYLINE
  5
2da
100
AcDbEntity
  8
0
 62
7
100
AcDbPolyline
 90
5
 70
0
 10
306.949490
 20
555.595950
 30
0.0
 10
322.949490
 20
555.595950
 30
0.0
 10
323.262850
 20
552.345950
 30
0.0
 10
323.576210
 20
549.095950
 30
0.0
 10
308.980730
 20
549.095950
 30
0.0
  0
SPLINE
  5
2db
100
AcDbEntity
  8
0
 62
7
100
AcDbSpline
 70
8
 71
3
 72
8
 73
4
 74
0
 40
0
 40
0
 40
0
 40
0
 40
1
 40
1
 40
1
 40
1
 10
304.360620
 20
524.262200
 30
0.0
 10
292.535230
 20
524.588680
 30
0.0
 10
292.219190
 20
524.657100
 30
0.0
 10
289.860620
 20
527.401710
 30
0.0
  0
SPLINE
  5
2dc
100
AcDbEntity
  8
0
 62
7
100
AcDbSpline
 70
8
 71
3
 72
8
 73
4
 74
0
 40
0
 40
0
 40
0
 40
0
 40
1
 40
1
 40
1
 40
1
 10
289.860620
 20
527.401710
 30
0.0
 10
286.531950
 20
531.275200
 30
0.0
 10
286.551670
 20
537.289040
 30
0.0
 10
289.904020
 20
540.641400
 30
0.0
  0
SPLINE
  5
2dd
100
AcDbEntity
  8
0
 62
7
100
AcDbSpline
 70
8
 71
3
 72
8
 73
4
 74
0
 40
0
 40
0
 40
0
 40
0
 40
1
 40
1
 40
1
 40
1
 10
289.904020
 20
540.641400
 30
0.0
 10
292.328740
 20
543.066100
 30
0.0
 10
292.578000
 20
543.095950
 30
0.0
 10
310.404040
 20
543.095950
 30
0.0
  0
LWPOLYLINE
  5
2de
100
AcDbEntity
  8
0
 62
7
100
AcDbPolyline
 90
5
 70
0
 10
303.699490
 20
519.266480
 30
0.0
 10
316.449490
 20
518.937010
 30
0.0
 10
316.449490
 20
521.432730
 30
0.0
 10
316.449490
 20
523.928450
 30
0.0
 10
304.360620
 20
524.262200
 30
0.0
  0
SPLINE
  5
2df
100
AcDbEntity
  8
0
 62
7
100
AcDbSpline
 70
8
 71
3
 72
8
 73
4
 74
0
 40
0
 40
0
 40
0
 40
0
 40
1
 40
1
 40
1
 40
1
 10
308.699490
 20
560.921010
 30
0.0
 10
290.584180
 20
560.622850
 30
0.0
 10
288.607280
 20
560.412910
 30
0.0
 10
284.815040
 20
558.384570
 30
0.0
  0
SPLINE
  5
2e0
100
AcDbEntity
  8
0
 62
7
100
AcDbSpline
 70
8
 71
3
 72
8
 73
4
 74
0
 40
0
 40
0
 40
0
 40
0
 40
1
 40
1
 40
1
 40
1
 10
284.815040
 20
558.384570
 30
0.0
 10
274.944350
 20
553.105080
 30
0.0
 10
269.982530
 20
544.781530
 30
0.0
 10
270.009980
 20
533.548830
 30
0.0
  0
SPLINE
  5
2e1
100
AcDbEntity
  8
0
 62
7
100
AcDbSpline
 70
8
 71
3
 72
8
 73
4
 74
0
 40
0
 40
0
 40
0
 40
0
 40
1
 40
1
 40
1
 40
1
 10
270.009980
 20
533.548830
 30
0.0
 10
270.024680
 20
527.549800
 30
0.0
 10
270.483300
 20
525.694420
 30
0.0
 10
273.093830
 20
521.073710
 30
0.0
  0
SPLINE
  5
2e2
100
AcDbEntity
  8
0
 62
7
100
AcDbSpline
 70
8
 71
3
 72
8
 73
4
 74
0
 40
0
 40
0
 40
0
 40
0
 40
1
 40
1
 40
1
 40
1
 10
273.093830
 20
521.073710
 30
0.0
 10
274.780470
 20
518.088320
 30
0.0
 10
277.745350
 20
514.362940
 30
0.0
 10
279.682460
 20
512.795110
 30
0.0
  0
SPLINE
  5
2e3
100
AcDbEntity
  8
0
 62
7
100
AcDbSpline
 70
8
 71
3
 72
8
 73
4
 74
0
 40
0
 40
0
 40
0
 40
0
 40
1
 40
1
 40
1
 40
1
 10
279.682460
 20
512.795110
 30
0.0
 10
285.809730
 20
507.835900
 30
0.0
 10
289.250190
 20
507.187710
 30
0.0
 10
309.699490
 20
507.139840
 30
0.0
  0
LWPOLYLINE
  5
2e4
100
AcDbEntity
  8
0
 62
7
100
AcDbPolyline
 90
5
 70
0
 10
310.404040
 20
543.095950
 30
0.0
 10
328.449490
 20
543.095950
 30
0.0
 10
328.449490
 20
552.171010
 30
0.0
 10
328.449490
 20
561.246070
 30
0.0
 10
308.699490
 20
560.921010
 30
0.0
  0
LWPOLYLINE
  5
2e5
100
AcDbEntity
  8
0
 62
7
100
AcDbPolyline
 90
3
 70
0
 10
309.699490
 20
507.139840
 30
0.0
 10
328.449490
 20
507.095940
 30
0.0
 10
328.449490
 20
522.095950
 30
0.0
  0
SPLINE
  5
2e6
100
AcDbEntity
  8
0
 62
7
100
AcDbSpline
 70
8
 71
3
 72
8
 73
4
 74
0
 40
0
 40
0
 40
0
 40
0
 40
1
 40
1
 40
1
 40
1
 10
397.626700
 20
510.345880
 30
0.0
 10
396.534430
 20
512.133380
 30
0.0
 10
394.332120
 20
515.845880
 30
0.0
 10
392.732680
 20
518.595880
 30
0.0
  0
SPLINE
  5
2e7
100
AcDbEntity
  8
0
 62
7
100
AcDbSpline
 70
8
 71
3
 72
8
 73
4
 74
0
 40
0
 40
0
 40
0
 40
0
 40
1
 40
1
 40
1
 40
1
 10
392.732680
 20
518.595880
 30
0.0
 10
390.312200
 20
522.757540
 30
0.0
 10
389.282400
 20
523.649000
 30
0.0
 10
386.590820
 20
523.912690
 30
0.0
  0
LWPOLYLINE
  5
2e8
100
AcDbEntity
  8
0
 62
7
100
AcDbPolyline
 90
9
 70
0
 10
358.041850
 20
513.095950
 30
0.0
 10
358.134250
 20
518.595950
 30
0.0
 10
365.229120
 20
518.888490
 30
0.0
 10
372.323990
 20
519.181040
 30
0.0
 10
375.636760
 20
513.150360
 30
0.0
 10
378.949530
 20
507.119680
 30
0.0
 10
389.281090
 20
507.107780
 30
0.0
 10
399.612650
 20
507.095880
 30
0.0
 10
397.626700
 20
510.345880
 30
0.0
  0
SPLINE
  5
2e9
100
AcDbEntity
  8
0
 62
7
100
AcDbSpline
 70
8
 71
3
 72
8
 73
4
 74
0
 40
0
 40
0
 40
0
 40
0
 40
1
 40
1
 40
1
 40
1
 10
386.404170
 20
518.830250
 30
0.0
 10
388.080100
 20
515.860660
 30
0.0
 10
389.150910
 20
513.130600
 30
0.0
 10
388.783760
 20
512.763440
 30
0.0
  0
SPLINE
  5
2ea
100
AcDbEntity
  8
0
 62
7
100
AcDbSpline
 70
8
 71
3
 72
8
 73
4
 74
0
 40
0
 40
0
 40
0
 40
0
 40
1
 40
1
 40
1
 40
1
 10
388.783760
 20
512.763440
 30
0.0
 10
388.416560
 20
512.396350
 30
0.0
 10
386.861190
 20
512.095950
 30
0.0
 10
385.327330
 20
512.095950
 30
0.0
  0
SPLINE
  5
2eb
100
AcDbEntity
  8
0
 62
7
100
AcDbSpline
 70
8
 71
3
 72
8
 73
4
 74
0
 40
0
 40
0
 40
0
 40
0
 40
1
 40
1
 40
1
 40
1
 10
385.327330
 20
512.095950
 30
0.0
 10
382.988220
 20
512.095950
 30
0.0
 10
381.997060
 20
513.023160
 30
0.0
 10
379.180740
 20
517.845950
 30
0.0
  0
LWPOLYLINE
  5
2ec
100
AcDbEntity
  8
0
 62
7
100
AcDbPolyline
 90
3
 70
0
 10
386.590820
 20
523.912690
 30
0.0
 10
383.357020
 20
524.229500
 30
0.0
 10
386.404170
 20
518.830250
 30
0.0
  0
SPLINE
  5
2ed
100
AcDbEntity
  8
0
 62
7
100
AcDbSpline
 70
8
 71
3
 72
8
 73
4
 74
0
 40
0
 40
0
 40
0
 40
0
 40
1
 40
1
 40
1
 40
1
 10
352.250330
 20
518.377250
 30
0.0
 10
351.954230
 20
512.687100
 30
0.0
 10
351.902190
 20
512.595950
 30
0.0
 10
348.949490
 20
512.595950
 30
0.0
  0
LWPOLYLINE
  5
2ee
100
AcDbEntity
  8
0
 62
7
100
AcDbPolyline
 90
5
 70
0
 10
379.180740
 20
517.845950
 30
0.0
 10
375.822970
 20
523.595950
 30
0.0
 10
364.187070
 20
523.877250
 30
0.0
 10
352.551170
 20
524.158540
 30
0.0
 10
352.250330
 20
518.377250
 30
0.0
  0
SPLINE
  5
2ef
100
AcDbEntity
  8
0
 62
7
100
AcDbSpline
 70
8
 71
3
 72
8
 73
4
 74
0
 40
0
 40
0
 40
0
 40
0
 40
1
 40
1
 40
1
 40
1
 10
367.949490
 20
531.095950
 30
0.0
 10
388.975800
 20
531.573820
 30
0.0
 10
390.094000
 20
531.699020
 30
0.0
 10
393.214580
 20
533.924790
 30
0.0
  0
SPLINE
  5
2f0
100
AcDbEntity
  8
0
 62
7
100
AcDbSpline
 70
8
 71
3
 72
8
 73
4
 74
0
 40
0
 40
0
 40
0
 40
0
 40
1
 40
1
 40
1
 40
1
 10
393.214580
 20
533.924790
 30
0.0
 10
402.327320
 20
540.424490
 30
0.0
 10
401.348680
 20
554.360850
 30
0.0
 10
391.429560
 20
559.344390
 30
0.0
  0
SPLINE
  5
2f1
100
AcDbEntity
  8
0
 62
7
100
AcDbSpline
 70
8
 71
3
 72
8
 73
4
 74
0
 40
0
 40
0
 40
0
 40
0
 40
1
 40
1
 40
1
 40
1
 10
391.429560
 20
559.344390
 30
0.0
 10
388.408800
 20
560.862070
 30
0.0
 10
384.814880
 20
561.093040
 30
0.0
 10
364.199490
 20
561.094390
 30
0.0
  0
LWPOLYLINE
  5
2f2
100
AcDbEntity
  8
0
 62
7
100
AcDbPolyline
 90
5
 70
0
 10
348.949490
 20
512.595950
 30
0.0
 10
345.949490
 20
512.595950
 30
0.0
 10
345.949490
 20
521.595950
 30
0.0
 10
345.949490
 20
530.595950
 30
0.0
 10
367.949490
 20
531.095950
 30
0.0
  0
SPLINE
  5
2f3
100
AcDbEntity
  8
0
 62
7
100
AcDbSpline
 70
8
 71
3
 72
8
 73
4
 74
0
 40
0
 40
0
 40
0
 40
0
 40
1
 40
1
 40
1
 40
1
 10
362.827050
 20
543.096390
 30
0.0
 10
381.498250
 20
543.096390
 30
0.0
 10
385.410790
 20
543.344830
 30
0.0
 10
386.449490
 20
544.596390
 30
0.0
  0
SPLINE
  5
2f4
100
AcDbEntity
  8
0
 62
7
100
AcDbSpline
 70
8
 71
3
 72
8
 73
4
 74
0
 40
0
 40
0
 40
0
 40
0
 40
1
 40
1
 40
1
 40
1
 10
386.449490
 20
544.596390
 30
0.0
 10
387.434100
 20
545.782770
 30
0.0
 10
387.437710
 20
546.405650
 30
0.0
 10
386.466690
 20
547.575600
 30
0.0
  0
SPLINE
  5
2f5
100
AcDbEntity
  8
0
 62
7
100
AcDbSpline
 70
8
 71
3
 72
8
 73
4
 74
0
 40
0
 40
0
 40
0
 40
0
 40
1
 40
1
 40
1
 40
1
 10
386.466690
 20
547.575600
 30
0.0
 10
385.474370
 20
548.771280
 30
0.0
 10
381.473610
 20
549.106710
 30
0.0
 10
365.594250
 20
549.325600
 30
0.0
  0
LWPOLYLINE
  5
2f6
100
AcDbEntity
  8
0
 62
7
100
AcDbPolyline
 90
5
 70
0
 10
364.199490
 20
561.094390
 30
0.0
 10
340.449490
 20
561.096390
 30
0.0
 10
340.449490
 20
552.096390
 30
0.0
 10
340.449490
 20
543.096390
 30
0.0
 10
362.827050
 20
543.096390
 30
0.0
  0
SPLINE
  5
2f7
100
AcDbEntity
  8
0
 62
7
100
AcDbSpline
 70
8
 71
3
 72
8
 73
4
 74
0
 40
0
 40
0
 40
0
 40
0
 40
1
 40
1
 40
1
 40
1
 10
345.636430
 20
552.311510
 30
0.0
 10
345.201790
 20
556.081100
 30
0.0
 10
346.736270
 20
556.315340
 30
0.0
 10
369.313380
 20
555.925820
 30
0.0
  0
LWPOLYLINE
  5
2f8
100
AcDbEntity
  8
0
 62
7
100
AcDbPolyline
 90
3
 70
0
 10
365.594250
 20
549.325600
 30
0.0
 10
345.949490
 20
549.596390
 30
0.0
 10
345.636430
 20
552.311510
 30
0.0
  0
SPLINE
  5
2f9
100
AcDbEntity
  8
0
 62
7
100
AcDbSpline
 70
8
 71
3
 72
8
 73
4
 74
0
 40
0
 40
0
 40
0
 40
0
 40
1
 40
1
 40
1
 40
1
 10
391.156080
 20
552.846390
 30
0.0
 10
394.810020
 20
549.189730
 30
0.0
 10
394.963660
 20
543.337050
 30
0.0
 10
391.502450
 20
539.652760
 30
0.0
  0
LWPOLYLINE
  5
2fa
100
AcDbEntity
  8
0
 62
7
100
AcDbPolyline
 90
3
 70
0
 10
369.313380
 20
555.925820
 30
0.0
 10
388.408130
 20
555.596390
 30
0.0
 10
391.156080
 20
552.846390
 30
0.0
  0
SPLINE
  5
2fb
100
AcDbEntity
  8
0
 62
7
100
AcDbSpline
 70
8
 71
3
 72
8
 73
4
 74
0
 40
0
 40
0
 40
0
 40
0
 40
1
 40
1
 40
1
 40
1
 10
451.065960
 20
509.890070
 30
0.0
 10
457.287770
 20
513.079650
 30
0.0
 10
460.736760
 20
516.380220
 30
0.0
 10
463.995540
 20
522.263230
 30
0.0
  0
SPLINE
  5
2fc
100
AcDbEntity
  8
0
 62
7
100
AcDbSpline
 70
8
 71
3
 72
8
 73
4
 74
0
 40
0
 40
0
 40
0
 40
0
 40
1
 40
1
 40
1
 40
1
 10
463.995540
 20
522.263230
 30
0.0
 10
466.886610
 20
527.482430
 30
0.0
 10
466.956610
 20
527.952510
 30
0.0
 10
467.283780
 20
544.345950
 30
0.0
  0
LWPOLYLINE
  5
2fd
100
AcDbEntity
  8
0
 62
7
100
AcDbPolyline
 90
9
 70
0
 10
391.502450
 20
539.652760
 30
0.0
 10
389.100860
 20
537.096390
 30
0.0
 10
364.775180
 20
537.096390
 30
0.0
 10
340.449490
 20
537.096390
 30
0.0
 10
340.449490
 20
522.057460
 30
0.0
 10
340.449490
 20
507.018520
 30
0.0
 10
349.199490
 20
507.307460
 30
0.0
 10
357.949490
 20
507.596390
 30
0.0
 10
358.041850
 20
513.095950
 30
0.0
  0
SPLINE
  5
2fe
100
AcDbEntity
  8
0
 62
7
100
AcDbSpline
 70
8
 71
3
 72
8
 73
4
 74
0
 40
0
 40
0
 40
0
 40
0
 40
1
 40
1
 40
1
 40
1
 10
462.443490
 20
547.345950
 30
0.0
 10
462.437490
 20
531.637850
 30
0.0
 10
461.650000
 20
527.848680
 30
0.0
 10
457.151680
 20
521.871210
 30
0.0
  0
SPLINE
  5
2ff
100
AcDbEntity
  8
0
 62
7
100
AcDbSpline
 70
8
 71
3
 72
8
 73
4
 74
0
 40
0
 40
0
 40
0
 40
0
 40
1
 40
1
 40
1
 40
1
 10
457.151680
 20
521.871210
 30
0.0
 10
448.773810
 20
510.738500
 30
0.0
 10
432.434130
 20
509.381170
 30
0.0
 10
422.107490
 20
518.960110
 30
0.0
  0
SPLINE
  5
300
100
AcDbEntity
  8
0
 62
7
100
AcDbSpline
 70
8
 71
3
 72
8
 73
4
 74
0
 40
0
 40
0
 40
0
 40
0
 40
1
 40
1
 40
1
 40
1
 10
422.107490
 20
518.960110
 30
0.0
 10
416.128230
 20
524.506830
 30
0.0
 10
414.982570
 20
528.297950
 30
0.0
 10
414.965240
 20
542.595950
 30
0.0
  0
LWPOLYLINE
  5
301
100
AcDbEntity
  8
0
 62
7
100
AcDbPolyline
 90
5
 70
0
 10
467.283780
 20
544.345950
 30
0.0
 10
467.618070
 20
561.095950
 30
0.0
 10
465.033780
 20
561.095950
 30
0.0
 10
462.449490
 20
561.095950
 30
0.0
 10
462.443490
 20
547.345950
 30
0.0
  0
SPLINE
  5
302
100
AcDbEntity
  8
0
 62
7
100
AcDbSpline
 70
8
 71
3
 72
8
 73
4
 74
0
 40
0
 40
0
 40
0
 40
0
 40
1
 40
1
 40
1
 40
1
 10
421.449540
 20
542.514430
 30
0.0
 10
421.919000
 20
530.231980
 30
0.0
 10
422.114070
 20
529.217420
 30
0.0
 10
424.643090
 20
525.905160
 30
0.0
  0
SPLINE
  5
303
100
AcDbEntity
  8
0
 62
7
100
AcDbSpline
 70
8
 71
3
 72
8
 73
4
 74
0
 40
0
 40
0
 40
0
 40
0
 40
1
 40
1
 40
1
 40
1
 10
424.643090
 20
525.905160
 30
0.0
 10
431.629630
 20
516.754870
 30
0.0
 10
445.943240
 20
516.968840
 30
0.0
 10
452.615330
 20
526.323310
 30
0.0
  0
SPLINE
  5
304
100
AcDbEntity
  8
0
 62
7
100
AcDbSpline
 70
8
 71
3
 72
8
 73
4
 74
0
 40
0
 40
0
 40
0
 40
0
 40
1
 40
1
 40
1
 40
1
 10
452.615330
 20
526.323310
 30
0.0
 10
454.783320
 20
529.362910
 30
0.0
 10
454.972240
 20
530.717480
 30
0.0
 10
455.268350
 20
545.345950
 30
0.0
  0
LWPOLYLINE
  5
305
100
AcDbEntity
  8
0
 62
7
100
AcDbPolyline
 90
5
 70
0
 10
414.965240
 20
542.595950
 30
0.0
 10
414.949540
 20
555.595950
 30
0.0
 10
417.949540
 20
555.595950
 30
0.0
 10
420.949540
 20
555.595950
 30
0.0
 10
421.449540
 20
542.514430
 30
0.0
  0
SPLINE
  5
306
100
AcDbEntity
  8
0
 62
7
100
AcDbSpline
 70
8
 71
3
 72
8
 73
4
 74
0
 40
0
 40
0
 40
0
 40
0
 40
1
 40
1
 40
1
 40
1
 10
446.899960
 20
528.082030
 30
0.0
 10
443.065510
 20
524.251100
 30
0.0
 10
437.962520
 20
523.284160
 30
0.0
 10
433.287390
 20
525.502650
 30
0.0
  0
SPLINE
  5
307
100
AcDbEntity
  8
0
 62
7
100
AcDbSpline
 70
8
 71
3
 72
8
 73
4
 74
0
 40
0
 40
0
 40
0
 40
0
 40
1
 40
1
 40
1
 40
1
 10
433.287390
 20
525.502650
 30
0.0
 10
427.315820
 20
528.336350
 30
0.0
 10
426.449540
 20
531.059870
 30
0.0
 10
426.449540
 20
547.000240
 30
0.0
  0
LWPOLYLINE
  5
308
100
AcDbEntity
  8
0
 62
7
100
AcDbPolyline
 90
7
 70
0
 10
455.268350
 20
545.345950
 30
0.0
 10
455.587160
 20
561.095950
 30
0.0
 10
453.090400
 20
561.095950
 30
0.0
 10
450.593630
 20
561.095950
 30
0.0
 10
450.271590
 20
546.112380
 30
0.0
 10
449.949540
 20
531.128810
 30
0.0
 10
446.899960
 20
528.082030
 30
0.0
  0
SPLINE
  5
309
100
AcDbEntity
  8
0
 62
7
100
AcDbSpline
 70
8
 71
3
 72
8
 73
4
 74
0
 40
0
 40
0
 40
0
 40
0
 40
1
 40
1
 40
1
 40
1
 10
409.449540
 20
545.774080
 30
0.0
 10
409.449540
 20
528.599810
 30
0.0
 10
410.469360
 20
523.953940
 30
0.0
 10
415.607670
 20
517.720280
 30
0.0
  0
SPLINE
  5
30a
100
AcDbEntity
  8
0
 62
7
100
AcDbSpline
 70
8
 71
3
 72
8
 73
4
 74
0
 40
0
 40
0
 40
0
 40
0
 40
1
 40
1
 40
1
 40
1
 10
415.607670
 20
517.720280
 30
0.0
 10
419.122130
 20
513.456630
 30
0.0
 10
424.633410
 20
509.697570
 30
0.0
 10
429.589000
 20
508.184080
 30
0.0
  0
SPLINE
  5
30b
100
AcDbEntity
  8
0
 62
7
100
AcDbSpline
 70
8
 71
3
 72
8
 73
4
 74
0
 40
0
 40
0
 40
0
 40
0
 40
1
 40
1
 40
1
 40
1
 10
429.589000
 20
508.184080
 30
0.0
 10
434.921800
 20
506.555380
 30
0.0
 10
446.328610
 20
507.461460
 30
0.0
 10
451.066010
 20
509.890070
 30
0.0
  0
LWPOLYLINE
  5
30c
100
AcDbEntity
  8
0
 62
7
100
AcDbPolyline
 90
5
 70
0
 10
426.449540
 20
547.000240
 30
0.0
 10
426.449540
 20
561.095950
 30
0.0
 10
417.949540
 20
561.095950
 30
0.0
 10
409.449540
 20
561.095950
 30
0.0
 10
409.449540
 20
545.774080
 30
0.0
  0
SPLINE
  5
30d
100
AcDbEntity
  8
0
 62
7
100
AcDbSpline
 70
8
 71
3
 72
8
 73
4
 74
0
 40
0
 40
0
 40
0
 40
0
 40
1
 40
1
 40
1
 40
1
 10
496.449490
 20
510.709800
 30
0.0
 10
496.449490
 20
512.697410
 30
0.0
 10
495.436990
 20
516.135240
 30
0.0
 10
494.199490
 20
518.349420
 30
0.0
  0
LWPOLYLINE
  5
30e
100
AcDbEntity
  8
0
 62
7
100
AcDbPolyline
 90
1
 70
1
 10
451.066010
 20
509.890070
 30
0.0
  0
SPLINE
  5
30f
100
AcDbEntity
  8
0
 62
7
100
AcDbSpline
 70
8
 71
3
 72
8
 73
4
 74
0
 40
0
 40
0
 40
0
 40
0
 40
1
 40
1
 40
1
 40
1
 10
491.449490
 20
517.485570
 30
0.0
 10
490.973470
 20
512.830440
 30
0.0
 10
490.805620
 20
512.595950
 30
0.0
 10
487.949490
 20
512.595950
 30
0.0
  0
LWPOLYLINE
  5
310
100
AcDbEntity
  8
0
 62
7
100
AcDbPolyline
 90
3
 70
0
 10
494.199490
 20
518.349420
 30
0.0
 10
491.949490
 20
522.375200
 30
0.0
 10
491.449490
 20
517.485570
 30
0.0
  0
SPLINE
  5
311
100
AcDbEntity
  8
0
 62
7
100
AcDbSpline
 70
8
 71
3
 72
8
 73
4
 74
0
 40
0
 40
0
 40
0
 40
0
 40
1
 40
1
 40
1
 40
1
 10
504.973210
 20
538.276170
 30
0.0
 10
510.041920
 20
529.300290
 30
0.0
 10
514.638170
 20
521.507270
 30
0.0
 10
515.187090
 20
520.958350
 30
0.0
  0
SPLINE
  5
312
100
AcDbEntity
  8
0
 62
7
100
AcDbSpline
 70
8
 71
3
 72
8
 73
4
 74
0
 40
0
 40
0
 40
0
 40
0
 40
1
 40
1
 40
1
 40
1
 10
515.187090
 20
520.958350
 30
0.0
 10
515.851150
 20
520.294290
 30
0.0
 10
519.538250
 20
525.755560
 30
0.0
 10
526.205190
 20
537.278130
 30
0.0
  0
LWPOLYLINE
  5
313
100
AcDbEntity
  8
0
 62
7
100
AcDbPolyline
 90
7
 70
0
 10
487.949490
 20
512.595950
 30
0.0
 10
484.949490
 20
512.595950
 30
0.0
 10
484.679460
 20
533.896450
 30
0.0
 10
484.409420
 20
555.196950
 30
0.0
 10
490.083390
 20
554.896450
 30
0.0
 10
495.757370
 20
554.595950
 30
0.0
 10
504.973210
 20
538.276170
 30
0.0
  0
SPLINE
  5
314
100
AcDbEntity
  8
0
 62
7
100
AcDbSpline
 70
8
 71
3
 72
8
 73
4
 74
0
 40
0
 40
0
 40
0
 40
0
 40
1
 40
1
 40
1
 40
1
 10
536.536250
 20
541.595950
 30
0.0
 10
534.658970
 20
538.295950
 30
0.0
 10
530.014390
 20
530.283200
 30
0.0
 10
526.214970
 20
523.789830
 30
0.0
  0
LWPOLYLINE
  5
315
100
AcDbEntity
  8
0
 62
7
100
AcDbPolyline
 90
11
 70
0
 10
526.205190
 20
537.278130
 30
0.0
 10
536.225260
 20
554.595950
 30
0.0
 10
541.857410
 20
554.896450
 30
0.0
 10
547.489560
 20
555.196950
 30
0.0
 10
547.219520
 20
533.896450
 30
0.0
 10
546.949490
 20
512.595950
 30
0.0
 10
543.949490
 20
512.595950
 30
0.0
 10
540.949490
 20
512.595950
 30
0.0
 10
540.449490
 20
530.095950
 30
0.0
 10
539.949490
 20
547.595950
 30
0.0
 10
536.536250
 20
541.595950
 30
0.0
  0
SPLINE
  5
316
100
AcDbEntity
  8
0
 62
7
100
AcDbSpline
 70
8
 71
3
 72
8
 73
4
 74
0
 40
0
 40
0
 40
0
 40
0
 40
1
 40
1
 40
1
 40
1
 10
515.743340
 20
512.289830
 30
0.0
 10
512.260240
 20
512.589040
 30
0.0
 10
511.951260
 20
512.987330
 30
0.0
 10
502.064620
 20
529.922520
 30
0.0
  0
LWPOLYLINE
  5
317
100
AcDbEntity
  8
0
 62
7
100
AcDbPolyline
 90
3
 70
0
 10
526.214970
 20
523.789830
 30
0.0
 10
519.306940
 20
511.983720
 30
0.0
 10
515.743340
 20
512.289830
 30
0.0
  0
SPLINE
  5
318
100
AcDbEntity
  8
0
 62
7
100
AcDbSpline
 70
8
 71
3
 72
8
 73
4
 74
0
 40
0
 40
0
 40
0
 40
0
 40
1
 40
1
 40
1
 40
1
 10
491.643740
 20
542.648970
 30
0.0
 10
491.364790
 20
538.452140
 30
0.0
 10
492.109980
 20
536.692890
 30
0.0
 10
500.143740
 20
522.581930
 30
0.0
  0
LWPOLYLINE
  5
319
100
AcDbEntity
  8
0
 62
7
100
AcDbPolyline
 90
3
 70
0
 10
502.064620
 20
529.922520
 30
0.0
 10
491.949490
 20
547.249090
 30
0.0
 10
491.643740
 20
542.648970
 30
0.0
  0
SPLINE
  5
31a
100
AcDbEntity
  8
0
 62
7
100
AcDbSpline
 70
8
 71
3
 72
8
 73
4
 74
0
 40
0
 40
0
 40
0
 40
0
 40
1
 40
1
 40
1
 40
1
 10
524.916430
 20
545.565530
 30
0.0
 10
520.109740
 20
537.023800
 30
0.0
 10
515.922330
 20
530.289780
 30
0.0
 10
515.611070
 20
530.601040
 30
0.0
  0
SPLINE
  5
31b
100
AcDbEntity
  8
0
 62
7
100
AcDbSpline
 70
8
 71
3
 72
8
 73
4
 74
0
 40
0
 40
0
 40
0
 40
0
 40
1
 40
1
 40
1
 40
1
 10
515.611070
 20
530.601040
 30
0.0
 10
515.299810
 20
530.912300
 30
0.0
 10
511.354040
 20
537.788490
 30
0.0
 10
506.842690
 20
545.881450
 30
0.0
  0
LWPOLYLINE
  5
31c
100
AcDbEntity
  8
0
 62
7
100
AcDbPolyline
 90
15
 70
0
 10
500.143740
 20
522.581930
 30
0.0
 10
508.949490
 20
507.115000
 30
0.0
 10
515.949490
 20
507.106000
 30
0.0
 10
522.949490
 20
507.097000
 30
0.0
 10
528.449490
 20
516.846740
 30
0.0
 10
533.949490
 20
526.596480
 30
0.0
 10
534.235700
 20
516.846480
 30
0.0
 10
534.521910
 20
507.096480
 30
0.0
 10
543.485700
 20
507.096480
 30
0.0
 10
552.449490
 20
507.096480
 30
0.0
 10
552.449490
 20
534.095950
 30
0.0
 10
552.449490
 20
561.095950
 30
0.0
 10
543.052670
 20
561.095950
 30
0.0
 10
533.655850
 20
561.095950
 30
0.0
 10
524.916430
 20
545.565530
 30
0.0
  0
LWPOLYLINE
  5
31d
100
AcDbEntity
  8
0
 62
7
100
AcDbPolyline
 90
9
 70
0
 10
506.842690
 20
545.881450
 30
0.0
 10
498.640240
 20
560.595950
 30
0.0
 10
489.044870
 20
560.882160
 30
0.0
 10
479.449490
 20
561.168370
 30
0.0
 10
479.449490
 20
534.132160
 30
0.0
 10
479.449490
 20
507.095950
 30
0.0
 10
487.949490
 20
507.095950
 30
0.0
 10
496.449490
 20
507.095950
 30
0.0
 10
496.449490
 20
510.709800
 30
0.0
  0
SPLINE
  5
31e
100
AcDbEntity
  8
0
 62
7
100
AcDbSpline
 70
8
 71
3
 72
8
 73
4
 74
0
 40
0
 40
0
 40
0
 40
0
 40
1
 40
1
 40
1
 40
1
 10
596.890470
 20
519.095950
 30
0.0
 10
610.171970
 20
519.095950
 30
0.0
 10
617.560230
 20
518.725790
 30
0.0
 10
617.984620
 20
518.039110
 30
0.0
  0
SPLINE
  5
31f
100
AcDbEntity
  8
0
 62
7
100
AcDbSpline
 70
8
 71
3
 72
8
 73
4
 74
0
 40
0
 40
0
 40
0
 40
0
 40
1
 40
1
 40
1
 40
1
 10
617.984620
 20
518.039110
 30
0.0
 10
618.343850
 20
517.457860
 30
0.0
 10
618.359800
 20
515.874740
 30
0.0
 10
618.020020
 20
514.521070
 30
0.0
  0
LWPOLYLINE
  5
320
100
AcDbEntity
  8
0
 62
7
100
AcDbPolyline
 90
7
 70
0
 10
623.449490
 20
515.595950
 30
0.0
 10
623.449490
 20
524.095950
 30
0.0
 10
599.949490
 20
524.095950
 30
0.0
 10
576.449490
 20
524.095950
 30
0.0
 10
576.449490
 20
521.595950
 30
0.0
 10
576.449490
 20
519.095950
 30
0.0
 10
596.890470
 20
519.095950
 30
0.0
  0
LWPOLYLINE
  5
321
100
AcDbEntity
  8
0
 62
7
100
AcDbPolyline
 90
33
 70
0
 10
618.020020
 20
514.521070
 30
0.0
 10
617.402300
 20
512.059860
 30
0.0
 10
593.675880
 20
512.327910
 30
0.0
 10
569.949490
 20
512.595950
 30
0.0
 10
569.679600
 20
533.845950
 30
0.0
 10
569.409710
 20
555.095950
 30
0.0
 10
593.996020
 20
555.095950
 30
0.0
 10
618.582330
 20
555.095950
 30
0.0
 10
618.265910
 20
552.345950
 30
0.0
 10
617.949490
 20
549.595950
 30
0.0
 10
597.199490
 20
549.325660
 30
0.0
 10
576.449490
 20
549.055370
 30
0.0
 10
576.449490
 20
540.075660
 30
0.0
 10
576.449490
 20
531.095950
 30
0.0
 10
594.449490
 20
531.095950
 30
0.0
 10
612.449490
 20
531.095950
 30
0.0
 10
612.449490
 20
534.095950
 30
0.0
 10
612.449490
 20
537.095950
 30
0.0
 10
596.949490
 20
537.095950
 30
0.0
 10
581.449490
 20
537.095950
 30
0.0
 10
581.449490
 20
540.095950
 30
0.0
 10
581.449490
 20
543.095950
 30
0.0
 10
602.449490
 20
543.095950
 30
0.0
 10
623.449490
 20
543.095950
 30
0.0
 10
623.449490
 20
552.095950
 30
0.0
 10
623.449490
 20
561.095950
 30
0.0
 10
593.949490
 20
561.095950
 30
0.0
 10
564.449490
 20
561.095950
 30
0.0
 10
564.449490
 20
534.095950
 30
0.0
 10
564.449490
 20
507.095950
 30
0.0
 10
593.949490
 20
507.095950
 30
0.0
 10
623.449490
 20
507.095950
 30
0.0
 10
623.449490
 20
515.595950
 30
0.0
  0
SPLINE
  5
322
100
AcDbEntity
  8
0
 62
7
100
AcDbSpline
 70
8
 71
3
 72
8
 73
4
 74
0
 40
0
 40
0
 40
0
 40
0
 40
1
 40
1
 40
1
 40
1
 10
664.491490
 20
513.922520
 30
0.0
 10
666.232510
 20
511.542910
 30
0.0
 10
667.883440
 20
509.033450
 30
0.0
 10
668.160220
 20
508.345950
 30
0.0
  0
SPLINE
  5
323
100
AcDbEntity
  8
0
 62
7
100
AcDbSpline
 70
8
 71
3
 72
8
 73
4
 74
0
 40
0
 40
0
 40
0
 40
0
 40
1
 40
1
 40
1
 40
1
 10
668.160220
 20
508.345950
 30
0.0
 10
668.519810
 20
507.452780
 30
0.0
 10
671.786660
 20
507.095950
 30
0.0
 10
679.604110
 20
507.095950
 30
0.0
  0
LWPOLYLINE
  5
324
100
AcDbEntity
  8
0
 62
7
100
AcDbPolyline
 90
3
 70
0
 10
657.332710
 20
512.672520
 30
0.0
 10
661.326010
 20
518.249090
 30
0.0
 10
664.491490
 20
513.922520
 30
0.0
  0
SPLINE
  5
325
100
AcDbEntity
  8
0
 62
7
100
AcDbSpline
 70
8
 71
3
 72
8
 73
4
 74
0
 40
0
 40
0
 40
0
 40
0
 40
1
 40
1
 40
1
 40
1
 10
682.010820
 20
519.478470
 30
0.0
 10
677.317150
 20
526.288850
 30
0.0
 10
673.239470
 20
532.479670
 30
0.0
 10
672.949310
 20
533.235830
 30
0.0
  0
SPLINE
  5
326
100
AcDbEntity
  8
0
 62
7
100
AcDbSpline
 70
8
 71
3
 72
8
 73
4
 74
0
 40
0
 40
0
 40
0
 40
0
 40
1
 40
1
 40
1
 40
1
 10
672.949310
 20
533.235830
 30
0.0
 10
672.659140
 20
533.992000
 30
0.0
 10
676.487810
 20
540.457360
 30
0.0
 10
681.457460
 20
547.603310
 30
0.0
  0
LWPOLYLINE
  5
327
100
AcDbEntity
  8
0
 62
7
100
AcDbPolyline
 90
3
 70
0
 10
679.604110
 20
507.095950
 30
0.0
 10
690.544750
 20
507.095950
 30
0.0
 10
682.010820
 20
519.478470
 30
0.0
  0
SPLINE
  5
328
100
AcDbEntity
  8
0
 62
7
100
AcDbSpline
 70
8
 71
3
 72
8
 73
4
 74
0
 40
0
 40
0
 40
0
 40
0
 40
1
 40
1
 40
1
 40
1
 10
680.367340
 20
560.882080
 30
0.0
 10
670.065860
 20
561.173170
 30
0.0
 10
668.386310
 20
560.714920
 30
0.0
 10
666.442450
 20
557.082800
 30
0.0
  0
SPLINE
  5
329
100
AcDbEntity
  8
0
 62
7
100
AcDbSpline
 70
8
 71
3
 72
8
 73
4
 74
0
 40
0
 40
0
 40
0
 40
0
 40
1
 40
1
 40
1
 40
1
 10
666.442450
 20
557.082800
 30
0.0
 10
665.834900
 20
555.947570
 30
0.0
 10
666.061960
 20
554.666530
 30
0.0
 10
667.144750
 20
553.120630
 30
0.0
  0
LWPOLYLINE
  5
32a
100
AcDbEntity
  8
0
 62
7
100
AcDbPolyline
 90
3
 70
0
 10
681.457460
 20
547.603310
 30
0.0
 10
690.493200
 20
560.595950
 30
0.0
 10
680.367340
 20
560.882080
 30
0.0
  0
SPLINE
  5
32b
100
AcDbEntity
  8
0
 62
7
100
AcDbSpline
 70
8
 71
3
 72
8
 73
4
 74
0
 40
0
 40
0
 40
0
 40
0
 40
1
 40
1
 40
1
 40
1
 10
670.405640
 20
553.037810
 30
0.0
 10
671.702810
 20
554.757510
 30
0.0
 10
672.889610
 20
555.169070
 30
0.0
 10
675.826700
 20
554.917730
 30
0.0
  0
LWPOLYLINE
  5
32c
100
AcDbEntity
  8
0
 62
7
100
AcDbPolyline
 90
3
 70
0
 10
667.144750
 20
553.120630
 30
0.0
 10
668.744890
 20
550.836110
 30
0.0
 10
670.405640
 20
553.037810
 30
0.0
  0
SPLINE
  5
32d
100
AcDbEntity
  8
0
 62
7
100
AcDbSpline
 70
8
 71
3
 72
8
 73
4
 74
0
 40
0
 40
0
 40
0
 40
0
 40
1
 40
1
 40
1
 40
1
 10
672.371640
 20
523.929070
 30
0.0
 10
676.229800
 20
518.359750
 30
0.0
 10
679.149100
 20
513.418930
 30
0.0
 10
678.858970
 20
512.949490
 30
0.0
  0
SPLINE
  5
32e
100
AcDbEntity
  8
0
 62
7
100
AcDbSpline
 70
8
 71
3
 72
8
 73
4
 74
0
 40
0
 40
0
 40
0
 40
0
 40
1
 40
1
 40
1
 40
1
 10
678.858970
 20
512.949490
 30
0.0
 10
678.568840
 20
512.480040
 30
0.0
 10
677.012160
 20
512.095950
 30
0.0
 10
675.399690
 20
512.095950
 30
0.0
  0
SPLINE
  5
32f
100
AcDbEntity
  8
0
 62
7
100
AcDbSpline
 70
8
 71
3
 72
8
 73
4
 74
0
 40
0
 40
0
 40
0
 40
0
 40
1
 40
1
 40
1
 40
1
 10
675.399690
 20
512.095950
 30
0.0
 10
672.881400
 20
512.095950
 30
0.0
 10
671.732560
 20
513.153710
 30
0.0
 10
667.253890
 20
519.595950
 30
0.0
  0
SPLINE
  5
330
100
AcDbEntity
  8
0
 62
7
100
AcDbSpline
 70
8
 71
3
 72
8
 73
4
 74
0
 40
0
 40
0
 40
0
 40
0
 40
1
 40
1
 40
1
 40
1
 10
667.253890
 20
519.595950
 30
0.0
 10
664.386170
 20
523.720950
 30
0.0
 10
661.708960
 20
527.095950
 30
0.0
 10
661.304520
 20
527.095950
 30
0.0
  0
SPLINE
  5
331
100
AcDbEntity
  8
0
 62
7
100
AcDbSpline
 70
8
 71
3
 72
8
 73
4
 74
0
 40
0
 40
0
 40
0
 40
0
 40
1
 40
1
 40
1
 40
1
 10
661.304520
 20
527.095950
 30
0.0
 10
660.900090
 20
527.095950
 30
0.0
 10
658.236050
 20
523.720950
 30
0.0
 10
655.384440
 20
519.595950
 30
0.0
  0
SPLINE
  5
332
100
AcDbEntity
  8
0
 62
7
100
AcDbSpline
 70
8
 71
3
 72
8
 73
4
 74
0
 40
0
 40
0
 40
0
 40
0
 40
1
 40
1
 40
1
 40
1
 10
655.384440
 20
519.595950
 30
0.0
 10
650.664400
 20
512.768170
 30
0.0
 10
649.897190
 20
512.095950
 30
0.0
 10
646.824590
 20
512.095950
 30
0.0
  0
SPLINE
  5
333
100
AcDbEntity
  8
0
 62
7
100
AcDbSpline
 70
8
 71
3
 72
8
 73
4
 74
0
 40
0
 40
0
 40
0
 40
0
 40
1
 40
1
 40
1
 40
1
 10
646.824590
 20
512.095950
 30
0.0
 10
644.968290
 20
512.095950
 30
0.0
 10
643.449490
 20
512.530400
 30
0.0
 10
643.449490
 20
513.061390
 30
0.0
  0
SPLINE
  5
334
100
AcDbEntity
  8
0
 62
7
100
AcDbSpline
 70
8
 71
3
 72
8
 73
4
 74
0
 40
0
 40
0
 40
0
 40
0
 40
1
 40
1
 40
1
 40
1
 10
643.449490
 20
513.061390
 30
0.0
 10
643.449490
 20
513.592380
 30
0.0
 10
646.525860
 20
518.429880
 30
0.0
 10
650.285860
 20
523.811390
 30
0.0
  0
SPLINE
  5
335
100
AcDbEntity
  8
0
 62
7
100
AcDbSpline
 70
8
 71
3
 72
8
 73
4
 74
0
 40
0
 40
0
 40
0
 40
0
 40
1
 40
1
 40
1
 40
1
 10
650.285860
 20
523.811390
 30
0.0
 10
654.045860
 20
529.192900
 30
0.0
 10
658.808500
 20
536.144180
 30
0.0
 10
660.869510
 20
539.258690
 30
0.0
  0
LWPOLYLINE
  5
336
100
AcDbEntity
  8
0
 62
7
100
AcDbPolyline
 90
5
 70
0
 10
675.826700
 20
554.917730
 30
0.0
 10
679.587020
 20
554.595950
 30
0.0
 10
672.471900
 20
544.325530
 30
0.0
 10
665.356790
 20
534.055120
 30
0.0
 10
672.371640
 20
523.929070
 30
0.0
  0
SPLINE
  5
337
100
AcDbEntity
  8
0
 62
7
100
AcDbSpline
 70
8
 71
3
 72
8
 73
4
 74
0
 40
0
 40
0
 40
0
 40
0
 40
1
 40
1
 40
1
 40
1
 10
642.866250
 20
561.095950
 30
0.0
 10
637.137030
 20
561.095950
 30
0.0
 10
632.449490
 20
560.886350
 30
0.0
 10
632.449490
 20
560.630180
 30
0.0
  0
SPLINE
  5
338
100
AcDbEntity
  8
0
 62
7
100
AcDbSpline
 70
8
 71
3
 72
8
 73
4
 74
0
 40
0
 40
0
 40
0
 40
0
 40
1
 40
1
 40
1
 40
1
 10
632.449490
 20
560.630180
 30
0.0
 10
632.449490
 20
560.374010
 30
0.0
 10
635.647150
 20
555.628190
 30
0.0
 10
639.555400
 20
550.083900
 30
0.0
  0
SPLINE
  5
339
100
AcDbEntity
  8
0
 62
7
100
AcDbSpline
 70
8
 71
3
 72
8
 73
4
 74
0
 40
0
 40
0
 40
0
 40
0
 40
1
 40
1
 40
1
 40
1
 10
639.555400
 20
550.083900
 30
0.0
 10
646.034840
 20
540.892110
 30
0.0
 10
646.781420
 20
540.161750
 30
0.0
 10
648.023600
 20
541.799660
 30
0.0
  0
SPLINE
  5
33a
100
AcDbEntity
  8
0
 62
7
100
AcDbSpline
 70
8
 71
3
 72
8
 73
4
 74
0
 40
0
 40
0
 40
0
 40
0
 40
1
 40
1
 40
1
 40
1
 10
648.023600
 20
541.799660
 30
0.0
 10
649.914130
 20
544.292490
 30
0.0
 10
649.837610
 20
544.671480
 30
0.0
 10
646.449490
 20
549.595950
 30
0.0
  0
SPLINE
  5
33b
100
AcDbEntity
  8
0
 62
7
100
AcDbSpline
 70
8
 71
3
 72
8
 73
4
 74
0
 40
0
 40
0
 40
0
 40
0
 40
1
 40
1
 40
1
 40
1
 10
646.449490
 20
549.595950
 30
0.0
 10
644.799490
 20
551.994140
 30
0.0
 10
643.449490
 20
554.212720
 30
0.0
 10
643.449490
 20
554.526120
 30
0.0
  0
SPLINE
  5
33c
100
AcDbEntity
  8
0
 62
7
100
AcDbSpline
 70
8
 71
3
 72
8
 73
4
 74
0
 40
0
 40
0
 40
0
 40
0
 40
1
 40
1
 40
1
 40
1
 10
643.449490
 20
554.526120
 30
0.0
 10
643.449490
 20
554.839520
 30
0.0
 10
645.136990
 20
555.095080
 30
0.0
 10
647.199490
 20
555.094010
 30
0.0
  0
SPLINE
  5
33d
100
AcDbEntity
  8
0
 62
7
100
AcDbSpline
 70
8
 71
3
 72
8
 73
4
 74
0
 40
0
 40
0
 40
0
 40
0
 40
1
 40
1
 40
1
 40
1
 10
647.199490
 20
555.094010
 30
0.0
 10
650.553370
 20
555.092010
 30
0.0
 10
651.292790
 20
554.588360
 30
0.0
 10
654.199490
 20
550.323360
 30
0.0
  0
SPLINE
  5
33e
100
AcDbEntity
  8
0
 62
7
100
AcDbSpline
 70
8
 71
3
 72
8
 73
4
 74
0
 40
0
 40
0
 40
0
 40
0
 40
1
 40
1
 40
1
 40
1
 10
654.199490
 20
550.323360
 30
0.0
 10
655.986990
 20
547.700570
 30
0.0
 10
657.449490
 20
545.172660
 30
0.0
 10
657.449490
 20
544.705800
 30
0.0
  0
SPLINE
  5
33f
100
AcDbEntity
  8
0
 62
7
100
AcDbSpline
 70
8
 71
3
 72
8
 73
4
 74
0
 40
0
 40
0
 40
0
 40
0
 40
1
 40
1
 40
1
 40
1
 10
657.449490
 20
544.705800
 30
0.0
 10
657.449490
 20
544.238930
 30
0.0
 10
652.131050
 20
536.148230
 30
0.0
 10
645.630730
 20
526.726450
 30
0.0
  0
SPLINE
  5
340
100
AcDbEntity
  8
0
 62
7
100
AcDbSpline
 70
8
 71
3
 72
8
 73
4
 74
0
 40
0
 40
0
 40
0
 40
0
 40
1
 40
1
 40
1
 40
1
 10
645.630730
 20
526.726450
 30
0.0
 10
639.130420
 20
517.304680
 30
0.0
 10
633.478860
 20
509.033450
 30
0.0
 10
633.071720
 20
508.345950
 30
0.0
  0
SPLINE
  5
341
100
AcDbEntity
  8
0
 62
7
100
AcDbSpline
 70
8
 71
3
 72
8
 73
4
 74
0
 40
0
 40
0
 40
0
 40
0
 40
1
 40
1
 40
1
 40
1
 10
633.071720
 20
508.345950
 30
0.0
 10
632.498670
 20
507.378300
 30
0.0
 10
634.704110
 20
507.095950
 30
0.0
 10
642.835440
 20
507.095950
 30
0.0
  0
LWPOLYLINE
  5
342
100
AcDbEntity
  8
0
 62
7
100
AcDbPolyline
 90
5
 70
0
 10
660.869510
 20
539.258690
 30
0.0
 10
664.616780
 20
544.921430
 30
0.0
 10
658.949890
 20
553.008690
 30
0.0
 10
653.283000
 20
561.095950
 30
0.0
 10
642.866250
 20
561.095950
 30
0.0
  0
LWPOLYLINE
  5
343
100
AcDbEntity
  8
0
 62
7
100
AcDbPolyline
 90
3
 70
0
 10
642.835440
 20
507.095950
 30
0.0
 10
653.339420
 20
507.095950
 30
0.0
 10
657.332710
 20
512.672520
 30
0.0
  0
ENDSEC
  0
SECTION
  2
OBJECTS
  0
DICTIONARY
  5
C
330
0
100
AcDbDictionary
  3
ACAD_GROUP
350
D
  3
ACAD_MLINESTYLE
350
17
  0
DICTIONARY
  5
D
330
C
100
AcDbDictionary
  0
DICTIONARY
  5
1A
330
C
100
AcDbDictionary
  0
DICTIONARY
  5
17
330
C
100
AcDbDictionary
  3
STANDARD
350
18
  0
DICTIONARY
  5
19
330
C
100
AcDbDictionary
  0
ENDSEC
  0
EOF
