<svg id="Capa_1" data-name="Capa 1" xmlns="http://www.w3.org/2000/svg" viewBox="0 0 1080 1080"><defs><style>.cls-1{fill:#fff;stroke-width:0}</style></defs><path class="cls-1" d="M289.75 542.5c7.55-16.64 15.22-33.22 22.61-49.92 15.82-35.73 31.57-71.48 47.13-107.32 2.41-5.56 5.72-7.73 11.85-7.7 39.69.22 79.38.12 119.08.12h6.97v-58.63c-7.96 0-15.94-.44-23.86.09-21.45 1.44-34.37-16.33-33.61-33.52.97-22 .24-44.07.24-66.29-11.55-4.24-19.71-11.53-22.17-23.92-.5-2.52-.66-5.15-.67-7.73-.04-37.49-.03-74.97-.03-112.46V68.2h-7.67c-35.88 0-71.77-.08-107.65.09-4.89.02-8.96-.93-12.22-4.63V52.83h500.5v10.83c-3.87 1.51-7.73 4.32-11.61 4.34-59.13.28-118.27.2-177.4.2h-8.08v6.72c0 36.88-.22 73.77.1 110.65.14 15.48-5.49 26.6-20.14 32.76-1.45.61-2.66 3.63-2.68 5.54-.18 20.85-.76 41.72.09 62.53.76 18.52-13.99 34.09-33.04 32.74-7.92-.56-15.92-.09-24.17-.09v58.63h7.01c62.74 0 125.49.08 188.23-.12 6.36-.02 9.8 2.12 12.26 7.97 7.42 17.64 15.35 35.06 23.05 52.59 4.22 9.6 1.33 14.13-9 14.13-37.28.01-74.57 0-111.85 0h-7.19v6.84c0 28.06-.08 56.13.09 84.19.03 4.44-1.1 7.77-4.94 10.04H289.74v-10.83zm223.27-149.44v7.89c0 22.05.03 44.1-.02 66.15-.02 6.47-2.91 10.22-7.6 10.26-4.86.04-7.57-3.5-7.58-10.09-.02-22.45 0-44.9 0-67.35v-6.44c-1.52-.2-2.3-.38-3.07-.38-39.29-.02-78.58.05-117.86-.15-4.14-.02-4.97 2.41-6.17 5.15-19.59 44.52-39.18 89.04-58.76 133.57-.82 1.86-1.45 3.8-2.23 5.88h290.83v-86.92c0-12.36 1.59-13.98 13.68-13.98h112.21c-5.83-13.22-11.54-25.5-16.61-38.03-1.83-4.52-4.23-5.68-8.88-5.67-60.13.16-120.27.11-180.4.11h-7.52zm-80.13-324.6v119.23c0 11.28 5.56 16.78 16.93 16.79 36.26.01 72.52 0 108.77 0 14.43 0 19.51-5.01 19.52-19.36.02-36.86 0-73.72 0-110.58v-6.09H432.87zm22.72 151.84c0 22.37-.03 44.2.01 66.03.02 11.96 5.68 17.65 17.62 17.68 21.25.05 42.51.04 63.76 0 12.56-.02 18.29-5.82 18.31-18.47.02-19.85 0-39.7 0-59.55v-5.54h-14.3c0 11.81.04 23.22-.02 34.63-.03 6.52-3.35 10.76-8.07 10.58-4.8-.18-7.34-3.74-7.35-10.38-.01-11.57 0-23.15 0-34.86h-12.55v43.65c0 4.41.15 8.83-.13 13.23-.3 4.67-3.16 7.64-7.74 7.48-4.46-.15-7.34-2.88-7.32-7.8.01-4.01-.02-8.02-.02-12.03v-44.51h-12.49c0 11.02.02 21.64-.01 32.26 0 2-.07 4.01-.32 5.99-.56 4.48-3.45 7.04-7.69 6.83-4.47-.22-7.23-2.92-7.2-7.89.08-12.37.03-24.73.03-37.34h-14.51z"/><path class="cls-1" d="M635.05 553.33c-1.28-3.76-3.6-7.5-3.67-11.27-.36-21.44-.19-42.9-.16-64.35 0-8.47 2.19-10.73 10.63-10.74 35.48-.04 70.96.05 106.45-.09 6.07-.02 9.5 2.56 11.85 8.02 9.05 21.07 18.36 42.02 27.6 63 .7 1.59 1.66 3.07 2.5 4.59v10.83h-155.2zm11.57-70.99v55.33h123.49c-.13-.89-.09-1.52-.31-2.04-5.32-12.25-10.63-24.5-16.02-36.71-2.41-5.45-3.62-12.93-7.85-15.66-4.28-2.77-11.62-.9-17.62-.9-27.04-.03-54.08-.02-81.69-.02zM540 475.39c-7.38.15-11.4-4.95-9.15-10.19 7.52-17.55 15.37-34.96 23.28-52.35 2.02-4.44 6.23-5.22 10.19-3.42 4.12 1.88 5.47 5.58 3.49 10.03-7.6 17.09-15.08 34.23-22.91 51.21-1.07 2.32-3.92 3.81-4.89 4.71zm-59.26-6.07c-1.56 1.62-3.21 4.62-5.68 5.62-4.22 1.71-7.79-.29-9.71-4.58-5.2-11.63-10.38-23.28-15.55-34.93-2.27-5.1-4.65-10.15-6.72-15.32-1.74-4.36-1.2-8.44 3.34-10.82 3.99-2.09 8.44-.11 10.67 4.81 7.47 16.52 14.8 33.1 22.14 49.68.55 1.25.75 2.67 1.52 5.54zm-130.07 31.01c4.56.68 7.21 3.28 7.54 7.81.29 3.98-4.23 8.32-8.16 7.71-4.4-.68-7.43-3.45-7.19-8.05.23-4.5 3.26-6.99 7.81-7.47zm37.69 7.35c.46-4.33 3.02-7.13 7.6-7.16 4.69-.03 7.21 3.13 7.71 7.51.45 3.94-4.12 8.39-8.01 7.84-4.36-.62-7.17-3.11-7.3-8.19zm151.7.23c-.18 4.98-3.01 7.45-7.41 7.96-3.98.46-8.34-3.98-7.86-7.98.53-4.43 3.14-7.48 7.81-7.38 4.59.1 7.13 2.91 7.47 7.4zm-106.05.95c-.07-5.23 2.48-7.86 7.02-8.39 4.2-.49 8.15 3.38 7.97 7.7-.2 4.66-2.94 7.6-7.43 7.63-4.38.03-7.4-2.5-7.56-6.94zm52.79-8.54c4.54.64 7.5 2.77 7.6 7.68.1 4.93-2.8 7.39-7.3 7.87-4.01.43-7.6-3.34-7.6-7.58 0-4.83 2.78-7.19 7.3-7.97zm91.61.08c3.83.47 6.7 2.84 7.23 7.37.46 3.95-3.83 8.49-7.78 8.11-4.47-.43-7.27-3.17-7.64-7.7-.31-3.85 3.61-7.65 8.19-7.79zM470.36 121.66c0 7.42-.11 14.84.04 22.25.1 5.17-2.5 8.27-7.31 8.4-4.86.13-7.73-3.06-7.75-8.06-.08-15.03-.15-30.07.02-45.1.07-5.59 3.4-8.94 7.99-8.42 4.96.57 7.18 3.59 7.06 8.67-.18 7.41-.05 14.83-.04 22.25zm0 51.84c-.08 5.44-2.95 8.64-7.64 8.52-4.62-.12-7.45-3.51-7.43-8.92.02-5.51 2.75-8.69 7.53-8.78 4.92-.08 7.63 3.22 7.54 9.18zM99.51 698.74h56.55c26.02 0 40.48 14.94 40.48 40.8 0 24.1-14.62 40-40.48 40h-26.67v36.31H99.51V698.74zm52.05 56.39c9.16 0 13.17-5.14 13.17-11.25v-7.71c0-7.39-5.46-10.92-13.33-10.92h-22.01v29.88h22.17zm142.49 60.72h-24.9l-3.53-15.9h-1.61c-5.14 11.08-13.82 17.51-27.63 17.51-20.08 0-29.24-13.98-29.24-34.54v-53.98h28.43v49.48c0 10.92 4.98 16.23 13.82 16.23 10.28 0 16.39-8.19 16.39-19.76v-45.94h28.27v86.91zm17.03-86.91h24.74l3.53 15.9h1.45c5.3-11.57 15.42-17.51 28.27-17.51 21.04 0 29.72 15.26 29.72 36.95v51.57h-28.27v-48.68c0-11.41-5.14-16.87-14.46-16.87-10.92 0-16.71 8.19-16.71 19.6v45.94h-28.27v-86.91zM481.2 793.2v22.65h-69.72v-20.24l34.38-43.86h-34.7v-22.81h69.24v19.92l-34.54 44.34h35.34zm52.21-65.87c25.86 0 44.18 16.23 44.18 44.98 0 27.15-16.39 45.14-44.18 45.14-26.02 0-44.02-16.55-44.02-45.14s16.55-44.98 44.02-44.98zm0 67.31c10.12 0 15.42-5.3 15.42-15.26v-13.82c0-10.28-5.78-15.26-15.42-15.26-10.12 0-15.42 5.3-15.42 15.26v13.82c0 10.44 5.94 15.26 15.42 15.26zm56.55-65.7h24.74l3.53 15.9h1.45c5.3-11.57 15.42-17.51 28.27-17.51 21.04 0 29.72 15.26 29.72 36.95v51.57H649.4v-48.68c0-11.41-5.14-16.87-14.46-16.87-10.92 0-16.71 8.19-16.71 19.6v45.94h-28.27v-86.91zm129.8 34.54h22.01v-4.5c0-7.07-4.02-10.12-10.6-10.12-7.55 0-11.25 3.69-11.73 9.16h-27.79c1.77-20.72 17.83-30.68 40.8-30.68 26.67 0 37.59 14.3 37.59 32.13v37.11h9.8v19.28h-19.28c-11.08 0-15.26-3.37-16.87-10.28l-.32-2.41h-1.29c-3.21 8.67-13.49 14.3-26.02 14.3-16.87 0-27.95-10.6-27.95-26.83 0-17.03 12.53-27.15 31.65-27.15zm-3.21 25.86c0 4.66 3.86 7.07 10.12 7.07 9.48 0 15.1-5.14 15.1-13.98v-2.57h-15.9c-6.27 0-9.32 2.89-9.32 7.07v2.41zm70.52-16.54c0-29.08 13.65-45.3 34.7-45.3 14.78 0 24.1 7.23 28.27 17.19h1.61v-49h28.27v120.16h-24.58l-3.69-15.58h-1.61c-5.14 11.41-16.39 17.19-28.27 17.19-21.69 0-34.7-17.03-34.7-44.66zm64.58 2.73v-5.94c0-11.89-6.91-19.28-18.63-19.28-10.28 0-17.19 4.82-17.19 16.06v12.37c0 9.64 4.98 16.06 17.03 16.06s18.8-7.55 18.8-19.28zm84.66-48.2c25.86 0 44.18 16.23 44.18 44.98 0 27.15-16.39 45.14-44.18 45.14-26.02 0-44.02-16.55-44.02-45.14s16.55-44.98 44.02-44.98zm0 67.31c10.12 0 15.42-5.3 15.42-15.26v-13.82c0-10.28-5.78-15.26-15.42-15.26-10.12 0-15.42 5.3-15.42 15.26v13.82c0 10.44 5.94 15.26 15.42 15.26z"/></svg>