<svg xmlns="http://www.w3.org/2000/svg" xmlns:xlink="http://www.w3.org/1999/xlink" width="353" height="166" viewBox="0 0 353 166">
  <defs>
    <clipPath id="clip-Palacio-logo">
      <rect width="353" height="166"/>
    </clipPath>
  </defs>
  <g id="Palacio-logo" clip-path="url(#clip-Palacio-logo)">
    <g id="Palacio" transform="translate(-3.7 13.88)">
      <g id="Group_27" data-name="Group 27" transform="translate(3.7 101.388)">
        <path id="Path_784" data-name="Path 784" d="M18.732,69.534c-2.851-3.628-5.7-6.479-8.553-10.108a94.934,94.934,0,0,0-2.333,9.33c-.518,0-1.3-.259-2.073-.259a5.052,5.052,0,0,0-2.073.259C5.773,62.277,7.847,55.539,9.661,48.8H9.92c3.628,4.665,7.257,9.071,10.885,13.477A96.207,96.207,0,0,0,30.914,48.8h.518c1.814,6.739,4.147,13.736,6.22,20.216-.778,0-2.333-.259-3.888-.259a16.02,16.02,0,0,0-3.888.259C28.84,64.61,27.8,61.5,27.285,58.908c-2.851,3.628-5.7,6.739-8.553,10.626h0Z" transform="translate(-3.7 -48.541)" fill="#fff"/>
        <path id="Path_785" data-name="Path 785" d="M40.344,49.259A7.176,7.176,0,0,0,42.677,49a56.338,56.338,0,0,0-.518,9.33c0,7.516-5.7,10.885-12.441,10.885-6.22,0-12.7-2.333-12.7-10.885A56.338,56.338,0,0,0,16.5,49c1.037,0,2.592.259,3.888.259A17.162,17.162,0,0,0,24.275,49a56.338,56.338,0,0,0-.518,9.33c0,5.7,3.369,8.035,7,8.035,3.888,0,7.775-2.333,7.775-8.035A56.338,56.338,0,0,0,38.012,49C38.789,49,39.567,49.259,40.344,49.259Z" transform="translate(16.675 -48.222)" fill="#fff"/>
        <path id="Path_786" data-name="Path 786" d="M27.8,48.959c1.814,1.037,8.035,5.184,14,8.294,2.851,1.3,4.665,2.333,6.22,2.851V55.957c0-1.555,0-3.628-.259-6.479.518,0,1.3.259,2.073.259a5.053,5.053,0,0,0,2.073-.259,74.76,74.76,0,0,0-.518,10.885c0,3.11.259,6.22.259,9.33h-.259c-1.814-1.037-7.257-4.665-11.922-7.257a80.12,80.12,0,0,1-8.035-3.888v3.11c0,2.333.259,4.665.518,7.257-.518,0-1.3-.259-2.073-.259a5.053,5.053,0,0,0-2.073.259,81.858,81.858,0,0,0,.518-9.071c0-4.147-.259-8.553-.518-11.145v.259Z" transform="translate(34.662 -48.7)" fill="#fff"/>
        <path id="Path_787" data-name="Path 787" d="M38.659,58.59c0-6.479-.259-7.775-.259-9.59,1.814,0,4.406.259,6.22.259,2.333,0,3.369-.259,7.516-.259,9.59,0,15.291,3.888,15.291,9.849S61.985,68.7,52.136,68.7c-4.406,0-5.184-.259-7.257-.259A54.175,54.175,0,0,0,38.4,68.7C38.4,66.624,38.659,64.032,38.659,58.59Zm21.253.259c0-4.665-2.851-7-8.035-7a58.578,58.578,0,0,0-6.739.259V65.847c2.073,0,4.665.259,6.739.259C57.061,65.847,59.912,63.514,59.912,58.849Z" transform="translate(51.535 -48.222)" fill="#fff"/>
        <path id="Path_788" data-name="Path 788" d="M66.887,48.8c8.294,0,15.81,3.628,15.81,10.108,0,5.961-6.479,10.885-16.587,10.885-8.294,0-15.81-3.628-15.81-10.108S56.779,48.8,66.887,48.8ZM58.075,59.167c0,5.184,3.369,8.035,8.553,8.035,4.665,0,8.553-2.592,8.553-8.035,0-5.184-3.369-8.294-8.553-8.294C61.963,51.133,58.075,53.724,58.075,59.167Z" transform="translate(70.477 -48.541)" fill="#fff"/>
        <path id="Path_789" data-name="Path 789" d="M70.688,68.279a19.617,19.617,0,0,0-3.888.259,72.623,72.623,0,0,0,.518-9.849A52.414,52.414,0,0,0,66.8,49.1c1.3,0,2.592.259,3.888.259a19.616,19.616,0,0,0,3.888-.259,54.762,54.762,0,0,0-.518,9.59,66.789,66.789,0,0,0,.518,9.849C73.279,68.538,71.724,68.279,70.688,68.279Z" transform="translate(96.741 -48.063)" fill="#fff"/>
        <path id="Path_790" data-name="Path 790" d="M85.332,69.693c-2.851-3.628-5.7-6.479-8.553-10.108a94.932,94.932,0,0,0-2.333,9.33c-.518,0-1.3-.259-2.073-.259a5.052,5.052,0,0,0-2.073.259c2.073-6.739,4.147-13.477,5.961-20.216h.259c3.628,4.665,7.257,9.071,10.885,13.477A96.207,96.207,0,0,0,97.514,48.7h.518c1.814,6.739,4.147,13.736,6.22,20.216-.778,0-2.333-.259-3.888-.259a16.019,16.019,0,0,0-3.888.259C95.44,64.51,94.4,61.4,93.885,58.808c-2.851,3.628-5.7,6.739-8.553,10.626h0Z" transform="translate(102.312 -48.7)" fill="#fff"/>
        <path id="Path_791" data-name="Path 791" d="M87.788,68.279a19.617,19.617,0,0,0-3.888.259,72.622,72.622,0,0,0,.518-9.849A52.413,52.413,0,0,0,83.9,49.1c1.814,0,3.888.259,5.7.259,1.555,0,5.184-.259,6.22-.259,9.849,0,12.7,1.814,12.7,6.479s-3.11,6.479-12.7,6.479H91.157a36.87,36.87,0,0,0,.518,6.739A20.005,20.005,0,0,0,87.788,68.279Zm3.369-16.587c0,1.3-.259,3.369-.259,7.257h4.924c4.406,0,5.7-1.555,5.7-3.628,0-2.333-1.037-3.628-5.7-3.628Z" transform="translate(123.961 -48.063)" fill="#fff"/>
        <path id="Path_792" data-name="Path 792" d="M115.453,49.384l.778,3.629h-.259c-.778-1.3-1.814-1.555-3.628-1.555H101.975c0,1.814-.259,3.628-.259,5.443h5.7c1.3,0,3.888-.259,5.184-.259v3.628a31.42,31.42,0,0,0-5.184-.259h-5.7a45.881,45.881,0,0,0,.259,5.961h9.071c2.851,0,4.147-.259,6.22-2.592l.259.259L115.193,68.3c-.259.518-.259.518-1.037.518-9.071,0-11.145-.259-13.218-.259a58.581,58.581,0,0,0-6.739.259,72.623,72.623,0,0,0,.518-9.849,52.414,52.414,0,0,0-.518-9.59c2.073,0,4.665.259,6.739.259s4.147-.259,13.736-.259C115.193,48.865,115.453,49.125,115.453,49.384Z" transform="translate(140.356 -48.088)" fill="#fff"/>
        <path id="Path_793" data-name="Path 793" d="M107.788,68.279a19.617,19.617,0,0,0-3.888.259,72.62,72.62,0,0,0,.518-9.849,52.412,52.412,0,0,0-.518-9.59c1.814,0,3.888.259,5.7.259,1.555,0,4.924-.259,6.22-.259,9.33,0,12.441,1.555,12.441,6.22,0,3.11-1.3,4.924-5.184,5.7.518.518.778,1.037,1.3,1.555,1.814,2.592,2.592,5.443,5.184,5.443a4.673,4.673,0,0,0,2.592-.518l.259.518a10.246,10.246,0,0,1-5.7,1.3c-10.626,0-7-7.775-12.441-7.775h-2.851a41.576,41.576,0,0,0,.518,7.257A29.928,29.928,0,0,0,107.788,68.279Zm3.369-16.587c0,1.3-.259,3.11-.259,6.739h4.665c4.924,0,5.7-1.555,5.7-3.369,0-2.073-.778-3.369-5.7-3.369Z" transform="translate(155.796 -48.063)" fill="#fff"/>
        <path id="Path_794" data-name="Path 794" d="M118.888,68.279a19.617,19.617,0,0,0-3.888.259,72.62,72.62,0,0,0,.518-9.849A52.412,52.412,0,0,0,115,49.1c1.3,0,2.592.259,3.888.259a19.616,19.616,0,0,0,3.888-.259,54.764,54.764,0,0,0-.518,9.59,66.792,66.792,0,0,0,.518,9.849C121.479,68.538,120.184,68.279,118.888,68.279Z" transform="translate(173.465 -48.063)" fill="#fff"/>
        <path id="Path_795" data-name="Path 795" d="M138.657,50.814c3.888,6.739,5.961,11.145,10.885,17.883-1.814,0-3.11-.259-4.147-.259a26.862,26.862,0,0,0-4.147.259c-.778-1.555-1.3-3.11-2.073-4.665H126.216a26.03,26.03,0,0,0-2.333,4.665c-.518,0-1.555-.259-2.592-.259a7.223,7.223,0,0,0-2.592.259c3.888-4.665,9.33-12.959,12.7-18.142-.518-.778-1.3-.778-3.11-1.037V49c1.3,0,2.851.259,4.147.259S135.028,49,135.806,49C137.361,49,138.138,49.259,138.657,50.814Zm-5.7,2.073c-1.555,2.333-3.369,5.443-5.184,8.294h10.108C136.324,58.59,134.769,55.739,132.955,52.888Z" transform="translate(179.354 -48.222)" fill="#fff"/>
        <path id="Path_796" data-name="Path 796" d="M137.52,68.279a47.9,47.9,0,0,0-6.22.259,72.62,72.62,0,0,0,.518-9.849,52.416,52.416,0,0,0-.518-9.59c1.3,0,2.592.259,3.888.259a19.616,19.616,0,0,0,3.888-.259,54.761,54.761,0,0,0-.518,9.59,54.524,54.524,0,0,0,.259,7.257h8.553c2.333,0,3.369,0,5.7-2.592l.518.259-2.333,4.665c-.259.259-.259.518-1.037.518C138.816,68.538,138.557,68.279,137.52,68.279Z" transform="translate(199.411 -48.063)" fill="#fff"/>
      </g>
      <rect id="Rectangle_27" data-name="Rectangle 27" width="189.459" height="13.736" transform="translate(166.464 77.543)" fill="#fff"/>
      <g id="Group_29" data-name="Group 29" transform="translate(4.218 15.6)">
        <g id="Group_28" data-name="Group 28">
          <path id="Path_797" data-name="Path 797" d="M4.159,63.889,7.01,63.63c2.592-.259,3.628-.778,3.628-1.3V18.014c0-.518-.518-.778-4.406-1.037l-2.073-.259L3.9,16.2H26.448c15.032,0,22.808,3.369,22.808,11.663,0,8.553-8.553,13.218-23.067,13.218a12.618,12.618,0,0,1-3.11-.259V62.593c0,.518.259.778,4.147,1.037l2.851.259.259.518H3.9ZM36.038,28.9c0-7.775-3.628-11.663-10.108-11.922l-2.592.259V40.044c.778,0,1.555.259,2.592.259C31.632,40.3,36.038,35.638,36.038,28.9Z" transform="translate(-3.9 -14.645)" fill="#fff"/>
          <path id="Path_798" data-name="Path 798" d="M35.873,44.887l-2.592,7.257c-3.888,11.4-4.924,11.663,2.592,12.7l1.555.259.259.518H21.1l.259-.518,1.3-.259c5.443-.518,5.7-1.814,10.108-13.218l9.071-24.881L40.8,24.153c4.406-1.037,6.22-3.888,8.035-8.553h2.073L64.642,54.477c3.11,8.553,4.924,10.108,8.035,10.367l2.073.259v.518H48.573l.259-.518,1.814-.259c3.628-.259,3.888-1.814,2.333-6.22L48.314,45.146H35.873ZM47.8,44.11l-5.7-16.328h0L36.132,44.11H47.8Z" transform="translate(23.479 -15.6)" fill="#fff"/>
          <path id="Path_799" data-name="Path 799" d="M44.059,63.889l2.851-.259c2.592-.259,3.628-.778,3.628-1.3V18.014c0-.518-.518-.778-4.406-1.037l-1.814-.259-.259-.518h26.7l-.259.518-3.628.259c-1.814.259-3.628.518-3.628,1.3v45.1l3.888.518c6.479,0,12.959-4.147,19.179-17.365l.518-1.037h.518L84.75,64.407H43.8Z" transform="translate(59.612 -14.645)" fill="#fff"/>
          <path id="Path_800" data-name="Path 800" d="M77.173,44.887l-2.592,7.257c-3.888,11.4-4.924,11.663,2.592,12.7l1.555.259.259.518H62.4l.259-.518,1.3-.259c5.443-.518,5.7-1.814,10.108-13.218l9.071-24.881L82.1,24.153c4.406-1.037,6.22-3.888,8.035-8.553h2.073l13.736,38.877c3.11,8.553,4.924,10.108,8.035,10.367l2.073.259v.518H89.873l.259-.518,1.814-.259c3.628-.259,3.888-1.814,2.333-6.22L89.614,45.146H77.173ZM89.1,44.11l-5.7-16.328h0L77.432,44.11H89.1Z" transform="translate(89.219 -15.6)" fill="#fff"/>
          <path id="Path_801" data-name="Path 801" d="M84.1,41.459c0-13.477,9.849-25.659,29.287-25.659a27.744,27.744,0,0,1,11.663,2.592l5.443-1.037.778,16.069h-.518L122.2,18.91a20.442,20.442,0,0,0-8.812-1.814c-10.108,0-15.81,10.108-15.81,24.363,0,15.032,6.739,23.844,15.032,23.844,8.035,0,13.477-4.147,16.587-11.4l2.851-5.961h.518L129.974,62.97l-2.592.259a55.454,55.454,0,0,1-15.291,2.851C94.726,65.821,84.1,54.677,84.1,41.459Z" transform="translate(123.761 -15.282)" fill="#fff"/>
          <path id="Path_802" data-name="Path 802" d="M106.418,63.889l2.851-.259c2.592-.259,3.629-.778,3.629-1.3V18.014c0-.518-.518-.778-4.406-1.037l-2.333-.259L105.9,16.2h26.177l-.259.518-2.851.259c-2.592.259-3.629.778-3.629,1.3V62.593c0,.518.518.778,4.406,1.037l2.073.259.259.518H106.159Z" transform="translate(158.461 -14.645)" fill="#fff"/>
          <path id="Path_803" data-name="Path 803" d="M119.1,40.94c0-13.736,12.7-25.14,27.473-25.14,15.291,0,26.177,10.108,26.177,25.4,0,13.736-12.7,24.881-27.214,24.881C129.985,65.821,119.1,55.973,119.1,40.94Zm39.913,0c0-16.328-4.406-24.1-13.218-24.1-9.33,0-13.218,6.739-13.218,23.844,0,16.587,4.406,24.363,13.736,24.363C155.385,65.044,159.013,58.305,159.013,40.94Z" transform="translate(179.473 -15.282)" fill="#fff"/>
        </g>
      </g>
    </g>
  </g>
</svg>
